<svg xmlns="http://www.w3.org/2000/svg" xmlns:xlink="http://www.w3.org/1999/xlink" width="796.633" height="955.139" viewBox="0 0 796.633 955.139"><defs><clipPath id="a"><path d="M240.808,282.975s-20.24-13.151-38.975-3.779-17.488,42.461-21.857,69.939-7.5,34.346-18.111,31.224S107.256,361,78.04,409.09,12.608,677.622,12.608,677.622s124.278,74.938,275.405,84.3,216.7-35.593,216.7-35.593S468.495,590.5,443.047,526.809s-36.432-80.565-82.931-100.237c0,0,12.517-32.785,16.263-57.141S356.6,331.372,356.6,331.372Z" transform="translate(-12.608 -275.826)" fill="none"/></clipPath></defs><g transform="translate(-887.981 -270)"><ellipse cx="398" cy="400.5" rx="398" ry="400.5" transform="translate(887.981 401)" fill="#ee312f"/><g transform="translate(991.161 270)"><path d="M403.846,244.344s12.49,117.4-6.245,223.566S256.464,634.649,91.126,436.062c0,0-54.8,1.87-40.746-73.068,13.565-72.356,69.94-49.958,77.437-26.226,0,0,59.949-16.241,56.2-84.934,0,0,78.689,51.211,158.624-26.226C342.645,225.609,365.125,258.08,403.846,244.344Z" transform="translate(147.588 -34.882)" fill="#e7b694"/><g transform="translate(219.446 304.25)"><path d="M80.554,319.3a2.78,2.78,0,0,1-.811-.121,2.877,2.877,0,0,1-1.947-3.57c6.25-21.2,12.181-56.832,1.473-62.188-3.365-1.683-6.427-1.92-9.362-.723-6.421,2.615-10.785,11.728-11.927,15.022a2.876,2.876,0,1,1-5.434-1.887c.2-.579,5.064-14.332,15.193-18.464,4.5-1.832,9.24-1.528,14.1.91,18.486,9.24,3.271,62.873,1.473,68.958A2.874,2.874,0,0,1,80.554,319.3Z" transform="translate(-52.387 -246.187)" fill="#d4664f"/></g><path d="M608.511,326.177s37.474-26.226,5.621-54.328-75.875-9.367-75.875-9.367,5.621-45.9-50.582-66.508-79.627,29.972-79.627,29.972-12.175-35.163-60.887-34.909-54.333,29.293-54.333,29.293-40.277-48.712-121.773-19.672-54.019,109.907-54.019,109.907-40.591-19.981-76.19,22.171-5.621,89.926,18.734,91.8c0,0-31.847,20.61-29.977,67.446s67.446,60.23,67.446,60.23-21.542,32.5,13.113,66.227c26.651,25.934,73.763-3.5,94.13-18.5-2.174-2.538-4.353-5.1-6.543-7.723,0,0-54.8,1.87-40.746-73.068,13.565-72.356,69.939-49.958,77.437-26.226,0,0,59.949-16.241,56.2-84.934,0,0,78.689,51.211,158.624-26.226,0,0,22.48,32.471,61.2,18.734,0,0,3.989,37.541,4.071,89.347,15.965,1.693,63.86,4.259,85.54-22.563,26.231-32.438,9.367-68.036,9.367-68.036s33.723-.938,41.22-26.226S642.234,327.115,608.511,326.177Z" transform="translate(40.964 -191.036)" fill="#2b2c3e"/><path d="M285.315,296.893c-14.674-14.051-38.407-8.429-89.926-14.051s-103.039-22.48-103.039-22.48c-13.317,28.223-19.661,67.032-22.662,95.283,125.845,101.346,214.579,44.392,230.307-44.7.281-1.611.535-3.227.805-4.844A40.276,40.276,0,0,1,285.315,296.893Z" transform="translate(245.195 122.083)" fill="#fff"/><path d="M117.322,350.5a170.315,170.315,0,0,1,7.348-18.8s-31.257-38.815-47.079-87.135a74.592,74.592,0,0,1-15.06,6.576s18.3,54.328,54.741,99.293Z" transform="translate(212.874 50.744)" fill="#fff"/><g transform="translate(472.835 311.187)"><path d="M125.8,334.856c-20.886,0-27-14.42-27.263-15.071a2.877,2.877,0,0,1,5.329-2.168c.21.518,5.737,12.953,25.531,11.336,11.254-.943,15.651-7.133,17.361-12.153,2.587-7.6.447-17.344-4.871-22.2-9.411-8.589-23.8-4.551-23.953-4.513a2.961,2.961,0,0,1-2.24-.27,2.858,2.858,0,0,1-1.357-1.793c-3.851-15.4-.2-37.259-.044-38.186a2.874,2.874,0,1,1,5.666.971c-.033.2-3.172,19.027-.623,33.089,5.517-.943,17.432-1.754,26.425,6.46,7,6.383,9.764,18.552,6.443,28.3-1.854,5.445-7.216,14.762-22.32,16.026C128.455,334.8,127.1,334.856,125.8,334.856Z" transform="translate(-98.319 -247.445)" fill="#d4664f"/></g><path d="M116.513,244.575c-6.807,7.287-26.2,8.992-27,9.064a42.091,42.091,0,0,0-1.633,8.137c-1.374,14.68,4.717,27.258,13.6,28.085s17.2-10.393,18.574-25.073C120.788,256.932,119.337,249.75,116.513,244.575Z" transform="translate(326.476 50.78)" fill="#2b2c3e"/><path d="M118.047,244.937c-5.93,2.174-11.166,12.3-12.346,24.935-1.374,14.68,3.238,27.114,10.294,27.776s13.9-10.708,15.27-25.387a49.3,49.3,0,0,0-.612-13.963A36.43,36.43,0,0,1,118.047,244.937Z" transform="translate(406.764 52.415)" fill="#2b2c3e"/><g transform="translate(402.552 279.319)"><path d="M89.887,267.094a62.318,62.318,0,0,0,26.331-3.8c7.729-2.924,17.085-7.365,20.9-15.171a4.418,4.418,0,0,0-1.545-5.9c-1.9-1.114-4.877-.557-5.9,1.545-1.534,3.139-4.182,5.13-7.105,6.918a52.42,52.42,0,0,1-10.04,4.8,56.158,56.158,0,0,1-22.64,2.979,4.346,4.346,0,0,0-4.308,4.308,4.392,4.392,0,0,0,4.308,4.314Z" transform="translate(-85.579 -241.668)" fill="#2a2d42"/></g><g transform="translate(517.379 284.444)"><path d="M106.406,246.915c.6,7.343,5.748,12.423,11.309,16.66a58.95,58.95,0,0,0,17.94,9.213,4.352,4.352,0,0,0,5.307-3.012,4.406,4.406,0,0,0-3.012-5.3c-1.363-.436-2.709-.91-4.033-1.44-.171-.072-.938-.4-.425-.177q-.513-.223-1.026-.463c-.612-.281-1.225-.574-1.826-.877a55.274,55.274,0,0,1-7.492-4.579c-.243-.182-.485-.359-.723-.541s-.243-.177-.022-.011l-.353-.276c-.568-.469-1.142-.932-1.694-1.418a29.927,29.927,0,0,1-2.8-2.753c-.226-.259-.452-.524-.662-.794.281.359.088.116-.066-.11a18.956,18.956,0,0,1-1.054-1.727c-.05-.088-.469-1.048-.287-.574.177.458-.193-.629-.188-.607-.077-.254-.132-.513-.2-.767-.309-1.186.028.783-.072-.447-.188-2.245-1.854-4.424-4.314-4.314-2.179.1-4.513,1.9-4.314,4.314Z" transform="translate(-106.394 -242.597)" fill="#2a2d42"/></g><path d="M240.808,282.975s-20.24-13.151-38.975-3.779-17.488,42.461-21.857,69.939-7.5,34.346-18.111,31.224S107.256,361,78.04,409.09,12.608,677.622,12.608,677.622s124.278,74.938,275.405,84.3,216.7-35.593,216.7-35.593S468.495,590.5,443.047,526.809s-36.432-80.565-82.931-100.237c0,0,12.517-32.785,16.263-57.141S356.6,331.372,356.6,331.372Z" transform="translate(-12.608 191.929)" fill="#77beea"/><path d="M65.722,263.758,53.7,348.063s0,46.213,42.467,71.192,72.439-4.992,72.439-4.992a349.668,349.668,0,0,1,5.908-50.587C141.156,342.861,104.63,310.489,65.722,263.758Z" transform="translate(172.993 137.422)" fill="#e7b694"/><g transform="translate(65.433 0.415)"><path d="M195.089,248.986s-4.993,26.231-41.215,22.48-41.308-42.461-41.308-42.461,3.994,37.54,4.077,89.347c15.965,1.693,63.86,4.259,85.54-22.563a64.974,64.974,0,0,0,12.33-23.694C200.892,263.837,195.089,248.986,195.089,248.986Z" transform="translate(373.429 -19.959)" fill="#242635"/><path d="M157,518.808c4.259-22.739,12.754-36.112,22.629-43.029a149.28,149.28,0,0,1,9.781-34.407c-20.136-3.746-39.819-36.222-28.576-66.2s53.831-41.215,53.831-41.215-60.076-38.721-33.309-89.926a184.693,184.693,0,0,1,41.22-52.9c-14.818-.243-31.974,2.223-51.525,9.191-81.5,29.034-54.019,109.907-54.019,109.907S76.446,290.244,40.847,332.4s-5.621,89.926,18.734,91.8c0,0-31.847,20.61-29.977,67.446s67.446,60.23,67.446,60.23-21.542,32.5,13.113,66.227c26.651,25.934,73.763-3.5,94.124-18.5-2.168-2.538-4.347-5.1-6.537-7.723C197.75,591.876,142.954,593.746,157,518.808Z" transform="translate(-24.469 -191.111)" fill="#242635"/></g><path d="M171.5,363.675c-33.359-20.814-69.884-53.185-108.793-99.917l-8.336,58.465C73.931,338.629,110.021,358.986,171.5,363.675Z" transform="translate(176.01 137.422)" fill="#cc885a"/><path d="M98.986,262.42c-4.182-1.263-6.636-2.058-6.636-2.058-13.317,28.223-19.661,67.032-22.662,95.283,37.6,30.281,71.848,46.339,101.87,51.724C130.055,361.652,108.607,298.912,98.986,262.42Z" transform="translate(245.195 122.083)" fill="#e1f5ff"/><g transform="translate(0 467.755)"><g clip-path="url(#a)"><g transform="translate(117.75 161.928)"><path d="M36.829,601.024a2.985,2.985,0,0,1-.618-.066,2.867,2.867,0,0,1-2.19-3.42c.348-1.611,35.273-161.3,43.6-205.7,8.17-43.6-6.272-82.374-6.421-82.76a2.875,2.875,0,0,1,5.373-2.047c.623,1.633,15.182,40.619,6.7,85.86C74.932,437.374,39.99,597.157,39.637,598.762A2.874,2.874,0,0,1,36.829,601.024Z" transform="translate(-33.953 -305.179)" fill="#3f87aa"/><g transform="translate(238.463 78.887)"><path d="M104.767,564.765a2.871,2.871,0,0,1-2.863-2.709c-.055-.844-5.086-85.882-8.225-146.08-3.106-59.6-16.153-92.21-16.285-92.53a2.876,2.876,0,1,1,5.323-2.179c.546,1.352,13.549,33.729,16.71,94.406,3.133,60.186,8.165,145.2,8.214,146.047a2.875,2.875,0,0,1-2.7,3.04C104.883,564.765,104.822,564.765,104.767,564.765Z" transform="translate(-77.179 -319.479)" fill="#3f87aa"/></g></g></g></g><path d="M97.007,478.413c19.981-68.693,67.446-64.947,91.173-71.192s21.233-52.457,26.231-88.679c2.642-19.165,14.867-29.955,25.807-35.919-3.332-1.986-21.449-11.894-38.385-3.426-18.734,9.373-17.488,42.467-21.857,69.945s-7.5,34.346-18.111,31.224S107.256,361.008,78.04,409.1,12.608,677.628,12.608,677.628s18.718,11.265,50.361,25.592C68.044,653.035,81.378,532.128,97.007,478.413Z" transform="translate(-12.608 191.922)" fill="#65add1"/></g></g></svg>