<svg xmlns="http://www.w3.org/2000/svg" width="54.086" height="54.086" viewBox="0 0 54.086 54.086"><defs><style>.a{fill:#444;}</style></defs><g transform="translate(-16 -16)"><path class="a" d="M47.55,112H18.7a.9.9,0,0,0-.9.9v1.8H16v1.8h1.8v1.8H16v1.8h1.8v1.8H16v1.8h1.8v1.8H16v1.8h1.8v1.8H16v1.8h1.8v1.8H16v1.8h1.8v1.8H16v1.8h1.8v1.8H16v1.8h1.8v1.8H16v1.8h1.8v1.8H16v1.8h1.8v1.8H16v1.8h1.8v1.8a.9.9,0,0,0,.9.9H47.55a.9.9,0,0,0,.9-.9V112.9A.9.9,0,0,0,47.55,112Zm-.9,41.466H19.606V113.8H46.649Z" transform="translate(0 -85.183)"/><path class="a" d="M331.719,16H320.9a.9.9,0,0,0-.9.9V69.185a.9.9,0,0,0,.9.9h10.817a.9.9,0,0,0,.9-.9V16.9A.9.9,0,0,0,331.719,16ZM321.8,68.283V17.8h1.8v50.48Zm3.606,0V17.8h5.409v2.7h-3.606v1.8h3.606v1.8h-1.8v1.8h1.8v1.8h-3.606v1.8h3.606v1.8h-1.8v1.8h1.8v1.8h-3.606v1.8h3.606v1.8h-1.8v1.8h1.8v1.8h-3.606v1.8h3.606v1.8h-1.8v1.8h1.8v1.8h-3.606v1.8h3.606v1.8h-1.8v1.8h1.8v1.8h-3.606v1.8h3.606v1.8h-1.8v1.8h1.8v1.8h-3.606v1.8h3.606v2.7Z" transform="translate(-269.746)"/><path class="a" d="M16.9,25.014h12.62a2.707,2.707,0,0,0,2.7-2.7V18.7a2.707,2.707,0,0,0-2.7-2.7H16.9a.9.9,0,0,0-.9.9v7.211A.9.9,0,0,0,16.9,25.014ZM30.423,18.7V22.31a.9.9,0,0,1-.9.9h-1.8V17.8h1.8A.9.9,0,0,1,30.423,18.7ZM17.8,17.8h8.113v5.409H17.8Z"/><path class="a" d="M453.381,23.9l-1.8-7.211a.9.9,0,0,0-1.748,0l-1.8,7.211a.875.875,0,0,0-.027.219V69.2a.9.9,0,0,0,.9.9h3.606a.9.9,0,0,0,.9-.9V24.123A.875.875,0,0,0,453.381,23.9Zm-1.776,40.783h-1.8V28.1l.9-.9.9.9Zm-1.8-40.454.9-3.606.9,3.606v1.318l-.264-.264a.9.9,0,0,0-1.275,0l-.264.264Zm1.8,44.059h-1.8v-1.8h1.8Z" transform="translate(-383.323 -0.01)"/><path class="a" d="M192,160h3.606v1.8H192Z" transform="translate(-156.168 -127.774)"/><path class="a" d="M240,160h3.606v1.8H240Z" transform="translate(-198.76 -127.774)"/><path class="a" d="M64,200H87.437v1.8H64Z" transform="translate(-42.591 -163.267)"/><path class="a" d="M64,240H87.437v1.8H64Z" transform="translate(-42.591 -198.76)"/><path class="a" d="M64,280H87.437v1.8H64Z" transform="translate(-42.591 -234.253)"/><path class="a" d="M64,360H87.437v1.8H64Z" transform="translate(-42.591 -305.238)"/><path class="a" d="M64,320H87.437v1.8H64Z" transform="translate(-42.591 -269.746)"/><path class="a" d="M64,400H87.437v1.8H64Z" transform="translate(-42.591 -340.731)"/><path class="a" d="M64,440H87.437v1.8H64Z" transform="translate(-42.591 -376.224)"/><path class="a" d="M189.521,16H176.9a.9.9,0,0,0-.9.9v7.211a.9.9,0,0,0,.9.9h12.62a.9.9,0,0,0,.9-.9V16.9A.9.9,0,0,0,189.521,16Zm-8.113,7.211H177.8v-1.8h7.211v1.8Zm7.211,0h-1.8v-2.7a.9.9,0,0,0-.9-.9H177.8V17.8H188.62Z" transform="translate(-141.971)"/><ellipse class="a" cx="0.5" cy="1" rx="0.5" ry="1" transform="translate(39 21.086)"/></g></svg>