<svg xmlns="http://www.w3.org/2000/svg" width="53.746" height="53.748" viewBox="0 0 53.746 53.748"><defs><style>.a{fill:#444;}</style></defs><g transform="translate(-0.007)"><g transform="translate(7.145 47.449)"><path class="a" d="M69.795,452.309a1.049,1.049,0,1,0,.308.742A1.057,1.057,0,0,0,69.795,452.309Z" transform="translate(-68.003 -452.001)"/></g><g transform="translate(47.503 18.897)"><path class="a" d="M454.246,180.316a1.047,1.047,0,1,0,.309.742A1.055,1.055,0,0,0,454.246,180.316Z" transform="translate(-452.454 -180.008)"/></g><g transform="translate(0.007)"><g transform="translate(0)"><path class="a" d="M53.446.307A1.05,1.05,0,0,0,52.7,0H26.88a1.05,1.05,0,0,0-1.05,1.05v3L15.88,6.719a1.05,1.05,0,0,0-.742,1.286l5.157,19.247-4.461,4.461a3.148,3.148,0,0,0-2.6-1.374H3.156A3.153,3.153,0,0,0,.007,33.488V50.6a3.153,3.153,0,0,0,3.149,3.149H13.234a3.154,3.154,0,0,0,3.056-2.391l1.248,1.088a5.289,5.289,0,0,0,3.477,1.3H52.7a1.05,1.05,0,0,0,1.05-1.05V1.05A1.051,1.051,0,0,0,53.446.307ZM14.283,50.6a1.051,1.051,0,0,1-1.05,1.05H3.156a1.051,1.051,0,0,1-1.05-1.05V33.488a1.051,1.051,0,0,1,1.05-1.05H7.145V44.531a1.05,1.05,0,1,0,2.1,0V32.438h3.989a1.051,1.051,0,0,1,1.05,1.05V50.6ZM17.437,8.476,25.83,6.227v3.89l-.7.189a1.05,1.05,0,0,0-.742,1.286,2.83,2.83,0,0,1-2,3.462,1.05,1.05,0,0,0-.742,1.288l4.092,15.152H23.629l-1.086-4.248a1.048,1.048,0,0,0-.176-.368Zm8.393,6.455v8.858L23.916,16.7A4.918,4.918,0,0,0,25.83,14.931ZM40.912,51.648h-19.9a3.19,3.19,0,0,1-2.1-.786l-2.535-2.211V34.133l4.583-4.583L21.8,32.8a1.05,1.05,0,0,0,1.017.79H43.453a1.47,1.47,0,0,1,0,2.939H32.877a1.05,1.05,0,0,0,0,2.1H46.739a1.47,1.47,0,0,1,0,2.939H32.877a1.05,1.05,0,0,0,0,2.1H44.492a1.47,1.47,0,0,1,0,2.939H32.877a1.05,1.05,0,0,0,0,2.1h8.034a1.469,1.469,0,1,1,0,2.939Zm10.742,0H44.163a3.556,3.556,0,0,0,0-2.939h.33a3.567,3.567,0,0,0,3.19-5.167,3.566,3.566,0,0,0,1.92-5.568V24.67a1.05,1.05,0,0,0-2.1,0V36.616a3.57,3.57,0,0,0-.765-.083H46.7a3.567,3.567,0,0,0-3.251-5.039H41.765a5.024,5.024,0,1,0-3.947,0H32.08V11.533a4.942,4.942,0,0,0,3.764-3.764h7.9A4.942,4.942,0,0,0,47.5,11.533V14.8a1.05,1.05,0,0,0,2.1,0V10.6a1.05,1.05,0,0,0-1.05-1.05A2.83,2.83,0,0,1,45.727,6.72a1.05,1.05,0,0,0-1.05-1.05H34.906a1.05,1.05,0,0,0-1.05,1.05A2.83,2.83,0,0,1,31.03,9.546a1.05,1.05,0,0,0-1.05,1.05v20.9H27.93V2.1H51.654ZM39.792,29.8a2.924,2.924,0,1,1,2.924-2.924A2.928,2.928,0,0,1,39.792,29.8Z" transform="translate(-0.007)"/></g></g></g></svg>