<svg xmlns="http://www.w3.org/2000/svg" width="54.311" height="54.172" viewBox="0 0 54.311 54.172"><defs><style>.a{fill:#444;}</style></defs><g transform="translate(-0.424)"><g transform="translate(0.424)"><path class="a" d="M50.665,29.075a1.836,1.836,0,0,0-1.8-1.49H47.09l-.13-.781a1.846,1.846,0,0,0-1.534-1.521c-.174-.028-.351-.046-.524-.07a5.6,5.6,0,0,0-.7-4.094,3.757,3.757,0,0,0-2.722-5.026,7.813,7.813,0,0,0-7.633-6.378c-.092,0-.174.012-.261.015a3.735,3.735,0,0,0-5.714-.711A6.3,6.3,0,0,0,24.445,8a6.375,6.375,0,0,0-5.011,2.468,4.573,4.573,0,0,0-5.845,4.11,3.779,3.779,0,0,0-2.315,3.482,3.734,3.734,0,0,0,.092.783,7.389,7.389,0,0,0-.881,6.335c-.246.034-.5.064-.735.1A1.847,1.847,0,0,0,8.2,26.8l-.13.784H6.3a1.836,1.836,0,0,0-1.8,1.487L.475,49.711a2.755,2.755,0,0,0,2.71,3.28H22.331c.76,1.254,3.07,1.836,5.248,1.836,2.155,0,4.443-.568,5.225-1.836h19.17a2.754,2.754,0,0,0,2.71-3.279ZM14.051,19.721a1.939,1.939,0,0,1,.992-3.6,1.9,1.9,0,0,1,1.542.779A.918.918,0,0,0,18.058,15.8a3.709,3.709,0,0,0-2.6-1.469,2.791,2.791,0,0,1,2.722-2.21,2.862,2.862,0,0,1,.334.037,6.031,6.031,0,0,0-.193.575A.918.918,0,0,0,20.1,13.2a4.465,4.465,0,0,1,.477-1.15,4.534,4.534,0,0,1,3.873-2.21,4.46,4.46,0,0,1,2.432.735,3.732,3.732,0,0,0-.216,1.2.918.918,0,1,0,1.836,0,1.931,1.931,0,0,1,3.863,0,.918.918,0,1,0,1.836,0c0-.071-.017-.138-.021-.208a5.96,5.96,0,0,1,5.437,4.6,3.726,3.726,0,0,0-1.188.592.918.918,0,0,0,1.1,1.469,1.935,1.935,0,0,1,2.839,2.5,1.958,1.958,0,0,1-.87.8.918.918,0,0,0,.391,1.745.906.906,0,0,0,.389-.087,3.771,3.771,0,0,0,.686-.429,3.921,3.921,0,0,1-.777,3.916l-.022.023a3.966,3.966,0,0,1-4.683.859,3.644,3.644,0,0,1-.444-.277,3.127,3.127,0,0,0,.242-3.232.919.919,0,0,0-1.641.826,1.367,1.367,0,0,1-.443,1.731A1.386,1.386,0,0,1,33.2,26.1a.918.918,0,0,0-1.643.822,3.183,3.183,0,0,0,2.861,1.77,3.149,3.149,0,0,0,1.152-.227,5.435,5.435,0,0,0,1.076.735,5.656,5.656,0,0,0,4.241.392,5.852,5.852,0,0,1-3.781,2.318.918.918,0,0,0,.144,1.824.978.978,0,0,0,.146-.011,7.546,7.546,0,0,0,1.629-.476,8.21,8.21,0,0,1,.685,1.576.947.947,0,0,1,.048.3.991.991,0,0,1-.6.911,1.039,1.039,0,0,1-1.185-.319,5.861,5.861,0,0,0-2.687-1.786c-1.984-.665-2.75-1.259-3.075-1.905a8.814,8.814,0,0,0,1.408-.294.918.918,0,1,0-.54-1.756,6.958,6.958,0,0,1-1.585.291A6.815,6.815,0,0,1,28.45,29.8a.918.918,0,0,0-1.029.256,3.932,3.932,0,0,1-6.341-4.6.921.921,0,0,0-1.58-.947,5.734,5.734,0,0,0-.525,1.182,1.377,1.377,0,0,1-1.3-1.353V24.32a.908.908,0,0,0-.918-.906.927.927,0,0,0-.918.929,3.2,3.2,0,0,0,2.851,3.169,5.764,5.764,0,0,0,.084.918,5.611,5.611,0,0,1-6.348-7.684,3.7,3.7,0,0,0,.683.544.918.918,0,0,0,.948-1.573ZM10.011,27.1c.423-.062.86-.118,1.295-.174a7.413,7.413,0,0,0,8.052,3.267,5.751,5.751,0,0,0,9.009,1.527,8.814,8.814,0,0,0,1.916.347c.443,1.682,1.725,2.7,4.418,3.6A4.069,4.069,0,0,1,36.57,36.9a2.924,2.924,0,0,0,2.218,1.042,2.788,2.788,0,0,0,1.09-.222,2.827,2.827,0,0,0,1.716-2.6,2.724,2.724,0,0,0-.14-.869,10.037,10.037,0,0,0-.812-1.868,7.74,7.74,0,0,0,3.051-4.666,5.752,5.752,0,0,0,.529-.74c.308.039.615.074.925.126l3.315,19.937a31.517,31.517,0,0,0-19.965,0V35.545a.918.918,0,0,0-1.836,0v11.5A31.522,31.522,0,0,0,6.7,47.035ZM2.469,50.816a.911.911,0,0,1-.193-.753L6.3,29.421H7.766L4.884,46.737a1.843,1.843,0,0,0,2.37,2.051,30.717,30.717,0,0,1,15.165-.962l-.274,3.328H3.184a.925.925,0,0,1-.715-.338ZM27.58,52.99c-2.212,0-3.481-.654-3.667-.945l.316-3.81a19.622,19.622,0,0,1,2.955.991.926.926,0,0,0,.4.092.913.913,0,0,0,.4-.092,19.557,19.557,0,0,1,2.954-1l.316,3.816c-.186.292-1.455.946-3.667.946Zm25.111-2.174a.925.925,0,0,1-.715.338H33.016l-.275-3.335a30.727,30.727,0,0,1,15.172.971,1.842,1.842,0,0,0,2.362-2.056L47.4,29.422h1.469l4.022,20.64A.911.911,0,0,1,52.691,50.816Z" transform="translate(-0.424 -0.655)"/><path class="a" d="M26.659,22.464a.918.918,0,0,0-.065,1.3,5.537,5.537,0,0,0,2.943,1.7A2.735,2.735,0,0,1,27.3,26.61a.918.918,0,0,0,0,1.836A4.553,4.553,0,0,0,31.58,25.5a5.541,5.541,0,0,0,4.533-4.407.918.918,0,1,0-1.8-.345,3.66,3.66,0,0,1-1.52,2.331,3.748,3.748,0,0,1-4.833-.551.918.918,0,0,0-1.3-.065Z" transform="translate(-2.546 -1.636)"/><path class="a" d="M23.118,21.142a.918.918,0,0,0,.918-.918,2.387,2.387,0,0,1,2.387-2.387.918.918,0,0,0,0-1.836A4.228,4.228,0,0,0,22.2,20.224a.918.918,0,0,0,.918.918Z" transform="translate(-2.206 -1.309)"/><path class="a" d="M30.836,1.836V.918A.918.918,0,1,0,29,.918v.918a.918.918,0,1,0,1.836,0Z" transform="translate(-2.762)"/><path class="a" d="M46.3,7.151l-.918.918a.918.918,0,1,0,1.3,1.3l.918-.918a.918.918,0,1,0-1.3-1.3Z" transform="translate(-4.08 -0.562)"/><path class="a" d="M13.718,9.636a.918.918,0,0,0,.649-1.567l-.918-.918a.918.918,0,1,0-1.3,1.3l.918.918a.918.918,0,0,0,.649.269Z" transform="translate(-1.361 -0.562)"/><path class="a" d="M21.4,5.283a.931.931,0,0,0,.352-.07.918.918,0,0,0,.5-1.2L21.2,1.468a.918.918,0,1,0-1.7.7l1.054,2.545a.918.918,0,0,0,.848.567Z" transform="translate(-1.979 -0.072)"/><path class="a" d="M39.743.973a.918.918,0,0,0-1.2.5L37.489,4.015a.918.918,0,0,0,.5,1.2.931.931,0,0,0,.352.07.918.918,0,0,0,.848-.567L40.24,2.174a.918.918,0,0,0-.5-1.2Z" transform="translate(-3.451 -0.074)"/><path class="a" d="M50.243,17.324a.918.918,0,0,0,.352-.071L53.139,16.2a.918.918,0,1,0-.7-1.7l-2.545,1.054a.918.918,0,0,0,.352,1.767Z" transform="translate(-4.425 -1.181)"/><path class="a" d="M9.015,17.254a.918.918,0,0,0,.7-1.7L7.173,14.5a.918.918,0,0,0-.7,1.7Z" transform="translate(-0.872 -1.181)"/></g></g></svg>