<svg xmlns="http://www.w3.org/2000/svg" width="54.138" height="54.144" viewBox="0 0 54.138 54.144"><defs><style>.a{fill:#444;}</style></defs><g transform="translate(-0.487 -0.001)"><path class="a" d="M44.248,18.95c-5.157,0-10.378,1.55-10.378,4.512v9.927A3.588,3.588,0,0,0,35.117,36.1,3.587,3.587,0,0,0,33.869,38.8v8.122a45.931,45.931,0,0,1-10.779-1,7.231,7.231,0,0,0,3.559-6.221c0-4.151-2.951-6.317-5.866-6.317s-5.866,2.166-5.866,6.317a7.063,7.063,0,0,0,3.6,6.283,26.337,26.337,0,0,1-6.308.937c-4.459,0-7.625-1.136-8.686-3.117a3.88,3.88,0,0,1,.211-3.659,4.465,4.465,0,0,0,2.321.664,4.624,4.624,0,0,0,.792-.069,4.482,4.482,0,0,0,2.913-1.85L15.645,30.5l6.731-9.6c.007-.011.008-.024.014-.035a.873.873,0,0,0,.111-.254c.006-.021.013-.041.018-.062a.317.317,0,0,0,.009-.034L23.2,16l6.615-9.446a.165.165,0,0,1,.229-.04l1.751,1.223L35.283,10.2A3,3,0,0,0,37,10.745a2.825,2.825,0,0,0,.537-.05A2.979,2.979,0,0,0,39.51,9.452a3.044,3.044,0,0,0-.744-4.229l-3.49-2.451L32.653.934a5.179,5.179,0,0,0-7.2,1.263L18.235,12.505l-4.007,2.166c-.012.006-.022.017-.033.024s-.034.025-.052.038a.848.848,0,0,0-.194.185c-.009.011-.022.017-.03.028l-2.543,3.628-.133-.09A.9.9,0,1,0,10.2,19.961l.135.095L1.3,32.956a4.513,4.513,0,0,0,.951,6.151,5.7,5.7,0,0,0-.312,5.553C3.34,47.286,6.989,48.73,12.211,48.73a26.167,26.167,0,0,0,8.6-1.624c4.039,1.5,9.253,1.614,13.058,1.624v1.8a3.61,3.61,0,0,0,3.61,3.61H51.016a3.61,3.61,0,0,0,3.61-3.61V38.8A3.584,3.584,0,0,0,53.379,36.1a3.585,3.585,0,0,0,1.247-2.708V23.461c0-2.962-5.22-4.512-10.378-4.512ZM8.659,25.6a3.339,3.339,0,0,1,2.166-1.382,3.435,3.435,0,0,1,.589-.051A3.365,3.365,0,1,1,8.652,25.6Zm5.722-2.3a5.133,5.133,0,0,0-3.485-.887l3.98-5.679,5.505,3.861L16.4,26.266a5.111,5.111,0,0,0-2.023-2.974Zm4.407-9.035,2.579,1.8-.4,2.727-4.595-3.22ZM38.235,7.488a1.22,1.22,0,0,1-.2.918,1.192,1.192,0,0,1-.808.5,1.171,1.171,0,0,1-.9-.2L35.1,7.849a2.976,2.976,0,0,0,1.411-2.014l1.225.859a1.216,1.216,0,0,1,.5.8Zm-11.3-4.251a3.368,3.368,0,0,1,4.687-.824l2.617,1.837a1.23,1.23,0,1,1-1.412,2.014L31.079,5.04a1.975,1.975,0,0,0-2.743.482l-6.214,8.869-2.016-1.413ZM2.775,33.993,6.413,28.8a5.09,5.09,0,0,0,5.509,3.86L8.282,37.853a2.708,2.708,0,0,1-3.77.664l-1.074-.752a2.707,2.707,0,0,1-.663-3.772ZM20.79,45.146c-2.736-1.2-4.067-2.986-4.067-5.441,0-3.1,2.106-4.512,4.061-4.512a3.972,3.972,0,0,1,2.784,1.1,4.611,4.611,0,0,1,1.277,3.413c0,2.346-1.364,4.176-4.055,5.441ZM52.2,22.559H36.3c1.195-.913,4.044-1.8,7.949-1.8s6.755.892,7.95,1.8ZM35.674,41.511h4.512a.9.9,0,0,1,.9.9v4.512a.9.9,0,0,1-.9.9H35.674Zm17.146,6.317H48.309a.9.9,0,0,1-.9-.9V42.413a.9.9,0,0,1,.9-.9h4.512Zm0-9.025v.9H48.309A2.707,2.707,0,0,0,45.6,42.413v4.512a2.707,2.707,0,0,0,2.708,2.708h4.512v.9a1.8,1.8,0,0,1-1.8,1.8H37.479a1.8,1.8,0,0,1-1.8-1.8v-.9h4.512a2.707,2.707,0,0,0,2.707-2.708V42.413a2.707,2.707,0,0,0-2.707-2.708H35.674v-.9a1.8,1.8,0,0,1,1.8-1.8H51.016A1.8,1.8,0,0,1,52.821,38.8Zm-15.342-3.61a1.8,1.8,0,0,1-1.8-1.8V24.364H52.821v9.024a1.8,1.8,0,0,1-1.8,1.8Zm0,0" transform="translate(0 0)"/><path class="a" d="M352.078,247.441h-.9a.9.9,0,1,0,0,1.8h.9a.9.9,0,1,0,0-1.8Zm0,0" transform="translate(-312.794 -221.272)"/><path class="a" d="M399.259,247.441h-5.415a.9.9,0,0,0,0,1.8h5.415a.9.9,0,0,0,0-1.8Zm0,0" transform="translate(-350.95 -221.272)"/><path class="a" d="M360.613,401.945a.9.9,0,0,0-1.8,0v2.707a.9.9,0,0,0,1.8,0Zm0,0" transform="translate(-320.427 -358.63)"/><path class="a" d="M452.676,404.653a.9.9,0,0,0,1.8,0v-2.708a.9.9,0,0,0-1.8,0Zm0,0" transform="translate(-404.367 -358.63)"/><path class="a" d="M360.248,111.022a.893.893,0,0,0-1.188.388.915.915,0,0,0,.361,1.216c.053.031,1.326.793,1.326,3.716a.9.9,0,0,0,1.8,0C362.552,112.292,360.485,111.141,360.248,111.022Zm0,0" transform="translate(-320.561 -99.198)"/><path class="a" d="M390.817,49.734a.9.9,0,0,0-1.276,0c-2.04,2.039-3.468,1.721-3.564,1.69a.9.9,0,0,0-.55,1.715,2.926,2.926,0,0,0,.891.121,6.454,6.454,0,0,0,4.5-2.256.9.9,0,0,0,0-1.269Zm0,0" transform="translate(-343.72 -44.237)"/><path class="a" d="M389.239,97.609a.9.9,0,0,0,.405-1.71l-3.936-1.967a.9.9,0,0,0-.807,1.615l3.935,1.966A.9.9,0,0,0,389.239,97.609Zm0,0" transform="translate(-343.314 -83.912)"/></g></svg>