<svg xmlns="http://www.w3.org/2000/svg" width="16" height="16" viewBox="0 0 16 16"><defs><style>.a{opacity:0.5;}.b{fill:#f5f5f5;}.c{fill:#41479b;}.d{fill:#ff4b55;}</style></defs><g class="a"><path class="b" d="M16,512h0Z" transform="translate(0 -496)"/><path class="c" d="M.547,1.078,9.271,7.453H2.549l.818.913,6.354,7.087H.547V1.078M0,0V16H10.947L3.775,8h7.172Z"/><path class="d" d="M17.516,34.495l8.723,6.375H19.518l.818.913L26.69,48.87H17.516V34.495" transform="translate(-16.969 -33.417)"/><g transform="translate(0.858 4.632)"><path class="b" d="M36.129,316.947l.337.7.64-.434a.041.041,0,0,1,.064.037l-.056.771.771-.056a.041.041,0,0,1,.037.064l-.434.64.7.337a.041.041,0,0,1,0,.073l-.7.337.434.64a.041.041,0,0,1-.037.064l-.771-.056.056.771a.041.041,0,0,1-.064.037l-.64-.434-.337.7a.041.041,0,0,1-.073,0l-.337-.7-.64.434a.041.041,0,0,1-.064-.037l.056-.771-.771.056a.041.041,0,0,1-.037-.064l.434-.64-.7-.337A.041.041,0,0,1,34,319l.7-.337-.434-.64a.041.041,0,0,1,.037-.064l.771.056-.056-.771a.041.041,0,0,1,.064-.037l.64.434.337-.7A.041.041,0,0,1,36.129,316.947Z" transform="translate(-33.775 -311.651)"/><path class="b" d="M30.683,149.483l-.293-.2.258-.27-.367-.067.126-.351-.363.088-.028-.372-.3.228-.177-.328-.177.328-.3-.228-.028.372-.363-.088.126.351-.367.067.258.27-.293.2a2.71,2.71,0,0,1-.949-.736,2.12,2.12,0,0,0,4.179,0A2.709,2.709,0,0,1,30.683,149.483Z" transform="translate(-27.454 -148.21)"/></g></g></svg>