<svg xmlns="http://www.w3.org/2000/svg" width="24" height="15.724" viewBox="0 0 24 15.724"><defs><style>.a{fill:#41479b;}.b{fill:#f5f5f5;}.c{fill:#ff4b55;}</style></defs><g transform="translate(0 -88.275)"><path class="a" d="M22.2,88.276H1.8a1.8,1.8,0,0,0-1.8,1.8V102.2A1.8,1.8,0,0,0,1.8,104H22.2a1.8,1.8,0,0,0,1.8-1.8V90.073A1.8,1.8,0,0,0,22.2,88.276Z" transform="translate(0 -0.001)"/><path class="b" d="M23.975,89.775a1.8,1.8,0,0,0-1.773-1.5h-.468L14.069,93.3V88.275H9.931V93.3L2.265,88.275H1.8a1.8,1.8,0,0,0-1.773,1.5l6.552,4.293H0v4.138H6.577L.025,102.5A1.8,1.8,0,0,0,1.8,104h.468l7.666-5.023V104h4.138V98.977L21.735,104H22.2a1.8,1.8,0,0,0,1.773-1.5l-6.552-4.293H24V94.068H17.423Z"/><g transform="translate(0 88.275)"><path class="c" d="M13.241,88.276H10.759V94.9H0v2.483H10.759V104h2.483V97.379H24V94.9H13.241Z" transform="translate(0 -88.276)"/><path class="c" d="M10.452,309.688l14.712-9.55H22.607L9.224,308.825A3.028,3.028,0,0,0,10.452,309.688Z" transform="translate(-8.497 -294.159)"/><path class="c" d="M316.517,300.138H313.96l14.249,9.249a3.036,3.036,0,0,0,.969-1.031Z" transform="translate(-305.575 -294.159)"/><path class="c" d="M4.049,96.917l12.437,8.073h2.557L4.95,95.842A3.036,3.036,0,0,0,4.049,96.917Z" transform="translate(-3.73 -95.245)"/><path class="c" d="M302.695,100.186l13.407-8.7a3.028,3.028,0,0,0-1.238-.856l-14.726,9.559Z" transform="translate(-292.843 -90.442)"/></g></g></svg>