<svg xmlns="http://www.w3.org/2000/svg" width="24.304" height="15.923" viewBox="0 0 24.304 15.923"><defs><style>.a{fill:#f5f5f5;}.b{fill:#ff4b55;}.c{fill:#41479b;}</style></defs><g transform="translate(0 -88.275)"><path class="a" d="M22.484,88.276H1.82A1.82,1.82,0,0,0,0,90.1v12.283a1.82,1.82,0,0,0,1.82,1.82H22.484a1.82,1.82,0,0,0,1.82-1.82V90.1A1.82,1.82,0,0,0,22.484,88.276Z" transform="translate(0 -0.001)"/><g transform="translate(0 88.275)"><path class="b" d="M2.109,89.826h24.05a1.908,1.908,0,0,0-1.716-1.55H3.825A1.908,1.908,0,0,0,2.109,89.826Z" transform="translate(-1.982 -88.276)"/><rect class="b" width="24.304" height="1.55" transform="translate(0 4.791)"/><rect class="b" width="24.304" height="1.55" transform="translate(0 2.395)"/><path class="b" d="M0,244.118a.485.485,0,0,0,.419.53H24.3V243.1H0Z" transform="translate(0 -235.912)"/><rect class="b" width="24.304" height="1.55" transform="translate(0 11.978)"/><path class="b" d="M26.159,397.92H2.109a1.908,1.908,0,0,0,1.716,1.55H24.443A1.908,1.908,0,0,0,26.159,397.92Z" transform="translate(-1.982 -383.547)"/><rect class="b" width="24.304" height="1.55" transform="translate(0 9.582)"/></g><path class="c" d="M.53,99.127H13.789a.53.53,0,0,0,.53-.53V88.805a.53.53,0,0,0-.53-.53H2.3a2.3,2.3,0,0,0-2.3,2.3V98.6A.53.53,0,0,0,.53,99.127Z"/><g transform="translate(0.856 89.458)"><path class="a" d="M14.886,108l.117.352.371,0a.05.05,0,0,1,.029.09l-.3.22.112.354a.05.05,0,0,1-.077.056l-.3-.216-.3.216a.05.05,0,0,1-.077-.056l.112-.354-.3-.22a.05.05,0,0,1,.029-.09l.371,0,.117-.352A.05.05,0,0,1,14.886,108Z" transform="translate(-14.253 -107.968)"/><path class="a" d="M14.886,138.657l.117.352.371,0a.05.05,0,0,1,.029.09l-.3.22.112.354a.05.05,0,0,1-.077.056l-.3-.216-.3.216a.05.05,0,0,1-.077-.056l.112-.354-.3-.22a.05.05,0,0,1,.029-.09l.371,0,.117-.352A.05.05,0,0,1,14.886,138.657Z" transform="translate(-14.253 -136.781)"/><path class="a" d="M14.886,169.311l.117.352.371,0a.05.05,0,0,1,.029.09l-.3.22.112.354a.05.05,0,0,1-.077.056l-.3-.216-.3.216a.05.05,0,0,1-.077-.056l.112-.354-.3-.22a.05.05,0,0,1,.029-.09l.371,0,.117-.352A.05.05,0,0,1,14.886,169.311Z" transform="translate(-14.253 -165.594)"/><path class="a" d="M14.886,199.965l.117.352.371,0a.05.05,0,0,1,.029.09l-.3.22.112.354a.05.05,0,0,1-.077.056l-.3-.216-.3.216a.05.05,0,0,1-.077-.056l.112-.354-.3-.221a.05.05,0,0,1,.029-.09l.371,0,.117-.352A.05.05,0,0,1,14.886,199.965Z" transform="translate(-14.253 -194.406)"/><path class="a" d="M14.886,230.62l.117.352.371,0a.05.05,0,0,1,.029.09l-.3.22.112.354a.05.05,0,0,1-.077.056l-.3-.216-.3.216a.05.05,0,0,1-.077-.056l.112-.354-.3-.22a.05.05,0,0,1,.029-.09l.371,0,.117-.352A.05.05,0,0,1,14.886,230.62Z" transform="translate(-14.253 -223.219)"/><path class="a" d="M38.679,123.032l.117.352.371,0a.05.05,0,0,1,.029.09l-.3.22.112.354a.05.05,0,0,1-.077.056l-.3-.216-.3.216a.05.05,0,0,1-.077-.056l.112-.354-.3-.22a.05.05,0,0,1,.029-.09l.371,0,.117-.352A.05.05,0,0,1,38.679,123.032Z" transform="translate(-36.616 -122.095)"/><path class="a" d="M38.679,153.686l.117.352.371,0a.05.05,0,0,1,.029.09l-.3.22.112.354a.05.05,0,0,1-.077.056l-.3-.216-.3.216a.05.05,0,0,1-.077-.056l.112-.354-.3-.22a.05.05,0,0,1,.029-.09l.371,0,.117-.352A.05.05,0,0,1,38.679,153.686Z" transform="translate(-36.616 -150.907)"/><path class="a" d="M38.679,184.34l.117.352.371,0a.05.05,0,0,1,.029.09l-.3.22.112.354a.05.05,0,0,1-.077.056l-.3-.216-.3.216a.05.05,0,0,1-.077-.056l.112-.354-.3-.22a.05.05,0,0,1,.029-.09l.371,0,.117-.352A.05.05,0,0,1,38.679,184.34Z" transform="translate(-36.616 -179.72)"/><path class="a" d="M38.679,214.995l.117.352.371,0a.05.05,0,0,1,.029.09l-.3.22.112.354a.05.05,0,0,1-.077.056l-.3-.216-.3.216a.05.05,0,0,1-.077-.056l.112-.354-.3-.22a.05.05,0,0,1,.029-.09l.371,0,.117-.352A.05.05,0,0,1,38.679,214.995Z" transform="translate(-36.616 -208.533)"/><path class="a" d="M62.472,108l.117.352.371,0a.05.05,0,0,1,.029.09l-.3.22.112.354a.05.05,0,0,1-.077.056l-.3-.216-.3.216a.05.05,0,0,1-.077-.056l.112-.354-.3-.22a.05.05,0,0,1,.029-.09l.371,0,.117-.352A.05.05,0,0,1,62.472,108Z" transform="translate(-58.98 -107.968)"/><path class="a" d="M62.472,138.657l.117.352.371,0a.05.05,0,0,1,.029.09l-.3.22.112.354a.05.05,0,0,1-.077.056l-.3-.216-.3.216a.05.05,0,0,1-.077-.056l.112-.354-.3-.22a.05.05,0,0,1,.029-.09l.371,0,.117-.352A.05.05,0,0,1,62.472,138.657Z" transform="translate(-58.98 -136.781)"/><path class="a" d="M62.472,169.311l.117.352.371,0a.05.05,0,0,1,.029.09l-.3.22.112.354a.05.05,0,0,1-.077.056l-.3-.216-.3.216a.05.05,0,0,1-.077-.056l.112-.354-.3-.22a.05.05,0,0,1,.029-.09l.371,0,.117-.352A.05.05,0,0,1,62.472,169.311Z" transform="translate(-58.98 -165.593)"/><path class="a" d="M62.472,199.965l.117.352.371,0a.05.05,0,0,1,.029.09l-.3.22.112.354a.05.05,0,0,1-.077.056l-.3-.216-.3.216a.05.05,0,0,1-.077-.056l.112-.354-.3-.22a.05.05,0,0,1,.029-.09l.371,0,.117-.352A.05.05,0,0,1,62.472,199.965Z" transform="translate(-58.98 -194.406)"/><path class="a" d="M62.472,230.62l.117.352.371,0a.05.05,0,0,1,.029.09l-.3.22.112.354a.05.05,0,0,1-.077.056l-.3-.216-.3.216a.05.05,0,0,1-.077-.056l.112-.354-.3-.22a.05.05,0,0,1,.029-.09l.371,0,.117-.352A.05.05,0,0,1,62.472,230.62Z" transform="translate(-58.98 -223.219)"/><path class="a" d="M86.266,123.032l.117.352.371,0a.05.05,0,0,1,.029.09l-.3.22.112.354a.05.05,0,0,1-.077.056l-.3-.216-.3.216a.05.05,0,0,1-.077-.056l.112-.354-.3-.22a.05.05,0,0,1,.029-.09l.371,0,.117-.352A.05.05,0,0,1,86.266,123.032Z" transform="translate(-81.344 -122.095)"/><path class="a" d="M86.266,153.686l.117.352.371,0a.05.05,0,0,1,.029.09l-.3.22.112.354a.05.05,0,0,1-.077.056l-.3-.216-.3.216a.05.05,0,0,1-.077-.056l.112-.354-.3-.22a.05.05,0,0,1,.029-.09l.371,0,.117-.352A.05.05,0,0,1,86.266,153.686Z" transform="translate(-81.344 -150.907)"/><path class="a" d="M86.266,184.34l.117.352.371,0a.05.05,0,0,1,.029.09l-.3.22.112.354a.05.05,0,0,1-.077.056l-.3-.216-.3.216a.05.05,0,0,1-.077-.056l.112-.354-.3-.22a.05.05,0,0,1,.029-.09l.371,0,.117-.352A.05.05,0,0,1,86.266,184.34Z" transform="translate(-81.344 -179.72)"/><path class="a" d="M86.266,214.995l.117.352.371,0a.05.05,0,0,1,.029.09l-.3.22.112.354a.05.05,0,0,1-.077.056l-.3-.216-.3.216a.05.05,0,0,1-.077-.056l.112-.354-.3-.22a.05.05,0,0,1,.029-.09l.371,0,.117-.352A.05.05,0,0,1,86.266,214.995Z" transform="translate(-81.344 -208.533)"/><path class="a" d="M110.058,108l.117.352.371,0a.05.05,0,0,1,.029.09l-.3.22.112.354a.05.05,0,0,1-.077.056l-.3-.216-.3.216a.05.05,0,0,1-.077-.056l.112-.354-.3-.22a.05.05,0,0,1,.029-.09l.371,0,.117-.352A.05.05,0,0,1,110.058,108Z" transform="translate(-103.707 -107.968)"/><path class="a" d="M110.058,138.657l.117.352.371,0a.05.05,0,0,1,.029.09l-.3.22.112.354a.05.05,0,0,1-.077.056l-.3-.216-.3.216a.05.05,0,0,1-.077-.056l.112-.354-.3-.22a.05.05,0,0,1,.029-.09l.371,0,.117-.352A.05.05,0,0,1,110.058,138.657Z" transform="translate(-103.707 -136.781)"/><path class="a" d="M110.058,169.311l.117.352.371,0a.05.05,0,0,1,.029.09l-.3.22.112.354a.05.05,0,0,1-.077.056l-.3-.216-.3.216a.05.05,0,0,1-.077-.056l.112-.354-.3-.22a.05.05,0,0,1,.029-.09l.371,0,.117-.352A.05.05,0,0,1,110.058,169.311Z" transform="translate(-103.707 -165.593)"/><path class="a" d="M110.058,199.965l.117.352.371,0a.05.05,0,0,1,.029.09l-.3.22.112.354a.05.05,0,0,1-.077.056l-.3-.216-.3.216a.05.05,0,0,1-.077-.056l.112-.354-.3-.22a.05.05,0,0,1,.029-.09l.371,0,.117-.352A.05.05,0,0,1,110.058,199.965Z" transform="translate(-103.707 -194.406)"/><path class="a" d="M110.058,230.62l.117.352.371,0a.05.05,0,0,1,.029.09l-.3.22.112.354a.05.05,0,0,1-.077.056l-.3-.216-.3.216a.05.05,0,0,1-.077-.056l.112-.354-.3-.22a.05.05,0,0,1,.029-.09l.371,0,.117-.352A.05.05,0,0,1,110.058,230.62Z" transform="translate(-103.707 -223.219)"/><path class="a" d="M133.852,123.032l.117.352.371,0a.05.05,0,0,1,.029.09l-.3.22.112.354a.05.05,0,0,1-.077.056l-.3-.216-.3.216a.05.05,0,0,1-.077-.056l.112-.354-.3-.22a.05.05,0,0,1,.029-.09l.371,0,.117-.352A.05.05,0,0,1,133.852,123.032Z" transform="translate(-126.072 -122.095)"/><path class="a" d="M133.852,153.686l.117.352.371,0a.05.05,0,0,1,.029.09l-.3.22.112.354a.05.05,0,0,1-.077.056l-.3-.216-.3.216a.05.05,0,0,1-.077-.056l.112-.354-.3-.22a.05.05,0,0,1,.029-.09l.371,0,.117-.352A.05.05,0,0,1,133.852,153.686Z" transform="translate(-126.072 -150.907)"/><path class="a" d="M133.852,184.34l.117.352.371,0a.05.05,0,0,1,.029.09l-.3.22.112.354a.05.05,0,0,1-.077.056l-.3-.216-.3.216a.05.05,0,0,1-.077-.056l.112-.354-.3-.22a.05.05,0,0,1,.029-.09l.371,0,.117-.352A.05.05,0,0,1,133.852,184.34Z" transform="translate(-126.072 -179.72)"/><path class="a" d="M133.852,214.995l.117.352.371,0a.05.05,0,0,1,.029.09l-.3.22.112.354a.05.05,0,0,1-.077.056l-.3-.216-.3.216a.05.05,0,0,1-.077-.056l.112-.354-.3-.22a.05.05,0,0,1,.029-.09l.371,0,.117-.352A.05.05,0,0,1,133.852,214.995Z" transform="translate(-126.072 -208.533)"/><path class="a" d="M157.646,108l.117.352.371,0a.05.05,0,0,1,.029.09l-.3.22.112.354a.05.05,0,0,1-.077.056l-.3-.216-.3.216a.05.05,0,0,1-.077-.056l.112-.354-.3-.22a.05.05,0,0,1,.029-.09l.371,0,.117-.352A.05.05,0,0,1,157.646,108Z" transform="translate(-148.436 -107.968)"/><path class="a" d="M157.646,138.657l.117.352.371,0a.05.05,0,0,1,.029.09l-.3.22.112.354a.05.05,0,0,1-.077.056l-.3-.216-.3.216a.05.05,0,0,1-.077-.056l.112-.354-.3-.22a.05.05,0,0,1,.029-.09l.371,0,.117-.352A.05.05,0,0,1,157.646,138.657Z" transform="translate(-148.436 -136.781)"/><path class="a" d="M157.646,169.311l.117.352.371,0a.05.05,0,0,1,.029.09l-.3.22.112.354a.05.05,0,0,1-.077.056l-.3-.216-.3.216a.05.05,0,0,1-.077-.056l.112-.354-.3-.22a.05.05,0,0,1,.029-.09l.371,0,.117-.352A.05.05,0,0,1,157.646,169.311Z" transform="translate(-148.436 -165.593)"/><path class="a" d="M157.646,199.965l.117.352.371,0a.05.05,0,0,1,.029.09l-.3.22.112.354a.05.05,0,0,1-.077.056l-.3-.216-.3.216a.05.05,0,0,1-.077-.056l.112-.354-.3-.22a.05.05,0,0,1,.029-.09l.371,0,.117-.352A.05.05,0,0,1,157.646,199.965Z" transform="translate(-148.436 -194.406)"/><path class="a" d="M157.646,230.62l.117.352.371,0a.05.05,0,0,1,.029.09l-.3.22.112.354a.05.05,0,0,1-.077.056l-.3-.216-.3.216a.05.05,0,0,1-.077-.056l.112-.354-.3-.22a.05.05,0,0,1,.029-.09l.371,0,.117-.352A.05.05,0,0,1,157.646,230.62Z" transform="translate(-148.436 -223.219)"/><path class="a" d="M181.439,123.032l.117.352.371,0a.05.05,0,0,1,.029.09l-.3.22.112.354a.05.05,0,0,1-.077.056l-.3-.216-.3.216a.05.05,0,0,1-.077-.056l.112-.354-.3-.22a.05.05,0,0,1,.029-.09l.371,0,.117-.352A.05.05,0,0,1,181.439,123.032Z" transform="translate(-170.8 -122.095)"/><path class="a" d="M181.439,153.686l.117.352.371,0a.05.05,0,0,1,.029.09l-.3.22.112.354a.05.05,0,0,1-.077.056l-.3-.216-.3.216a.05.05,0,0,1-.077-.056l.112-.354-.3-.22a.05.05,0,0,1,.029-.09l.371,0,.117-.352A.05.05,0,0,1,181.439,153.686Z" transform="translate(-170.8 -150.907)"/><path class="a" d="M181.439,184.34l.117.352.371,0a.05.05,0,0,1,.029.09l-.3.22.112.354a.05.05,0,0,1-.077.056l-.3-.216-.3.216a.05.05,0,0,1-.077-.056l.112-.354-.3-.22a.05.05,0,0,1,.029-.09l.371,0,.117-.352A.05.05,0,0,1,181.439,184.34Z" transform="translate(-170.8 -179.72)"/><path class="a" d="M181.439,214.995l.117.352.371,0a.05.05,0,0,1,.029.09l-.3.22.112.354a.05.05,0,0,1-.077.056l-.3-.216-.3.216a.05.05,0,0,1-.077-.056l.112-.354-.3-.22a.05.05,0,0,1,.029-.09l.371,0,.117-.352A.05.05,0,0,1,181.439,214.995Z" transform="translate(-170.8 -208.533)"/><path class="a" d="M205.233,108l.117.352.371,0a.05.05,0,0,1,.029.09l-.3.22.112.354a.05.05,0,0,1-.077.056l-.3-.216-.3.216a.05.05,0,0,1-.077-.056l.112-.354-.3-.22a.05.05,0,0,1,.029-.09l.371,0,.117-.352A.05.05,0,0,1,205.233,108Z" transform="translate(-193.164 -107.968)"/><path class="a" d="M205.233,138.657l.117.352.371,0a.05.05,0,0,1,.029.09l-.3.22.112.354a.05.05,0,0,1-.077.056l-.3-.216-.3.216a.05.05,0,0,1-.077-.056l.112-.354-.3-.22a.05.05,0,0,1,.029-.09l.371,0,.117-.352A.05.05,0,0,1,205.233,138.657Z" transform="translate(-193.164 -136.781)"/><path class="a" d="M205.233,169.311l.117.352.371,0a.05.05,0,0,1,.029.09l-.3.22.112.354a.05.05,0,0,1-.077.056l-.3-.216-.3.216a.05.05,0,0,1-.077-.056l.112-.354-.3-.22a.05.05,0,0,1,.029-.09l.371,0,.117-.352A.05.05,0,0,1,205.233,169.311Z" transform="translate(-193.164 -165.593)"/><path class="a" d="M205.233,199.965l.117.352.371,0a.05.05,0,0,1,.029.09l-.3.22.112.354a.05.05,0,0,1-.077.056l-.3-.216-.3.216a.05.05,0,0,1-.077-.056l.112-.354-.3-.22a.05.05,0,0,1,.029-.09l.371,0,.117-.352A.05.05,0,0,1,205.233,199.965Z" transform="translate(-193.164 -194.406)"/><path class="a" d="M205.233,230.62l.117.352.371,0a.05.05,0,0,1,.029.09l-.3.22.112.354a.05.05,0,0,1-.077.056l-.3-.216-.3.216a.05.05,0,0,1-.077-.056l.112-.354-.3-.22a.05.05,0,0,1,.029-.09l.371,0,.117-.352A.05.05,0,0,1,205.233,230.62Z" transform="translate(-193.164 -223.219)"/></g></g></svg>