<svg xmlns="http://www.w3.org/2000/svg" width="103.047" height="113.967" viewBox="0 0 103.047 113.967"><g transform="translate(34.849 40.575)"><path d="M103.264,90.135a13.381,13.381,0,1,0,13.345,13.38,13.377,13.377,0,0,0-13.345-13.38m0,30.092a16.712,16.712,0,1,1,16.676-16.712,16.713,16.713,0,0,1-16.676,16.712" transform="translate(-86.59 -86.804)" fill="#fbb040"/></g><g transform="translate(40.984 68.875)"><path d="M98.274,119.98a3.871,3.871,0,0,0,7.58,0Zm3.791,6.414A7.244,7.244,0,0,1,94.9,119.98h-.653a2.731,2.731,0,0,1-2.724-2.732v-7.685h3.331v7.085h14.417v-7.085H112.6v7.685a2.73,2.73,0,0,1-2.722,2.732h-.655a7.242,7.242,0,0,1-7.161,6.414" transform="translate(-91.524 -109.563)" fill="#fbb040"/></g><g transform="translate(45.464 49.738)"><path d="M99.734,109.326l-2.573-2.116,2.882-3.5H95.127l7.11-9.533,2.671,1.992-3.14,4.209H107.1Z" transform="translate(-95.127 -94.173)" fill="#fbb040"/></g><g transform="translate(50.152 28.504)"><path d="M101.641,82.6H98.9V77.1h2.744Z" transform="translate(-98.897 -77.097)" fill="#fbb040"/></g><g transform="translate(74.752 55.912)"><path d="M118.681,101.888h0V99.138h5.487v2.749Z" transform="translate(-118.681 -99.138)" fill="#fbb040"/></g><g transform="translate(22.806 55.912)"><path d="M76.906,101.888h0V99.138h5.487v2.749Z" transform="translate(-76.906 -99.138)" fill="#fbb040"/></g><g transform="translate(66.594 36.348)"><path d="M114.06,89.239h0l-1.941-1.946L116,83.4l1.941,1.944Z" transform="translate(-112.119 -83.405)" fill="#fbb040"/></g><g transform="translate(30.63 36.348)"><path d="M87.08,89.239h0l1.941-1.946L85.139,83.4,83.2,85.348Z" transform="translate(-83.198 -83.405)" fill="#fbb040"/></g><g transform="translate(6.635 6.321)"><path d="M68.343,134.444,108.791,157.8l40.447-23.353V87.738L108.791,64.386,68.343,87.738Zm40.448,28.479L63.9,137.007V85.174l44.89-25.917,44.888,25.917v51.833Z" transform="translate(-63.901 -59.257)" fill="#fbb040"/></g><g transform="translate(45.081 2.221)"><path d="M107.7,62.4a6.442,6.442,0,1,1-6.442-6.442A6.443,6.443,0,0,1,107.7,62.4" transform="translate(-94.819 -55.96)" fill="#fff"/></g><g transform="translate(42.86 0)"><path d="M101.7,58.616a4.222,4.222,0,1,0,4.22,4.222,4.227,4.227,0,0,0-4.22-4.222m0,12.885a8.663,8.663,0,1,1,8.662-8.663A8.674,8.674,0,0,1,101.7,71.5" transform="translate(-93.033 -54.174)" fill="#fbb040"/></g><g transform="translate(45.081 98.862)"><path d="M107.7,140.12a6.442,6.442,0,1,1-6.442-6.442,6.443,6.443,0,0,1,6.442,6.442" transform="translate(-94.819 -133.678)" fill="#fff"/></g><g transform="translate(42.86 96.641)"><path d="M101.7,136.334a4.222,4.222,0,1,0,4.22,4.223,4.227,4.227,0,0,0-4.22-4.223m0,12.885a8.663,8.663,0,1,1,8.662-8.662,8.674,8.674,0,0,1-8.662,8.662" transform="translate(-93.033 -131.892)" fill="#fbb040"/></g><g transform="translate(87.941 27.242)"><path d="M142.172,82.524a6.442,6.442,0,1,1-6.442-6.442,6.443,6.443,0,0,1,6.442,6.442" transform="translate(-129.287 -76.082)" fill="#fff"/></g><g transform="translate(85.721 25.021)"><path d="M136.166,78.738a4.222,4.222,0,1,0,4.22,4.222,4.227,4.227,0,0,0-4.22-4.222m0,12.884a8.663,8.663,0,1,1,8.662-8.662,8.673,8.673,0,0,1-8.662,8.662" transform="translate(-127.501 -74.296)" fill="#fbb040"/></g><g transform="translate(2.221 27.242)"><path d="M73.236,82.524a6.442,6.442,0,1,1-6.442-6.442,6.443,6.443,0,0,1,6.442,6.442" transform="translate(-60.351 -76.082)" fill="#fff"/></g><g transform="translate(0 25.021)"><path d="M67.23,78.738a4.222,4.222,0,1,0,4.22,4.222,4.227,4.227,0,0,0-4.22-4.222m0,12.884a8.663,8.663,0,1,1,8.662-8.662,8.673,8.673,0,0,1-8.662,8.662" transform="translate(-58.565 -74.296)" fill="#fbb040"/></g><g transform="translate(87.941 76.693)"><path d="M142.172,122.292a6.442,6.442,0,1,1-6.442-6.442,6.443,6.443,0,0,1,6.442,6.442" transform="translate(-129.287 -115.85)" fill="#fff"/></g><g transform="translate(85.721 74.472)"><path d="M136.166,118.506a4.222,4.222,0,1,0,4.22,4.222,4.227,4.227,0,0,0-4.22-4.222m0,12.885a8.663,8.663,0,1,1,8.662-8.663,8.674,8.674,0,0,1-8.662,8.663" transform="translate(-127.501 -114.064)" fill="#fbb040"/></g><g transform="translate(2.221 76.693)"><path d="M73.236,122.292a6.442,6.442,0,1,1-6.442-6.442,6.443,6.443,0,0,1,6.442,6.442" transform="translate(-60.351 -115.85)" fill="#fff"/></g><g transform="translate(0 74.472)"><path d="M67.23,118.506a4.222,4.222,0,1,0,4.22,4.222,4.227,4.227,0,0,0-4.22-4.222m0,12.885a8.663,8.663,0,1,1,8.662-8.663,8.674,8.674,0,0,1-8.662,8.663" transform="translate(-58.565 -114.064)" fill="#fbb040"/></g></svg>