<svg width="103.047" height="113.967" xmlns="http://www.w3.org/2000/svg">

 <g>
  <title>background</title>
  <rect fill="none" id="canvas_background" height="402" width="582" y="-1" x="-1"/>
 </g>
 <g>
  <title>Layer 1</title>
  <g id="svg_1">
   <path id="svg_2" fill="#fbb040" d="m51.523003,43.906a13.381,13.381 0 1 0 13.345,13.38a13.377,13.377 0 0 0 -13.345,-13.38m0,30.092a16.712,16.712 0 1 1 16.676,-16.712a16.713,16.713 0 0 1 -16.676,16.712"/>
  </g>
  <g id="svg_3">
   <path id="svg_4" fill="#fbb040" d="m47.733999,79.291996a3.871,3.871 0 0 0 7.58,0l-7.58,0zm11.371,6.414a7.244,7.244 0 0 1 -14.745,-6.414l-0.653,0a2.731,2.731 0 0 1 -2.724,-2.732l0,-7.685l3.331,0l0,7.085l14.417,0l0,-7.085l3.329,0l0,7.685a2.73,2.73 0 0 1 -2.722,2.732l-0.655,0a7.242,7.242 0 0 1 -7.161,6.414"/>
  </g>
  <g id="svg_5">
   <path id="svg_6" fill="#fbb040" d="m50.071002,64.891002l-2.573,-2.116l2.882,-3.5l-4.916,0l7.11,-9.533l2.671,1.992l-3.14,4.209l5.332,0l-7.366,8.948z"/>
  </g>
  <g id="svg_7">
   <path id="svg_8" fill="#fbb040" d="m52.895997,34.007l-2.741,0l0,-5.5l2.744,0l-0.003,5.5z"/>
  </g>
  <g id="svg_9">
   <path id="svg_10" fill="#fbb040" d="m74.751999,58.661998l0,0l0,-2.75l5.487,0l0,2.749l-5.487,0.001z"/>
  </g>
  <g id="svg_11">
   <path id="svg_12" fill="#fbb040" d="m22.806002,58.661998l0,0l0,-2.75l5.487,0l0,2.749l-5.487,0.001z"/>
  </g>
  <g id="svg_13">
   <path id="svg_14" fill="#fbb040" d="m68.534998,42.182001l0,0l-1.941,-1.946l3.881,-3.893l1.941,1.944l-3.881,3.895z"/>
  </g>
  <g id="svg_15">
   <path id="svg_16" fill="#fbb040" d="m34.512001,42.182001l0,0l1.941,-1.946l-3.882,-3.893l-1.939,1.948l3.88,3.891z"/>
  </g>
  <g id="svg_17">
   <path id="svg_18" fill="#ffffff" d="m11.076999,81.508l40.448,23.356l40.447,-23.353l0,-46.709l-40.447,-23.352l-40.448,23.352l0,46.706zm40.448,-18.227l-44.891,20.79l0,-51.833l44.89,-25.917l44.888,25.917l0,51.833l-44.887,-20.79z"/>
  </g>
  <g id="svg_19">
   <path id="svg_20" fill="#fff" d="m57.962001,8.661001a6.442,6.442 0 1 1 -6.442,-6.442a6.443,6.443 0 0 1 6.442,6.442"/>
  </g>
  <g id="svg_21">
   <path id="svg_22" fill="#fbb040" d="m51.527003,4.442a4.222,4.222 0 1 0 4.22,4.222a4.227,4.227 0 0 0 -4.22,-4.222m0,12.885a8.663,8.663 0 1 1 8.662,-8.663a8.674,8.674 0 0 1 -8.662,8.662"/>
  </g>
  <g id="svg_23">
   <path id="svg_24" fill="#fff" d="m57.962001,105.304006a6.442,6.442 0 1 1 -6.442,-6.442a6.443,6.443 0 0 1 6.442,6.442"/>
  </g>
  <g id="svg_25">
   <path id="svg_26" fill="#fbb040" d="m51.527003,101.083001a4.222,4.222 0 1 0 4.22,4.223a4.227,4.227 0 0 0 -4.22,-4.223m0,12.885a8.663,8.663 0 1 1 8.662,-8.662a8.674,8.674 0 0 1 -8.662,8.662"/>
  </g>
  <g id="svg_27">
   <path id="svg_28" fill="#fff" d="m100.825999,33.684a6.442,6.442 0 1 1 -6.442,-6.442a6.443,6.443 0 0 1 6.442,6.442"/>
  </g>
  <g id="svg_29">
   <path id="svg_30" fill="#fbb040" d="m94.386001,29.463002a4.222,4.222 0 1 0 4.22,4.222a4.227,4.227 0 0 0 -4.22,-4.222m0,12.884a8.663,8.663 0 1 1 8.662,-8.662a8.673,8.673 0 0 1 -8.662,8.662"/>
  </g>
  <g id="svg_31">
   <path id="svg_32" fill="#fff" d="m15.105998,33.684a6.442,6.442 0 1 1 -6.442,-6.442a6.443,6.443 0 0 1 6.442,6.442"/>
  </g>
  <g id="svg_33">
   <path id="svg_34" fill="#fbb040" d="m8.665001,29.463002a4.222,4.222 0 1 0 4.22,4.222a4.227,4.227 0 0 0 -4.22,-4.222m0,12.884a8.663,8.663 0 1 1 8.662,-8.662a8.673,8.673 0 0 1 -8.662,8.662"/>
  </g>
  <g id="svg_35">
   <path id="svg_36" fill="#fff" d="m100.825999,83.135002a6.442,6.442 0 1 1 -6.442,-6.442a6.443,6.443 0 0 1 6.442,6.442"/>
  </g>
  <g id="svg_37">
   <path id="svg_38" fill="#fbb040" d="m94.386001,78.913997a4.222,4.222 0 1 0 4.22,4.222a4.227,4.227 0 0 0 -4.22,-4.222m0,12.885a8.663,8.663 0 1 1 8.662,-8.663a8.674,8.674 0 0 1 -8.662,8.663"/>
  </g>
  <g id="svg_39">
   <path id="svg_40" fill="#fff" d="m15.105998,83.135002a6.442,6.442 0 1 1 -6.442,-6.442a6.443,6.443 0 0 1 6.442,6.442"/>
  </g>
  <g id="svg_41">
   <path id="svg_42" fill="#fbb040" d="m8.665001,78.913997a4.222,4.222 0 1 0 4.22,4.222a4.227,4.227 0 0 0 -4.22,-4.222m0,12.885a8.663,8.663 0 1 1 8.662,-8.663a8.674,8.674 0 0 1 -8.662,8.663"/>
  </g>
 </g>
</svg>