<svg xmlns="http://www.w3.org/2000/svg" xmlns:xlink="http://www.w3.org/1999/xlink" width="89.547" height="111.944" viewBox="0 0 89.547 111.944"><defs><clipPath id="a"><rect width="89.547" height="111.945" fill="none"/></clipPath></defs><g transform="translate(0 0)"><g clip-path="url(#a)"><g transform="translate(0.001)"><path d="M70.267,85.22h82.3V66.625a4.732,4.732,0,0,0-4.733-4.719H75a4.732,4.732,0,0,0-4.733,4.719Zm0,3.6h0v36.82a41.153,41.153,0,0,0,82.3,0V88.823Zm41.152,81.425a44.74,44.74,0,0,1-44.773-44.6V66.625A8.348,8.348,0,0,1,75,58.3h72.838a8.348,8.348,0,0,1,8.354,8.321v59.018a44.74,44.74,0,0,1-44.773,44.6" transform="translate(-66.647 -58.304)" fill="#39c2d7"/></g><g transform="translate(13.991 6.941)"><path d="M130.33,66.106m-.783,0v0Zm3.7,1.3h0Zm-6.631,0Zm9.033,6.352v0Zm-11.433.005v0Zm.146.446,0,0Zm.356-3.628h0l1.631,1.529a2.37,2.37,0,0,1,.72,2.16l-.4,2.216,2.136-1.081a2.529,2.529,0,0,1,2.239-.007l2.145,1.087-.4-2.22a2.37,2.37,0,0,1,.722-2.159l1.628-1.529-2.3-.321a2.452,2.452,0,0,1-1.842-1.294l-1.075-2.1-1.073,2.091a2.447,2.447,0,0,1-1.846,1.3Zm1.353,9.144a2.479,2.479,0,0,1-1.467-.483,2.377,2.377,0,0,1-.946-2.34l.511-2.875L122,71.994a2.371,2.371,0,0,1-.642-2.467,2.418,2.418,0,0,1,1.992-1.657l3.043-.427,1.358-2.643a2.442,2.442,0,0,1,2.185-1.325h0a2.441,2.441,0,0,1,2.191,1.325l1.356,2.643,3.046.427a2.419,2.419,0,0,1,1.992,1.661,2.365,2.365,0,0,1-.644,2.463l-2.176,2.04.511,2.873a2.372,2.372,0,0,1-.945,2.34,2.468,2.468,0,0,1-2.594.216l-2.737-1.385L127.2,79.46a2.457,2.457,0,0,1-1.126.272M85.38,66.111v0Zm3.7,1.3Zm-6.634,0h0Zm-.337.243-.005.007ZM80.2,74.214v0Zm.356-3.628h0l1.631,1.532a2.38,2.38,0,0,1,.722,2.15l-.4,2.226,2.136-1.081a2.521,2.521,0,0,1,2.239-.007l2.145,1.087-.4-2.22a2.388,2.388,0,0,1,.725-2.159l1.628-1.526-2.3-.324a2.44,2.44,0,0,1-1.846-1.3l-1.071-2.093-1.074,2.094a2.433,2.433,0,0,1-1.848,1.3Zm9.079,9.147a2.488,2.488,0,0,1-1.126-.27l-2.738-1.385L83.033,79.46a2.458,2.458,0,0,1-2.595-.213,2.369,2.369,0,0,1-.948-2.337L80,74.036l-2.177-2.042a2.37,2.37,0,0,1-.643-2.466,2.421,2.421,0,0,1,1.992-1.658l3.046-.427L83.578,64.8a2.443,2.443,0,0,1,2.185-1.325h0A2.454,2.454,0,0,1,87.958,64.8h0l1.356,2.643,3.043.427a2.426,2.426,0,0,1,1.995,1.661,2.368,2.368,0,0,1-.644,2.463L91.53,74.036l.51,2.871a2.373,2.373,0,0,1-.94,2.338,2.468,2.468,0,0,1-1.471.487m21.539-12.322h0Zm-6.639,0h0Zm6.974.234,0,.008,0-.008m2.065,6.119v0Zm-11.433.005v0Zm11.3.439,0,0,0,0m-5.578.937a2.469,2.469,0,0,1,1.11.259l2.148,1.087-.4-2.22a2.368,2.368,0,0,1,.729-2.163l1.624-1.525-2.3-.321a2.43,2.43,0,0,1-1.851-1.312l-1.067-2.085-1.074,2.094a2.447,2.447,0,0,1-1.85,1.3l-2.291.321,1.631,1.529a2.372,2.372,0,0,1,.72,2.16l-.393,2.216,2.136-1.083a2.515,2.515,0,0,1,1.124-.263m-3.863,4.586a2.467,2.467,0,0,1-1.469-.486,2.375,2.375,0,0,1-.944-2.342l.51-2.87-2.176-2.04a2.368,2.368,0,0,1-.644-2.463,2.423,2.423,0,0,1,2-1.661l3.041-.427L105.66,64.8a2.451,2.451,0,0,1,2.191-1.325h0a2.446,2.446,0,0,1,2.185,1.325l1.358,2.643,3.043.427a2.421,2.421,0,0,1,1.992,1.658,2.368,2.368,0,0,1-.644,2.466l-2.175,2.042.511,2.871a2.376,2.376,0,0,1-.944,2.34,2.463,2.463,0,0,1-2.6.213l-2.733-1.383-2.737,1.385a2.492,2.492,0,0,1-1.126.27" transform="translate(-77.069 -63.475)" fill="#39c2d7"/></g><g transform="translate(43.585 42.162)"><path d="M100.326,90.325a.6.6,0,0,0-.6.6v19.251a.6.6,0,0,0,1.2,0V90.924a.6.6,0,0,0-.6-.6m0,21.061a1.213,1.213,0,0,1-1.211-1.211V90.924a1.211,1.211,0,1,1,2.422,0v19.251a1.213,1.213,0,0,1-1.211,1.211" transform="translate(-99.115 -89.712)" fill="#39c2d7"/></g><g transform="translate(43.89 42.468)"><path d="M100.248,111a.906.906,0,0,1-.906-.906V90.846a.905.905,0,1,1,1.811,0V110.1a.905.905,0,0,1-.9.906" transform="translate(-99.342 -89.94)" fill="#39c2d7"/></g><g transform="translate(42.134 40.712)"><path d="M100.7,89.244a2.049,2.049,0,1,0,2.05,2.048,2.051,2.051,0,0,0-2.05-2.048m0,4.71a2.661,2.661,0,1,1,2.662-2.662,2.666,2.666,0,0,1-2.662,2.662" transform="translate(-98.034 -88.632)" fill="#39c2d7"/></g><g transform="translate(42.44 41.018)"><path d="M100.618,88.86a2.355,2.355,0,1,1-2.356,2.355,2.354,2.354,0,0,1,2.356-2.355" transform="translate(-98.262 -88.86)" fill="#39c2d7"/></g><g transform="translate(41.229 39.806)"><path d="M100.927,90.381a1.144,1.144,0,1,0,1.144,1.142,1.144,1.144,0,0,0-1.144-1.142m0,4.71a3.567,3.567,0,1,1,3.567-3.568,3.571,3.571,0,0,1-3.567,3.568" transform="translate(-97.36 -87.957)" fill="#39c2d7"/></g><g transform="translate(41.534 40.112)"><path d="M100.849,90a1.449,1.449,0,1,0,1.45,1.448A1.45,1.45,0,0,0,100.849,90m0,4.71a3.261,3.261,0,1,1,3.261-3.262,3.266,3.266,0,0,1-3.261,3.262" transform="translate(-97.587 -88.185)" fill="#39c2d7"/></g><g transform="translate(48.115 48.051)"><path d="M103.7,94.711a.6.6,0,0,0-.6.6v13.363a.6.6,0,0,0,1.2,0V95.91h4.067a.6.6,0,1,0,0-1.2Zm0,15.173a1.213,1.213,0,0,1-1.211-1.211V95.31A1.213,1.213,0,0,1,103.7,94.1h4.666a1.212,1.212,0,1,1,0,2.423h-3.455v12.151a1.213,1.213,0,0,1-1.211,1.211" transform="translate(-102.489 -94.099)" fill="#39c2d7"/></g><g transform="translate(48.421 48.357)"><path d="M103.623,109.5a.907.907,0,0,1-.906-.906V95.232a.905.905,0,0,1,.906-.9h4.666a.905.905,0,0,1,0,1.811h-3.761v12.456a.905.905,0,0,1-.9.906" transform="translate(-102.717 -94.327)" fill="#39c2d7"/></g><g transform="translate(34.3 48.051)"><path d="M93.409,94.711a.6.6,0,0,0,0,1.2h4.112v12.763a.6.6,0,0,0,1.2,0V95.31a.6.6,0,0,0-.6-.6Zm4.712,15.173a1.213,1.213,0,0,1-1.214-1.211V96.522h-3.5a1.212,1.212,0,0,1,0-2.423h4.712A1.212,1.212,0,0,1,99.33,95.31v13.363a1.212,1.212,0,0,1-1.209,1.211" transform="translate(-92.198 -94.099)" fill="#39c2d7"/></g><g transform="translate(34.605 48.357)"><path d="M98.042,109.5a.906.906,0,0,1-.906-.906V96.138h-3.8a.905.905,0,1,1,0-1.811h4.71a.9.9,0,0,1,.9.9v13.362a.905.905,0,0,1-.9.906" transform="translate(-92.425 -94.327)" fill="#39c2d7"/></g><g transform="translate(52.236 46.601)"><path d="M108.221,93.631a2.049,2.049,0,1,0,2.05,2.05,2.052,2.052,0,0,0-2.05-2.05m0,4.71a2.661,2.661,0,1,1,2.662-2.661,2.665,2.665,0,0,1-2.662,2.661" transform="translate(-105.559 -93.019)" fill="#6dc067"/></g><g transform="translate(52.543 46.907)"><path d="M108.143,93.247a2.355,2.355,0,1,1-2.355,2.356,2.355,2.355,0,0,1,2.355-2.356" transform="translate(-105.788 -93.247)" fill="#6dc067"/></g><g transform="translate(51.331 45.695)"><path d="M108.452,94.768a1.143,1.143,0,1,0,1.144,1.144,1.143,1.143,0,0,0-1.144-1.144m0,4.71a3.567,3.567,0,1,1,3.567-3.567,3.57,3.57,0,0,1-3.567,3.567" transform="translate(-104.885 -92.344)" fill="#39c2d7"/></g><g transform="translate(51.637 46.001)"><path d="M108.374,94.384a1.449,1.449,0,1,0,1.45,1.45,1.451,1.451,0,0,0-1.45-1.45m0,4.71a3.261,3.261,0,1,1,3.261-3.261,3.265,3.265,0,0,1-3.261,3.261" transform="translate(-105.113 -92.572)" fill="#39c2d7"/></g><g transform="translate(31.944 46.601)"><path d="M93.1,93.631a2.049,2.049,0,1,0,2.05,2.05,2.052,2.052,0,0,0-2.05-2.05m0,4.71a2.661,2.661,0,1,1,2.662-2.661A2.664,2.664,0,0,1,93.1,98.342" transform="translate(-90.443 -93.019)" fill="#39c2d7"/></g><g transform="translate(32.25 46.907)"><path d="M93.026,93.247A2.355,2.355,0,1,1,90.671,95.6a2.355,2.355,0,0,1,2.355-2.356" transform="translate(-90.671 -93.247)" fill="#6dc067"/></g><g transform="translate(31.038 45.695)"><path d="M93.335,94.768a1.143,1.143,0,1,0,1.144,1.144,1.144,1.144,0,0,0-1.144-1.144m0,4.71A3.567,3.567,0,1,1,96.9,95.912a3.57,3.57,0,0,1-3.567,3.567" transform="translate(-89.768 -92.344)" fill="#39c2d7"/></g><g transform="translate(31.344 46.001)"><path d="M93.257,94.384a1.449,1.449,0,1,0,1.45,1.45,1.451,1.451,0,0,0-1.45-1.45m0,4.71a3.261,3.261,0,1,1,3.261-3.261,3.265,3.265,0,0,1-3.261,3.261" transform="translate(-89.996 -92.572)" fill="#39c2d7"/></g><g transform="translate(33.156 47.765)"><path d="M94.335,95.383a1.495,1.495,0,0,1-2.99,0,1.478,1.478,0,0,1,1.5-1.494,1.45,1.45,0,0,1,1.494,1.494" transform="translate(-91.346 -93.886)" fill="#fff"/></g><g transform="translate(43.301 41.876)"><path d="M101.892,91A1.495,1.495,0,1,1,98.9,91a1.479,1.479,0,0,1,1.5-1.494A1.45,1.45,0,0,1,101.892,91" transform="translate(-98.903 -89.499)" fill="#fff"/></g><g transform="translate(53.448 47.765)"><path d="M109.451,95.383a1.495,1.495,0,0,1-2.99,0,1.479,1.479,0,0,1,1.5-1.494,1.45,1.45,0,0,1,1.494,1.494" transform="translate(-106.462 -93.886)" fill="#fff"/></g></g></g><g transform="translate(34.234 84.286)"><path d="M110.267,128.385h0l-.907-4.869H95.973l-.907,4.869ZM92.149,130.81h0l1.811-9.718h17.413l1.81,9.718Z" transform="translate(-92.149 -121.092)" fill="#39c2d7"/></g><g transform="translate(34.602 84.593)"><path d="M94.6,128.613h15.938l-1.022-5.481h-13.9Zm18.118,1.812h-20.3l1.7-9.1h16.906Z" transform="translate(-92.423 -121.321)" fill="#39c2d7"/></g><g transform="translate(26.916 91.579)"><path d="M87.909,127.138a.6.6,0,1,0,0,1.2H121.2a.6.6,0,0,0,0-1.2Zm33.293,1.811H87.909a1.212,1.212,0,1,1,0-2.424H121.2a1.212,1.212,0,0,1,0,2.424" transform="translate(-86.697 -126.525)" fill="#39c2d7"/></g><g transform="translate(27.222 91.885)"><path d="M121.124,128.565H87.831a.906.906,0,0,1,0-1.812h33.293a.906.906,0,0,1,0,1.812" transform="translate(-86.925 -126.753)" fill="#39c2d7"/></g><g transform="translate(21.843 54.709)"><path d="M89.566,99.671a6.041,6.041,0,0,0-6.035,6.034v18.708a6.042,6.042,0,0,0,6.035,6.035h32.612a6.042,6.042,0,0,0,6.035-6.035V105.705a6.041,6.041,0,0,0-6.035-6.034h-8.154a.6.6,0,0,0,0,1.2h8.154a4.841,4.841,0,0,1,4.835,4.835v18.708a4.84,4.84,0,0,1-4.835,4.835H89.566a4.84,4.84,0,0,1-4.835-4.835V105.705a4.841,4.841,0,0,1,4.835-4.835h8.152a.6.6,0,1,0,0-1.2Zm32.612,31.389H89.566a6.655,6.655,0,0,1-6.648-6.648V105.705a6.654,6.654,0,0,1,6.648-6.646h8.152a1.212,1.212,0,1,1,0,2.423H89.566a4.227,4.227,0,0,0-4.223,4.223v18.708a4.227,4.227,0,0,0,4.223,4.223h32.612a4.227,4.227,0,0,0,4.223-4.223V105.705a4.227,4.227,0,0,0-4.223-4.223h-8.154a1.212,1.212,0,0,1,0-2.423h8.154a6.654,6.654,0,0,1,6.647,6.646v18.708a6.655,6.655,0,0,1-6.647,6.648" transform="translate(-82.918 -99.059)" fill="#39c2d7"/></g><g transform="translate(22.15 55.015)"><path d="M122.1,130.676H89.487a6.347,6.347,0,0,1-6.34-6.34V105.627a6.347,6.347,0,0,1,6.34-6.34h8.154a.905.905,0,1,1,0,1.811H89.487a4.535,4.535,0,0,0-4.529,4.529v18.709a4.534,4.534,0,0,0,4.529,4.528H122.1a4.533,4.533,0,0,0,4.529-4.528V105.627A4.534,4.534,0,0,0,122.1,101.1h-8.154a.905.905,0,1,1,0-1.811H122.1a6.347,6.347,0,0,1,6.34,6.34v18.709a6.347,6.347,0,0,1-6.34,6.34" transform="translate(-83.147 -99.287)" fill="#39c2d7" stroke="#39c2d7" stroke-miterlimit="10" stroke-width="0.75"/></g><g transform="translate(21.797 76.542)"><path d="M84.1,115.935a.6.6,0,1,0,0,1.2H127.58a.6.6,0,0,0,0-1.2Zm43.484,1.812H84.1a1.212,1.212,0,1,1,0-2.424H127.58a1.212,1.212,0,0,1,0,2.424" transform="translate(-82.884 -115.323)" fill="#39c2d7"/></g><g transform="translate(22.103 76.846)"><path d="M127.5,117.362H84.018a.906.906,0,1,1,0-1.812H127.5a.906.906,0,1,1,0,1.812" transform="translate(-83.112 -115.55)" fill="#39c2d7"/></g><g transform="translate(42.577 79.384)"><path d="M100.539,118.8a.815.815,0,1,0,.816.815.817.817,0,0,0-.816-.815m0,2.989a2.174,2.174,0,1,1,2.175-2.175,2.178,2.178,0,0,1-2.175,2.175" transform="translate(-98.364 -117.44)" fill="#39c2d7"/></g></svg>