<svg xmlns="http://www.w3.org/2000/svg" width="115.314" height="113.563" viewBox="0 0 115.314 113.563"><g transform="translate(6.369 5.492)"><path d="M106.848,158.136a51.288,51.288,0,1,1,51.288-51.288A51.345,51.345,0,0,1,106.848,158.136Zm0-99.115a47.826,47.826,0,1,0,47.826,47.827A47.879,47.879,0,0,0,106.848,59.021Z" transform="translate(-55.56 -55.559)" fill="#6dc067"/></g><g transform="translate(49.288 0)"><path d="M109.486,59.169a8.369,8.369,0,1,1-8.369-8.369,8.37,8.37,0,0,1,8.369,8.369" transform="translate(-92.748 -50.8)" fill="#fff"/></g><g transform="translate(53.391 4.103)"><path d="M104.835,58.621a4.266,4.266,0,1,1-4.266-4.266,4.271,4.271,0,0,1,4.266,4.266" transform="translate(-96.303 -54.355)" fill="#fff"/></g><g transform="translate(51.659 2.372)"><path d="M100.8,64.851a6,6,0,1,1,6-6A6.005,6.005,0,0,1,100.8,64.851Zm0-8.533a2.536,2.536,0,1,0,2.534,2.534A2.538,2.538,0,0,0,100.8,56.317Z" transform="translate(-94.803 -52.855)" fill="#6dc067"/></g><g transform="translate(49.288 96.824)"><path d="M109.486,143.065a8.369,8.369,0,1,1-8.369-8.37,8.37,8.37,0,0,1,8.369,8.37" transform="translate(-92.748 -134.696)" fill="#fff"/></g><g transform="translate(53.391 100.929)"><path d="M104.835,142.519a4.266,4.266,0,1,1-4.266-4.266,4.27,4.27,0,0,1,4.266,4.266" transform="translate(-96.303 -138.253)" fill="#fff"/></g><g transform="translate(51.659 99.198)"><path d="M100.8,148.746a6,6,0,1,1,6-6A6,6,0,0,1,100.8,148.746Zm0-8.531a2.534,2.534,0,1,0,2.534,2.533A2.537,2.537,0,0,0,100.8,140.215Z" transform="translate(-94.803 -136.753)" fill="#6dc067"/></g><g transform="translate(0 48.412)"><path d="M66.779,101.117a8.369,8.369,0,1,1-8.369-8.369,8.37,8.37,0,0,1,8.369,8.369" transform="translate(-50.041 -92.748)" fill="#fff"/></g><g transform="translate(4.103 52.516)"><path d="M62.128,100.57A4.266,4.266,0,1,1,57.862,96.3a4.271,4.271,0,0,1,4.267,4.266" transform="translate(-53.596 -96.304)" fill="#fff"/></g><g transform="translate(2.372 50.785)"><path d="M58.093,106.8a6,6,0,1,1,6-6A6,6,0,0,1,58.093,106.8Zm0-8.531a2.534,2.534,0,1,0,2.536,2.534A2.537,2.537,0,0,0,58.093,98.266Z" transform="translate(-52.096 -94.804)" fill="#6dc067"/></g><g transform="translate(98.577 48.412)"><path d="M152.194,101.117a8.369,8.369,0,1,1-8.369-8.369,8.37,8.37,0,0,1,8.369,8.369" transform="translate(-135.456 -92.748)" fill="#fff"/></g><g transform="translate(102.68 52.516)"><path d="M147.543,100.57a4.266,4.266,0,1,1-4.266-4.266,4.27,4.27,0,0,1,4.266,4.266" transform="translate(-139.011 -96.304)" fill="#fff"/></g><g transform="translate(100.948 50.785)"><path d="M143.509,106.8a6,6,0,1,1,6-6A6,6,0,0,1,143.509,106.8Zm0-8.531a2.534,2.534,0,1,0,2.534,2.534A2.537,2.537,0,0,0,143.509,98.266Z" transform="translate(-137.511 -94.804)" fill="#6dc067"/></g><g transform="translate(27.926 27.046)"><path d="M77.034,100.485c2.13-.856,4.117-1.63,6.079-2.461a1.259,1.259,0,0,0,.742-1.587,4.27,4.27,0,0,1,1.436-4.526c.826-.737,1.5-1.652,2.366-2.337,1.883-1.5,2.29-3.468,2.021-5.686-.1-.831-.319-1.649-.521-2.653a27.563,27.563,0,0,0-12.123,19.25m1.185,11.6c1.512,7.79,13.1,18.543,19.362,17.987a6.028,6.028,0,0,0-1.493-6.222,20.836,20.836,0,0,0-3.887-2.8c-1.057-.631-2.279-.98-3.4-1.51a6.644,6.644,0,0,1-4.076-5.251c-.137-.959-.1-1.941-.162-2.912-.055-.935-.607-1.384-1.465-1.089-1.643.563-3.263,1.2-4.877,1.8m24.52-19.722c-.659,1.732-1.2,3.242-1.8,4.726a6.658,6.658,0,0,0,.579,6.85,14.625,14.625,0,0,0,1.815,2.226c1.378,1.273,2.882,2.407,4.276,3.664a6.474,6.474,0,0,0,3.394,1.84c1.761.262,1.992.645,2.03,2.465a35.153,35.153,0,0,0,.367,5c.279,1.7.919,1.983,2.562,1.512a3.325,3.325,0,0,0,.737-.306c1.878-1.083,2.449-2.956,2.578-4.878.283-4.19,1.572-8.169,2.343-12.253a2.05,2.05,0,0,1,1.744-1.743,2.084,2.084,0,0,1,2.208,1.092c.415.652.78,1.338,1.207,1.982a1.34,1.34,0,0,0,2.067.448,9.837,9.837,0,0,0,1.6-1.22,1.746,1.746,0,0,0,.563-1.138,29.676,29.676,0,0,0-.5-4.081,27.058,27.058,0,0,0-6.859-13.225,25.853,25.853,0,0,0-5.827-4.637c.092.566.162.908.2,1.255.377,3.242.488,5.89-3.818,7.142a4.972,4.972,0,0,0-3.92,4.334,3.013,3.013,0,0,1-2.636,2.566,3.316,3.316,0,0,1-3.646-1.553c-.391-.585-.737-1.2-1.268-2.069m20.921,12.765c-.581,3.465-1.151,6.931-1.746,10.395a18.525,18.525,0,0,1-.622,2.851,6.857,6.857,0,0,1-5.543,4.983,3.747,3.747,0,0,1-4.515-2.466,5.566,5.566,0,0,1-.405-1.347c-.222-1.76-.4-3.526-.6-5.354a9.153,9.153,0,0,1-4.407-2.508,38.549,38.549,0,0,0-3.85-3.234c-2.467-1.8-3.431-4.481-4.4-7.177a1.622,1.622,0,0,1-.037-.7,27.636,27.636,0,0,1,3.138-9.622,2.35,2.35,0,0,1,4.088-.125c.5.716.9,1.5,1.429,2.2a1.124,1.124,0,0,0,.9.4c.274-.053.519-.426.706-.706a2.137,2.137,0,0,0,.166-.681,6.327,6.327,0,0,1,3.489-4.554c.938-.447,1.9-.846,2.882-1.2.716-.261,1.24-.726,1.168-1.454a50.5,50.5,0,0,0-.761-5.129,1.8,1.8,0,0,0-1.021-1.051,26.713,26.713,0,0,0-14.667-1.391A23.031,23.031,0,0,0,91.3,80c.137.331.263.6.362.882C92.755,84,92.9,88.44,89.7,91.221a27.88,27.88,0,0,0-2.862,2.846,2.228,2.228,0,0,0-.485,1.6c.411,2.492-.42,4.066-2.806,5.009-2,.789-4.014,1.549-6,2.381-.317.133-.732.582-.719.869.08,1.863.264,3.721.427,5.738,1.724-.641,3.221-1.218,4.734-1.752a3.665,3.665,0,0,1,5.167,3.537c.02.538.006,1.077.006,1.616a4.2,4.2,0,0,0,2.7,4.112c1.227.551,2.487,1.028,3.7,1.612,3.25,1.571,5.851,3.806,6.623,7.5a22.347,22.347,0,0,1,.048,4.485c13.735,2.376,29.229-7.93,30.632-23.917-3.258,1.74-3.972,1.563-7.2-1.723m-49.422-1.312a29.73,29.73,0,1,1,29.669,29.889,29.563,29.563,0,0,1-29.669-29.889" transform="translate(-74.238 -74.235)" fill="#6dc067"/></g></svg>