<svg width="115.314" height="113.563" xmlns="http://www.w3.org/2000/svg">

 <g>
  <title>background</title>
  <rect fill="none" id="canvas_background" height="402" width="582" y="-1" x="-1"/>
 </g>
 <g>
  <title>Layer 1</title>
  <g id="svg_1">
   <path id="svg_2" fill="#ffffff" d="m57.656999,108.069002a51.288,51.288 0 1 1 51.288,-51.288a51.345,51.345 0 0 1 -51.288,51.288zm0,-99.115a47.826,47.826 0 1 0 47.826,47.827a47.879,47.879 0 0 0 -47.826,-47.827z"/>
  </g>
  <g id="svg_3">
   <path id="svg_4" fill="#ffffff" d="m66.025997,8.369001a8.369,8.369 0 1 1 -8.369,-8.369a8.37,8.37 0 0 1 8.369,8.369"/>
  </g>
  <g id="svg_5">
   <path id="svg_6" fill="#ffffff" d="m61.922997,8.369001a4.266,4.266 0 1 1 -4.266,-4.266a4.271,4.271 0 0 1 4.266,4.266"/>
  </g>
  <g id="svg_7">
   <path id="svg_8" fill="#ffffff" d="m57.655999,14.368a6,6 0 1 1 6,-6a6.005,6.005 0 0 1 -6,6zm0,-8.533a2.536,2.536 0 1 0 2.534,2.534a2.538,2.538 0 0 0 -2.534,-2.535l0,0.001z"/>
  </g>
  <g id="svg_9">
   <path id="svg_10" fill="#ffffff" d="m66.025997,105.192998a8.369,8.369 0 1 1 -8.369,-8.37a8.37,8.37 0 0 1 8.369,8.37"/>
  </g>
  <g id="svg_11">
   <path id="svg_12" fill="#ffffff" d="m61.922997,105.194995a4.266,4.266 0 1 1 -4.266,-4.266a4.27,4.27 0 0 1 4.266,4.266"/>
  </g>
  <g id="svg_13">
   <path id="svg_14" fill="#ffffff" d="m57.655999,111.190992a6,6 0 1 1 6,-6a6,6 0 0 1 -6,6zm0,-8.531a2.534,2.534 0 1 0 2.534,2.533a2.537,2.537 0 0 0 -2.534,-2.533z"/>
  </g>
  <g id="svg_15">
   <path id="svg_16" fill="#ffffff" d="m16.738,56.780998a8.369,8.369 0 1 1 -8.369,-8.369a8.37,8.37 0 0 1 8.369,8.369"/>
  </g>
  <g id="svg_17">
   <path id="svg_18" fill="#ffffff" d="m12.634999,56.781998a4.266,4.266 0 1 1 -4.266,-4.27a4.271,4.271 0 0 1 4.267,4.266"/>
  </g>
  <g id="svg_19">
   <path id="svg_20" fill="#ffffff" d="m8.368999,62.780999a6,6 0 1 1 6,-6a6,6 0 0 1 -6,6zm0,-8.531a2.534,2.534 0 1 0 2.536,2.534a2.537,2.537 0 0 0 -2.536,-2.537l0,0.003z"/>
  </g>
  <g id="svg_21">
   <path id="svg_22" fill="#ffffff" d="m115.31501,56.780998a8.369,8.369 0 1 1 -8.369,-8.369a8.37,8.37 0 0 1 8.369,8.369"/>
  </g>
  <g id="svg_23">
   <path id="svg_24" fill="#ffffff" d="m111.211999,56.781998a4.266,4.266 0 1 1 -4.266,-4.266a4.27,4.27 0 0 1 4.266,4.266"/>
  </g>
  <g id="svg_25">
   <path id="svg_26" fill="#ffffff" d="m106.945996,62.780999a6,6 0 1 1 6,-6a6,6 0 0 1 -6,6zm0,-8.531a2.534,2.534 0 1 0 2.534,2.534a2.537,2.537 0 0 0 -2.534,-2.537l0,0.003z"/>
  </g>
  <g id="svg_27">
   <path id="svg_28" fill="#ffffff" d="m30.722002,53.295999c2.13,-0.856 4.117,-1.63 6.079,-2.461a1.259,1.259 0 0 0 0.742,-1.587a4.27,4.27 0 0 1 1.436,-4.526c0.826,-0.737 1.5,-1.652 2.366,-2.337c1.883,-1.5 2.29,-3.468 2.021,-5.686c-0.1,-0.831 -0.319,-1.649 -0.521,-2.653a27.563,27.563 0 0 0 -12.123,19.25m1.185,11.6c1.512,7.79 13.1,18.543 19.362,17.987a6.028,6.028 0 0 0 -1.493,-6.222a20.836,20.836 0 0 0 -3.887,-2.8c-1.057,-0.631 -2.279,-0.98 -3.4,-1.51a6.644,6.644 0 0 1 -4.076,-5.251c-0.137,-0.959 -0.1,-1.941 -0.162,-2.912c-0.055,-0.935 -0.607,-1.384 -1.465,-1.089c-1.643,0.563 -3.263,1.2 -4.877,1.8m24.52,-19.722c-0.659,1.732 -1.2,3.242 -1.8,4.726a6.658,6.658 0 0 0 0.579,6.85a14.625,14.625 0 0 0 1.815,2.226c1.378,1.273 2.882,2.407 4.276,3.664a6.474,6.474 0 0 0 3.394,1.84c1.761,0.262 1.992,0.645 2.03,2.465a35.153,35.153 0 0 0 0.367,5c0.279,1.7 0.919,1.983 2.562,1.512a3.325,3.325 0 0 0 0.737,-0.306c1.878,-1.083 2.449,-2.956 2.578,-4.878c0.283,-4.19 1.572,-8.169 2.343,-12.253a2.05,2.05 0 0 1 1.744,-1.743a2.084,2.084 0 0 1 2.208,1.092c0.415,0.652 0.78,1.338 1.207,1.982a1.34,1.34 0 0 0 2.067,0.448a9.837,9.837 0 0 0 1.6,-1.22a1.746,1.746 0 0 0 0.563,-1.138a29.676,29.676 0 0 0 -0.5,-4.081a27.058,27.058 0 0 0 -6.859,-13.225a25.853,25.853 0 0 0 -5.827,-4.637c0.092,0.566 0.162,0.908 0.2,1.255c0.377,3.242 0.488,5.89 -3.818,7.142a4.972,4.972 0 0 0 -3.92,4.334a3.013,3.013 0 0 1 -2.636,2.566a3.316,3.316 0 0 1 -3.646,-1.553c-0.391,-0.585 -0.737,-1.2 -1.268,-2.069m20.921,12.765c-0.581,3.465 -1.151,6.931 -1.746,10.395a18.525,18.525 0 0 1 -0.622,2.851a6.857,6.857 0 0 1 -5.543,4.983a3.747,3.747 0 0 1 -4.515,-2.466a5.566,5.566 0 0 1 -0.405,-1.347c-0.222,-1.76 -0.4,-3.526 -0.6,-5.354a9.153,9.153 0 0 1 -4.407,-2.508a38.549,38.549 0 0 0 -3.85,-3.234c-2.467,-1.8 -3.431,-4.481 -4.4,-7.177a1.622,1.622 0 0 1 -0.037,-0.7a27.636,27.636 0 0 1 3.138,-9.622a2.35,2.35 0 0 1 4.088,-0.125c0.5,0.716 0.9,1.5 1.429,2.2a1.124,1.124 0 0 0 0.9,0.4c0.274,-0.053 0.519,-0.426 0.706,-0.706a2.137,2.137 0 0 0 0.166,-0.681a6.327,6.327 0 0 1 3.489,-4.554c0.938,-0.447 1.9,-0.846 2.882,-1.2c0.716,-0.261 1.24,-0.726 1.168,-1.454a50.5,50.5 0 0 0 -0.761,-5.129a1.8,1.8 0 0 0 -1.021,-1.051a26.713,26.713 0 0 0 -14.667,-1.391a23.031,23.031 0 0 0 -7.75,2.74c0.137,0.331 0.263,0.6 0.362,0.882c1.093,3.118 1.238,7.558 -1.962,10.339a27.88,27.88 0 0 0 -2.862,2.846a2.228,2.228 0 0 0 -0.485,1.6c0.411,2.492 -0.42,4.066 -2.806,5.009c-2,0.789 -4.014,1.549 -6,2.381c-0.317,0.133 -0.732,0.582 -0.719,0.869c0.08,1.863 0.264,3.721 0.427,5.738c1.724,-0.641 3.221,-1.218 4.734,-1.752a3.665,3.665 0 0 1 5.167,3.537c0.02,0.538 0.006,1.077 0.006,1.616a4.2,4.2 0 0 0 2.7,4.112c1.227,0.551 2.487,1.028 3.7,1.612c3.25,1.571 5.851,3.806 6.623,7.5a22.347,22.347 0 0 1 0.048,4.485c13.735,2.376 29.229,-7.93 30.632,-23.917c-3.258,1.74 -3.972,1.563 -7.2,-1.723m-49.422,-1.312a29.73,29.73 0 1 1 29.669,29.889a29.563,29.563 0 0 1 -29.669,-29.889"/>
  </g>
 </g>
</svg>