<svg id="Group_498" data-name="Group 498" xmlns="http://www.w3.org/2000/svg" width="328.146" height="323.162" viewBox="0 0 328.146 323.162">
  <g id="Group_372" data-name="Group 372" transform="translate(18.125 15.629)">
    <path id="Path_492" data-name="Path 492" d="M201.508,347.459c-80.478,0-145.948-65.47-145.948-145.948S121.03,55.559,201.508,55.559s145.948,65.473,145.948,145.952S281.982,347.459,201.508,347.459Zm0-282.048c-75.046,0-136.1,61.053-136.1,136.1s61.049,136.1,136.1,136.1,136.1-61.049,136.1-136.1S276.554,65.411,201.508,65.411Z" transform="translate(-55.56 -55.559)" fill="#fff"/>
  </g>
  <g id="Group_373" data-name="Group 373" transform="translate(140.256 0)">
    <path id="Path_493" data-name="Path 493" d="M140.378,74.617A23.815,23.815,0,1,1,116.561,50.8a23.817,23.817,0,0,1,23.817,23.817" transform="translate(-92.748 -50.8)" fill="#fff"/>
  </g>
  <g id="Group_374" data-name="Group 374" transform="translate(151.931 11.675)">
    <path id="Path_494" data-name="Path 494" d="M120.583,66.493a12.14,12.14,0,1,1-12.138-12.138,12.155,12.155,0,0,1,12.138,12.138" transform="translate(-96.303 -54.355)" fill="#fff"/>
  </g>
  <g id="Group_375" data-name="Group 375" transform="translate(147.005 6.749)">
    <path id="Path_495" data-name="Path 495" d="M111.871,86.991A17.068,17.068,0,1,1,128.935,69.92,17.088,17.088,0,0,1,111.871,86.991Zm0-24.283a7.215,7.215,0,1,0,7.212,7.212A7.222,7.222,0,0,0,111.871,62.708Z" transform="translate(-94.803 -52.855)" fill="#6dc067"/>
  </g>
  <g id="Group_376" data-name="Group 376" transform="translate(140.256 275.529)">
    <path id="Path_496" data-name="Path 496" d="M140.378,158.513A23.815,23.815,0,1,1,116.561,134.7a23.817,23.817,0,0,1,23.817,23.817" transform="translate(-92.748 -134.696)" fill="#fff"/>
  </g>
  <g id="Group_377" data-name="Group 377" transform="translate(151.931 287.21)">
    <path id="Path_497" data-name="Path 497" d="M120.583,150.391a12.14,12.14,0,1,1-12.138-12.138,12.152,12.152,0,0,1,12.138,12.138" transform="translate(-96.303 -138.253)" fill="#fff"/>
  </g>
  <g id="Group_378" data-name="Group 378" transform="translate(147.005 282.284)">
    <path id="Path_498" data-name="Path 498" d="M111.871,170.882a17.065,17.065,0,1,1,17.064-17.068A17.088,17.088,0,0,1,111.871,170.882Zm0-24.277a7.212,7.212,0,1,0,7.212,7.209A7.22,7.22,0,0,0,111.871,146.605Z" transform="translate(-94.803 -136.753)" fill="#6dc067"/>
  </g>
  <g id="Group_379" data-name="Group 379" transform="translate(0 137.764)">
    <path id="Path_499" data-name="Path 499" d="M97.671,116.565A23.815,23.815,0,1,1,73.854,92.748a23.817,23.817,0,0,1,23.817,23.817" transform="translate(-50.041 -92.748)" fill="#fff"/>
  </g>
  <g id="Group_380" data-name="Group 380" transform="translate(11.675 149.443)">
    <path id="Path_500" data-name="Path 500" d="M77.876,108.442A12.14,12.14,0,1,1,65.734,96.3a12.153,12.153,0,0,1,12.141,12.138" transform="translate(-53.596 -96.304)" fill="#fff"/>
  </g>
  <g id="Group_381" data-name="Group 381" transform="translate(6.749 144.517)">
    <path id="Path_501" data-name="Path 501" d="M69.16,128.933a17.065,17.065,0,1,1,17.068-17.065A17.084,17.084,0,0,1,69.16,128.933Zm0-24.277a7.212,7.212,0,1,0,7.215,7.212A7.22,7.22,0,0,0,69.16,104.657Z" transform="translate(-52.096 -94.804)" fill="#6dc067"/>
  </g>
  <g id="Group_382" data-name="Group 382" transform="translate(280.516 137.764)">
    <path id="Path_502" data-name="Path 502" d="M183.086,116.565a23.815,23.815,0,1,1-23.817-23.817,23.817,23.817,0,0,1,23.817,23.817" transform="translate(-135.456 -92.748)" fill="#fff"/>
  </g>
  <g id="Group_383" data-name="Group 383" transform="translate(292.191 149.443)">
    <path id="Path_503" data-name="Path 503" d="M163.291,108.442A12.14,12.14,0,1,1,151.153,96.3a12.152,12.152,0,0,1,12.138,12.138" transform="translate(-139.011 -96.304)" fill="#fff"/>
  </g>
  <g id="Group_384" data-name="Group 384" transform="translate(287.265 144.517)">
    <path id="Path_504" data-name="Path 504" d="M154.579,128.933a17.065,17.065,0,1,1,17.064-17.065A17.085,17.085,0,0,1,154.579,128.933Zm0-24.277a7.212,7.212,0,1,0,7.212,7.212A7.22,7.22,0,0,0,154.579,104.657Z" transform="translate(-137.511 -94.804)" fill="#6dc067"/>
  </g>
  <g id="Group_385" data-name="Group 385" transform="translate(79.467 76.964)">
    <path id="Path_505" data-name="Path 505" d="M82.2,148.934c6.063-2.437,11.715-4.637,17.3-7a3.582,3.582,0,0,0,2.112-4.516c-1.278-5.14.135-9.353,4.086-12.88,2.351-2.1,4.276-4.7,6.732-6.65,5.36-4.26,6.516-9.869,5.751-16.181-.286-2.365-.906-4.693-1.481-7.55-19.744,13.583-30.74,31.6-34.5,54.78m3.373,33.012c4.3,22.168,37.278,52.767,55.1,51.184,1.757-6.654.729-12.864-4.25-17.7a59.291,59.291,0,0,0-11.061-7.964c-3.008-1.8-6.486-2.788-9.682-4.3-6.375-3-10.582-7.813-11.6-14.943-.391-2.729-.3-5.524-.46-8.286-.158-2.66-1.727-3.938-4.168-3.1-4.677,1.6-9.284,3.406-13.879,5.11m69.775-56.123c-1.875,4.93-3.419,9.225-5.136,13.449-2.772,6.8-2.8,13.35,1.649,19.492a41.618,41.618,0,0,0,5.166,6.335c3.921,3.622,8.2,6.851,12.168,10.427,2.831,2.552,5.774,4.654,9.659,5.235,5.012.745,5.668,1.836,5.777,7.015a100.036,100.036,0,0,0,1.044,14.24c.795,4.824,2.614,5.642,7.291,4.3a9.463,9.463,0,0,0,2.1-.87c5.343-3.081,6.969-8.411,7.337-13.882.8-11.925,4.473-23.245,6.667-34.868a5.834,5.834,0,0,1,4.962-4.959c2.778-.473,4.828.824,6.283,3.107,1.182,1.856,2.22,3.806,3.435,5.639,1.55,2.338,3.563,2.782,5.882,1.274a27.992,27.992,0,0,0,4.562-3.471,4.969,4.969,0,0,0,1.6-3.238,84.445,84.445,0,0,0-1.415-11.613A77,77,0,0,0,214.855,105.8a73.568,73.568,0,0,0-16.582-13.2c.263,1.609.46,2.585.575,3.57,1.074,9.225,1.389,16.762-10.864,20.322-6.263,1.819-10.155,5.593-11.156,12.332-.6,4.066-3.439,6.5-7.5,7.3-4.437.877-7.892-.709-10.375-4.42-1.113-1.665-2.1-3.416-3.609-5.889m59.535,36.326c-1.652,9.859-3.274,19.725-4.969,29.581a52.715,52.715,0,0,1-1.77,8.112c-2.585,7.616-7.554,12.736-15.774,14.181-6.092,1.071-10.555-1.324-12.848-7.018a15.837,15.837,0,0,1-1.153-3.833c-.631-5.008-1.126-10.033-1.695-15.235-4.746-1-8.841-3.6-12.542-7.137a109.691,109.691,0,0,0-10.956-9.2c-7.021-5.133-9.764-12.752-12.509-20.424a4.616,4.616,0,0,1-.105-1.993c1.126-9.728,4.443-18.785,8.93-27.38,2.443-4.68,8.595-4.7,11.632-.355,1.422,2.036,2.572,4.273,4.066,6.253a3.2,3.2,0,0,0,2.568,1.14c.778-.151,1.478-1.212,2.01-2.01a6.081,6.081,0,0,0,.473-1.938c1.36-5.813,4.443-10.342,9.928-12.959,2.67-1.271,5.419-2.407,8.2-3.419,2.036-.742,3.527-2.066,3.324-4.138a143.689,143.689,0,0,0-2.164-14.595,5.122,5.122,0,0,0-2.906-2.992A76.015,76.015,0,0,0,144.88,82.83a65.539,65.539,0,0,0-22.092,7.81c.391.943.749,1.711,1.031,2.509,3.113,8.874,3.534,21.508-5.586,29.423a79.337,79.337,0,0,0-8.145,8.1,6.339,6.339,0,0,0-1.379,4.552c1.169,7.091-1.2,11.57-7.984,14.253-5.695,2.246-11.422,4.407-17.064,6.775-.9.378-2.082,1.655-2.046,2.473.227,5.3.752,10.588,1.215,16.329,4.906-1.823,9.166-3.465,13.472-4.985,7.806-2.755,14.4,1.78,14.7,10.066.056,1.53.016,3.064.016,4.6,0,5.586,2.657,9.442,7.685,11.7,3.491,1.567,7.077,2.926,10.519,4.588,9.248,4.47,16.651,10.831,18.848,21.331.854,4.079.138,8.49.138,12.762,39.085,6.762,83.174-22.566,87.168-68.061-9.271,4.952-11.3,4.447-20.5-4.9M74.241,158.415a84.6,84.6,0,0,1,169.2.263c-.259,47.978-38.523,84.784-84.774,84.791a84.3,84.3,0,0,1-84.429-85.053" transform="translate(-74.238 -74.235)" fill="#fff"/>
  </g>
</svg>
