<svg id="Group_500" data-name="Group 500" xmlns="http://www.w3.org/2000/svg" width="293.237" height="324.314" viewBox="0 0 293.237 324.314">
  <g id="Group_422" data-name="Group 422" transform="translate(99.167 115.462)">
    <path id="Path_538" data-name="Path 538" d="M134.038,96.284a38.077,38.077,0,1,0,37.975,38.075,38.066,38.066,0,0,0-37.975-38.075m0,85.633a47.556,47.556,0,1,1,47.455-47.558,47.558,47.558,0,0,1-47.455,47.558" transform="translate(-86.59 -86.804)" fill="#fff"/>
  </g>
  <g id="Group_423" data-name="Group 423" transform="translate(116.626 195.996)">
    <path id="Path_539" data-name="Path 539" d="M110.731,139.205a11.016,11.016,0,0,0,21.571,0Zm10.789,18.252a20.613,20.613,0,0,1-20.385-18.252H99.277a7.771,7.771,0,0,1-7.753-7.774V109.563H101v20.163h41.026V109.563h9.48v21.868a7.77,7.77,0,0,1-7.746,7.774H141.9a20.608,20.608,0,0,1-20.378,18.252" transform="translate(-91.524 -109.563)" fill="#fff"/>
  </g>
  <g id="Group_424" data-name="Group 424" transform="translate(129.376 141.538)">
    <path id="Path_540" data-name="Path 540" d="M108.237,137.294l-7.321-6.023,8.2-9.972H95.127L115.36,94.173l7.6,5.669-8.935,11.978H129.2Z" transform="translate(-95.127 -94.173)" fill="#fff"/>
  </g>
  <g id="Group_425" data-name="Group 425" transform="translate(142.714 81.114)">
    <path id="Path_541" data-name="Path 541" d="M106.706,92.752H98.9V77.1h7.81Z" transform="translate(-98.897 -77.097)" fill="#fff"/>
  </g>
  <g id="Group_426" data-name="Group 426" transform="translate(212.72 159.108)">
    <path id="Path_542" data-name="Path 542" d="M118.68,106.962h0V99.138H134.3v7.824Z" transform="translate(-118.68 -99.138)" fill="#fff"/>
  </g>
  <g id="Group_427" data-name="Group 427" transform="translate(64.898 159.108)">
    <path id="Path_543" data-name="Path 543" d="M76.906,106.962h0V99.138H92.521v7.824Z" transform="translate(-76.906 -99.138)" fill="#fff"/>
  </g>
  <g id="Group_428" data-name="Group 428" transform="translate(189.503 103.434)">
    <path id="Path_544" data-name="Path 544" d="M117.643,100.007h0l-5.524-5.538L123.167,83.4l5.524,5.531Z" transform="translate(-112.119 -83.405)" fill="#fff"/>
  </g>
  <g id="Group_429" data-name="Group 429" transform="translate(87.163 103.434)">
    <path id="Path_545" data-name="Path 545" d="M94.245,100.007h0l5.524-5.538L88.721,83.4,83.2,88.935Z" transform="translate(-83.198 -83.405)" fill="#fff"/>
  </g>
  <g id="Group_430" data-name="Group 430" transform="translate(18.882 17.986)">
    <path id="Path_546" data-name="Path 546" d="M76.541,273.215l115.1,66.454,115.1-66.454V140.3l-115.1-66.45L76.541,140.3Zm115.1,81.043L63.9,280.508v-147.5l127.74-73.75,127.737,73.75v147.5Z" transform="translate(-63.901 -59.257)" fill="#fff"/>
  </g>
  <g id="Group_431" data-name="Group 431" transform="translate(128.285 6.32)">
    <path id="Path_547" data-name="Path 547" d="M131.485,74.293A18.333,18.333,0,1,1,113.152,55.96a18.335,18.335,0,0,1,18.333,18.333" transform="translate(-94.819 -55.96)" fill="#fbb040"/>
  </g>
  <g id="Group_432" data-name="Group 432" transform="translate(121.966 0)">
    <path id="Path_548" data-name="Path 548" d="M117.689,66.814A12.013,12.013,0,1,0,129.7,78.827a12.028,12.028,0,0,0-12.01-12.013m0,36.666a24.653,24.653,0,1,1,24.649-24.653,24.684,24.684,0,0,1-24.649,24.653" transform="translate(-93.033 -54.174)" fill="#fff"/>
  </g>
  <g id="Group_433" data-name="Group 433" transform="translate(128.285 281.328)">
    <path id="Path_549" data-name="Path 549" d="M131.485,152.011a18.333,18.333,0,1,1-18.333-18.333,18.335,18.335,0,0,1,18.333,18.333" transform="translate(-94.819 -133.678)" fill="#fbb040"/>
  </g>
  <g id="Group_434" data-name="Group 434" transform="translate(121.966 275.008)">
    <path id="Path_550" data-name="Path 550" d="M117.689,144.532a12.013,12.013,0,1,0,12.01,12.017,12.028,12.028,0,0,0-12.01-12.017m0,36.666a24.653,24.653,0,1,1,24.649-24.649A24.684,24.684,0,0,1,117.689,181.2" transform="translate(-93.033 -131.892)" fill="#fff"/>
  </g>
  <g id="Group_435" data-name="Group 435" transform="translate(250.251 77.522)">
    <path id="Path_551" data-name="Path 551" d="M165.953,94.415A18.333,18.333,0,1,1,147.62,76.082a18.335,18.335,0,0,1,18.333,18.333" transform="translate(-129.287 -76.082)" fill="#fbb040"/>
  </g>
  <g id="Group_436" data-name="Group 436" transform="translate(243.931 71.202)">
    <path id="Path_552" data-name="Path 552" d="M152.157,86.936a12.013,12.013,0,1,0,12.01,12.013,12.028,12.028,0,0,0-12.01-12.013m0,36.663a24.651,24.651,0,1,1,24.649-24.649A24.681,24.681,0,0,1,152.157,123.6" transform="translate(-127.501 -74.296)" fill="#fff"/>
  </g>
  <g id="Group_437" data-name="Group 437" transform="translate(6.32 77.522)">
    <path id="Path_553" data-name="Path 553" d="M97.017,94.415A18.333,18.333,0,1,1,78.684,76.082,18.335,18.335,0,0,1,97.017,94.415" transform="translate(-60.351 -76.082)" fill="#fbb040"/>
  </g>
  <g id="Group_438" data-name="Group 438" transform="translate(0 71.202)">
    <path id="Path_554" data-name="Path 554" d="M83.221,86.936a12.013,12.013,0,1,0,12.01,12.013,12.028,12.028,0,0,0-12.01-12.013m0,36.663a24.651,24.651,0,1,1,24.649-24.649A24.681,24.681,0,0,1,83.221,123.6" transform="translate(-58.565 -74.296)" fill="#fff"/>
  </g>
  <g id="Group_439" data-name="Group 439" transform="translate(250.251 218.243)">
    <path id="Path_555" data-name="Path 555" d="M165.953,134.183A18.333,18.333,0,1,1,147.62,115.85a18.335,18.335,0,0,1,18.333,18.333" transform="translate(-129.287 -115.85)" fill="#fbb040"/>
  </g>
  <g id="Group_440" data-name="Group 440" transform="translate(243.931 211.923)">
    <path id="Path_556" data-name="Path 556" d="M152.157,126.7a12.013,12.013,0,1,0,12.01,12.013,12.028,12.028,0,0,0-12.01-12.013m0,36.666a24.653,24.653,0,1,1,24.649-24.653,24.684,24.684,0,0,1-24.649,24.653" transform="translate(-127.501 -114.064)" fill="#fff"/>
  </g>
  <g id="Group_441" data-name="Group 441" transform="translate(6.32 218.243)">
    <path id="Path_557" data-name="Path 557" d="M97.017,134.183A18.333,18.333,0,1,1,78.684,115.85a18.335,18.335,0,0,1,18.333,18.333" transform="translate(-60.351 -115.85)" fill="#fbb040"/>
  </g>
  <g id="Group_442" data-name="Group 442" transform="translate(0 211.923)">
    <path id="Path_558" data-name="Path 558" d="M83.221,126.7a12.013,12.013,0,1,0,12.01,12.013A12.028,12.028,0,0,0,83.221,126.7m0,36.666a24.653,24.653,0,1,1,24.649-24.653A24.684,24.684,0,0,1,83.221,163.37" transform="translate(-58.565 -114.064)" fill="#fff"/>
  </g>
</svg>
