<svg id="Group_499" data-name="Group 499" xmlns="http://www.w3.org/2000/svg" xmlns:xlink="http://www.w3.org/1999/xlink" width="254.819" height="318.557" viewBox="0 0 254.819 318.557">
  <defs>
    <clipPath id="clip-path">
      <rect id="Rectangle_725" data-name="Rectangle 725" width="254.819" height="318.557" fill="#fff"/>
    </clipPath>
  </defs>
  <g id="Group_411" data-name="Group 411" transform="translate(0 0)">
    <g id="Group_410" data-name="Group 410" clip-path="url(#clip-path)">
      <g id="Group_387" data-name="Group 387" transform="translate(0.002)">
        <path id="Path_506" data-name="Path 506" d="M76.949,134.9H311.16V81.984a13.465,13.465,0,0,0-13.469-13.427H90.419A13.465,13.465,0,0,0,76.949,81.984Zm0,10.253h0V249.93c0,64.336,52.536,116.678,117.105,116.678S311.16,314.267,311.16,249.93V145.152Zm117.105,231.71c-70.253,0-127.408-56.941-127.408-126.931V81.984A23.754,23.754,0,0,1,90.419,58.3H297.691a23.754,23.754,0,0,1,23.772,23.68V249.93c0,69.99-57.154,126.931-127.408,126.931" transform="translate(-66.647 -58.304)" fill="#fff"/>
      </g>
      <g id="Group_388" data-name="Group 388" transform="translate(39.814 19.753)">
        <path id="Path_507" data-name="Path 507" d="M228.63,70.962m-2.227.008v0Zm10.539,3.705h0Zm-18.871.008Zm25.7,18.076v0Zm-32.535.015v0Zm.416,1.268.011.011Zm1.012-10.325h0l4.641,4.351a6.743,6.743,0,0,1,2.048,6.146l-1.127,6.307,6.077-3.075a7.2,7.2,0,0,1,6.372-.019l6.1,3.094L235.659,94.2a6.744,6.744,0,0,1,2.055-6.143l4.634-4.351-6.54-.913a6.977,6.977,0,0,1-5.241-3.682l-3.06-5.974-3.052,5.952A6.963,6.963,0,0,1,219.2,82.8Zm3.851,26.022a7.054,7.054,0,0,1-4.175-1.375,6.765,6.765,0,0,1-2.693-6.658l1.455-8.182-6.192-5.806A6.746,6.746,0,0,1,203.09,80.7a6.88,6.88,0,0,1,5.669-4.714l8.66-1.215,3.866-7.522a6.949,6.949,0,0,1,6.219-3.77h0a6.946,6.946,0,0,1,6.234,3.77l3.858,7.522,8.668,1.215a6.884,6.884,0,0,1,5.669,4.725,6.73,6.73,0,0,1-1.834,7.01l-6.192,5.806,1.455,8.175a6.751,6.751,0,0,1-2.689,6.658,7.022,7.022,0,0,1-7.38.615l-7.789-3.942-7.781,3.935a6.992,6.992,0,0,1-3.2.775m-115.8-38.761,0,.008Zm10.539,3.7Zm-18.878.008h0Zm-.959.691-.015.019ZM85.965,94.035v0ZM86.977,83.71h0l4.641,4.359a6.773,6.773,0,0,1,2.055,6.12l-1.135,6.334,6.078-3.075a7.173,7.173,0,0,1,6.372-.019l6.1,3.094L109.966,94.2a6.794,6.794,0,0,1,2.063-6.143l4.634-4.343-6.54-.921a6.942,6.942,0,0,1-5.253-3.709l-3.048-5.955-3.056,5.959a6.923,6.923,0,0,1-5.26,3.713Zm25.835,26.029a7.08,7.08,0,0,1-3.205-.768l-7.793-3.942-7.774,3.935a7,7,0,0,1-7.384-.607,6.742,6.742,0,0,1-2.7-6.651l1.463-8.179-6.2-5.81A6.745,6.745,0,0,1,77.4,80.7a6.888,6.888,0,0,1,5.669-4.718l8.668-1.215,3.858-7.522a6.952,6.952,0,0,1,6.219-3.77h.012a6.984,6.984,0,0,1,6.234,3.766v0l3.858,7.522,8.66,1.215a6.9,6.9,0,0,1,5.676,4.725,6.739,6.739,0,0,1-1.834,7.01l-6.2,5.81,1.452,8.171A6.752,6.752,0,0,1,117,108.352a7.022,7.022,0,0,1-4.187,1.387M174.1,74.675h0Zm-18.894.008h0Zm19.845.665.008.023-.008-.023m5.875,17.412v0Zm-32.535.015v0Zm32.145,1.249-.011.011.011-.011M164.668,96.69a7.025,7.025,0,0,1,3.159.737l6.112,3.094L172.812,94.2a6.739,6.739,0,0,1,2.074-6.154l4.622-4.339-6.54-.913a6.915,6.915,0,0,1-5.268-3.732l-3.037-5.932-3.056,5.959a6.963,6.963,0,0,1-5.264,3.713l-6.521.913,4.641,4.351a6.75,6.75,0,0,1,2.048,6.146l-1.119,6.307,6.078-3.083a7.156,7.156,0,0,1,3.2-.749m-10.994,13.049a7.021,7.021,0,0,1-4.179-1.383,6.758,6.758,0,0,1-2.685-6.666l1.452-8.167-6.192-5.806a6.738,6.738,0,0,1-1.834-7.01,6.9,6.9,0,0,1,5.684-4.725l8.652-1.215,3.858-7.522a6.976,6.976,0,0,1,6.234-3.77h.011a6.961,6.961,0,0,1,6.219,3.77l3.866,7.522,8.66,1.215a6.888,6.888,0,0,1,5.669,4.718,6.739,6.739,0,0,1-1.834,7.017l-6.188,5.81,1.455,8.171a6.762,6.762,0,0,1-2.685,6.658,7.009,7.009,0,0,1-7.392.607l-7.777-3.935-7.789,3.942a7.092,7.092,0,0,1-3.2.768" transform="translate(-77.069 -63.475)" fill="#fff"/>
      </g>
      <g id="Group_389" data-name="Group 389" transform="translate(124.029 119.978)">
        <path id="Path_508" data-name="Path 508" d="M102.561,91.458a1.705,1.705,0,0,0-1.7,1.7v54.783a1.7,1.7,0,0,0,3.407,0V93.161a1.705,1.705,0,0,0-1.7-1.7m0,59.932a3.451,3.451,0,0,1-3.446-3.446V93.161a3.446,3.446,0,1,1,6.891,0v54.783a3.451,3.451,0,0,1-3.446,3.446" transform="translate(-99.115 -89.712)" fill="#fff"/>
      </g>
      <g id="Group_390" data-name="Group 390" transform="translate(124.896 120.849)">
        <path id="Path_509" data-name="Path 509" d="M101.92,149.876a2.577,2.577,0,0,1-2.578-2.578V92.518a2.577,2.577,0,1,1,5.153,0V147.3a2.577,2.577,0,0,1-2.575,2.578" transform="translate(-99.342 -89.94)" fill="#fff"/>
      </g>
      <g id="Group_391" data-name="Group 391" transform="translate(119.9 115.853)">
        <path id="Path_510" data-name="Path 510" d="M105.609,90.374a5.831,5.831,0,1,0,5.833,5.829,5.836,5.836,0,0,0-5.833-5.829m0,13.4a7.573,7.573,0,1,1,7.575-7.575,7.586,7.586,0,0,1-7.575,7.575" transform="translate(-98.034 -88.632)" fill="#fff"/>
      </g>
      <g id="Group_392" data-name="Group 392" transform="translate(120.77 116.724)">
        <path id="Path_511" data-name="Path 511" d="M104.966,88.86a6.7,6.7,0,1,1-6.7,6.7,6.7,6.7,0,0,1,6.7-6.7" transform="translate(-98.262 -88.86)" fill="#fff"/>
      </g>
      <g id="Group_393" data-name="Group 393" transform="translate(117.325 113.274)">
        <path id="Path_512" data-name="Path 512" d="M107.51,94.856a3.255,3.255,0,1,0,3.255,3.251,3.256,3.256,0,0,0-3.255-3.251m0,13.4a10.152,10.152,0,1,1,10.15-10.154,10.162,10.162,0,0,1-10.15,10.154" transform="translate(-97.36 -87.957)" fill="#fff"/>
      </g>
      <g id="Group_394" data-name="Group 394" transform="translate(118.192 114.145)">
        <path id="Path_513" data-name="Path 513" d="M106.87,93.342A4.124,4.124,0,1,0,111,97.464a4.127,4.127,0,0,0-4.126-4.122m0,13.4a9.281,9.281,0,1,1,9.279-9.283,9.293,9.293,0,0,1-9.279,9.283" transform="translate(-97.587 -88.185)" fill="#fff"/>
      </g>
      <g id="Group_395" data-name="Group 395" transform="translate(136.918 136.737)">
        <path id="Path_514" data-name="Path 514" d="M105.935,95.841a1.705,1.705,0,0,0-1.7,1.7v38.028a1.7,1.7,0,1,0,3.407,0V99.252h11.575a1.706,1.706,0,1,0,0-3.411Zm0,43.177a3.451,3.451,0,0,1-3.446-3.446V97.545a3.451,3.451,0,0,1,3.446-3.446h13.278a3.448,3.448,0,1,1,0,6.9H109.38v34.579a3.451,3.451,0,0,1-3.446,3.446" transform="translate(-102.489 -94.099)" fill="#fff"/>
      </g>
      <g id="Group_396" data-name="Group 396" transform="translate(137.788 137.608)">
        <path id="Path_515" data-name="Path 515" d="M105.3,137.5a2.58,2.58,0,0,1-2.578-2.578V96.9a2.577,2.577,0,0,1,2.578-2.575h13.278a2.577,2.577,0,0,1,0,5.153h-10.7v35.446A2.577,2.577,0,0,1,105.3,137.5" transform="translate(-102.717 -94.327)" fill="#fff"/>
      </g>
      <g id="Group_397" data-name="Group 397" transform="translate(97.606 136.737)">
        <path id="Path_516" data-name="Path 516" d="M95.644,95.841a1.706,1.706,0,0,0,0,3.411h11.7v36.321a1.7,1.7,0,0,0,3.407,0V97.545a1.7,1.7,0,0,0-1.7-1.7Zm13.408,43.177a3.453,3.453,0,0,1-3.453-3.446V100.994H95.644a3.448,3.448,0,0,1,0-6.9h13.408a3.448,3.448,0,0,1,3.442,3.446v38.028a3.448,3.448,0,0,1-3.442,3.446" transform="translate(-92.198 -94.099)" fill="#fff"/>
      </g>
      <g id="Group_398" data-name="Group 398" transform="translate(98.473 137.608)">
        <path id="Path_517" data-name="Path 517" d="M108.408,137.5a2.577,2.577,0,0,1-2.578-2.578V99.48H95a2.577,2.577,0,1,1,0-5.153h13.4a2.573,2.573,0,0,1,2.575,2.575v38.024a2.577,2.577,0,0,1-2.575,2.578" transform="translate(-92.425 -94.327)" fill="#fff"/>
      </g>
      <g id="Group_399" data-name="Group 399" transform="translate(148.645 132.611)">
        <path id="Path_518" data-name="Path 518" d="M113.134,94.761a5.831,5.831,0,1,0,5.833,5.833,5.84,5.84,0,0,0-5.833-5.833m0,13.4a7.573,7.573,0,1,1,7.575-7.571,7.585,7.585,0,0,1-7.575,7.571" transform="translate(-105.559 -93.019)" fill="#fff"/>
      </g>
      <g id="Group_400" data-name="Group 400" transform="translate(149.52 133.482)">
        <path id="Path_519" data-name="Path 519" d="M112.488,93.247a6.7,6.7,0,1,1-6.7,6.7,6.7,6.7,0,0,1,6.7-6.7" transform="translate(-105.788 -93.247)" fill="#fff"/>
      </g>
      <g id="Group_401" data-name="Group 401" transform="translate(146.07 130.033)">
        <path id="Path_520" data-name="Path 520" d="M115.035,99.243a3.253,3.253,0,1,0,3.255,3.255,3.254,3.254,0,0,0-3.255-3.255m0,13.4a10.152,10.152,0,1,1,10.15-10.15,10.159,10.159,0,0,1-10.15,10.15" transform="translate(-104.885 -92.344)" fill="#fff"/>
      </g>
      <g id="Group_402" data-name="Group 402" transform="translate(146.941 130.904)">
        <path id="Path_521" data-name="Path 521" d="M114.392,97.729a4.124,4.124,0,1,0,4.126,4.126,4.13,4.13,0,0,0-4.126-4.126m0,13.4a9.281,9.281,0,1,1,9.279-9.279,9.291,9.291,0,0,1-9.279,9.279" transform="translate(-105.113 -92.572)" fill="#fff"/>
      </g>
      <g id="Group_403" data-name="Group 403" transform="translate(90.902 132.611)">
        <path id="Path_522" data-name="Path 522" d="M98.014,94.761a5.831,5.831,0,1,0,5.833,5.833,5.839,5.839,0,0,0-5.833-5.833m0,13.4a7.573,7.573,0,1,1,7.575-7.571,7.582,7.582,0,0,1-7.575,7.571" transform="translate(-90.443 -93.019)" fill="#fff"/>
      </g>
      <g id="Group_404" data-name="Group 404" transform="translate(91.773 133.482)">
        <path id="Path_523" data-name="Path 523" d="M97.371,93.247a6.7,6.7,0,1,1-6.7,6.7,6.7,6.7,0,0,1,6.7-6.7" transform="translate(-90.671 -93.247)" fill="#fff"/>
      </g>
      <g id="Group_405" data-name="Group 405" transform="translate(88.324 130.033)">
        <path id="Path_524" data-name="Path 524" d="M99.918,99.243a3.253,3.253,0,1,0,3.255,3.255,3.254,3.254,0,0,0-3.255-3.255m0,13.4a10.152,10.152,0,1,1,10.15-10.15,10.159,10.159,0,0,1-10.15,10.15" transform="translate(-89.768 -92.344)" fill="#fff"/>
      </g>
      <g id="Group_406" data-name="Group 406" transform="translate(89.195 130.904)">
        <path id="Path_525" data-name="Path 525" d="M99.275,97.729a4.124,4.124,0,1,0,4.126,4.126,4.128,4.128,0,0,0-4.126-4.126m0,13.4a9.281,9.281,0,1,1,9.279-9.279,9.291,9.291,0,0,1-9.279,9.279" transform="translate(-89.996 -92.572)" fill="#fff"/>
      </g>
      <g id="Group_407" data-name="Group 407" transform="translate(94.352 135.925)">
        <path id="Path_526" data-name="Path 526" d="M99.853,98.144a4.254,4.254,0,0,1-8.507,0A4.205,4.205,0,0,1,95.6,93.893a4.126,4.126,0,0,1,4.252,4.252" transform="translate(-91.346 -93.886)" fill="#fff"/>
      </g>
      <g id="Group_408" data-name="Group 408" transform="translate(123.219 119.166)">
        <path id="Path_527" data-name="Path 527" d="M107.41,93.757a4.254,4.254,0,1,1-8.507,0,4.21,4.21,0,0,1,4.255-4.252,4.126,4.126,0,0,1,4.252,4.252" transform="translate(-98.903 -89.499)" fill="#fff"/>
      </g>
      <g id="Group_409" data-name="Group 409" transform="translate(152.094 135.925)">
        <path id="Path_528" data-name="Path 528" d="M114.969,98.144a4.254,4.254,0,0,1-8.507,0,4.207,4.207,0,0,1,4.255-4.252,4.126,4.126,0,0,1,4.252,4.252" transform="translate(-106.462 -93.886)" fill="#fff"/>
      </g>
    </g>
  </g>
  <g id="Group_412" data-name="Group 412" transform="translate(97.419 239.85)">
    <path id="Path_529" data-name="Path 529" d="M143.707,141.846h0l-2.582-13.855H103.032l-2.582,13.855Zm-51.558,6.9h0L97.3,121.092h49.553L152,148.745Z" transform="translate(-92.149 -121.092)" fill="#fff"/>
  </g>
  <g id="Group_413" data-name="Group 413" transform="translate(98.466 240.725)">
    <path id="Path_530" data-name="Path 530" d="M98.627,142.071h45.355l-2.907-15.6H101.534Zm51.558,5.157H92.423l4.828-25.907H145.36Z" transform="translate(-92.423 -121.321)" fill="#fff"/>
  </g>
  <g id="Group_414" data-name="Group 414" transform="translate(76.592 260.604)">
    <path id="Path_531" data-name="Path 531" d="M90.146,128.271a1.706,1.706,0,1,0,0,3.411h94.739a1.706,1.706,0,0,0,0-3.411Zm94.739,5.153H90.146a3.449,3.449,0,0,1,0-6.9h94.739a3.449,3.449,0,0,1,0,6.9" transform="translate(-86.697 -126.525)" fill="#fff"/>
  </g>
  <g id="Group_415" data-name="Group 415" transform="translate(77.463 261.475)">
    <path id="Path_532" data-name="Path 532" d="M184.243,131.91H89.5a2.578,2.578,0,0,1,0-5.157h94.739a2.578,2.578,0,0,1,0,5.157" transform="translate(-86.925 -126.753)" fill="#fff"/>
  </g>
  <g id="Group_416" data-name="Group 416" transform="translate(62.157 155.684)">
    <path id="Path_533" data-name="Path 533" d="M101.835,100.8A17.191,17.191,0,0,0,84.66,117.972v53.235a17.2,17.2,0,0,0,17.175,17.175h92.8a17.2,17.2,0,0,0,17.175-17.175V117.972A17.191,17.191,0,0,0,194.637,100.8h-23.2a1.706,1.706,0,0,0,0,3.411h23.2a13.776,13.776,0,0,1,13.76,13.76v53.235a13.773,13.773,0,0,1-13.76,13.76h-92.8a13.774,13.774,0,0,1-13.76-13.76V117.972a13.776,13.776,0,0,1,13.76-13.76h23.2a1.706,1.706,0,1,0,0-3.411Zm92.8,89.323h-92.8a18.938,18.938,0,0,1-18.917-18.917V117.972a18.935,18.935,0,0,1,18.917-18.913h23.2a3.448,3.448,0,1,1,0,6.9h-23.2a12.03,12.03,0,0,0-12.018,12.018v53.235a12.03,12.03,0,0,0,12.018,12.018h92.8a12.03,12.03,0,0,0,12.018-12.018V117.972a12.03,12.03,0,0,0-12.018-12.018h-23.2a3.448,3.448,0,0,1,0-6.9h23.2a18.935,18.935,0,0,1,18.917,18.913v53.235a18.938,18.938,0,0,1-18.917,18.917" transform="translate(-82.918 -99.059)" fill="#fff"/>
  </g>
  <g id="Group_417" data-name="Group 417" transform="translate(63.032 156.555)">
    <path id="Path_534" data-name="Path 534" d="M194,188.61H101.189a18.061,18.061,0,0,1-18.042-18.042V117.329a18.061,18.061,0,0,1,18.042-18.042h23.2a2.577,2.577,0,1,1,0,5.153h-23.2A12.905,12.905,0,0,0,88.3,117.329v53.239a12.9,12.9,0,0,0,12.889,12.885H194a12.9,12.9,0,0,0,12.889-12.885V117.329A12.9,12.9,0,0,0,194,104.44h-23.2a2.577,2.577,0,1,1,0-5.153H194a18.061,18.061,0,0,1,18.042,18.042v53.239A18.061,18.061,0,0,1,194,188.61" transform="translate(-83.147 -99.287)" fill="#fff" stroke="#fff" stroke-miterlimit="10" stroke-width="0.75"/>
  </g>
  <g id="Group_418" data-name="Group 418" transform="translate(62.027 217.812)">
    <path id="Path_535" data-name="Path 535" d="M86.333,117.065a1.708,1.708,0,0,0,0,3.415H210.074a1.708,1.708,0,0,0,0-3.415Zm123.741,5.157H86.333a3.449,3.449,0,0,1,0-6.9H210.074a3.449,3.449,0,0,1,0,6.9" transform="translate(-82.884 -115.323)" fill="#fff"/>
  </g>
  <g id="Group_419" data-name="Group 419" transform="translate(62.898 218.68)">
    <path id="Path_536" data-name="Path 536" d="M209.431,120.707H85.69a2.578,2.578,0,0,1,0-5.157h123.74a2.578,2.578,0,1,1,0,5.157" transform="translate(-83.112 -115.55)" fill="#fff"/>
  </g>
  <g id="Group_420" data-name="Group 420" transform="translate(121.16 225.899)">
    <path id="Path_537" data-name="Path 537" d="M104.552,121.306a2.321,2.321,0,1,0,2.323,2.319,2.326,2.326,0,0,0-2.323-2.319m0,8.507a6.186,6.186,0,1,1,6.188-6.188,6.2,6.2,0,0,1-6.188,6.188" transform="translate(-98.364 -117.44)" fill="#fff"/>
  </g>
</svg>
