<svg width="89.547" height="111.944" xmlns="http://www.w3.org/2000/svg">
 <defs>
  <clipPath id="a">
   <rect id="svg_1" fill="none" height="111.945" width="89.547"/>
  </clipPath>
 </defs>
 <g>
  <title>background</title>
  <rect fill="none" id="canvas_background" height="402" width="582" y="-1" x="-1"/>
 </g>
 <g>
  <title>Layer 1</title>
  <g id="svg_2">
   <g id="svg_3" clip-path="url(#a)">
    <g id="svg_4">
     <path stroke="#ffffff" id="svg_5" fill="#ffffff" d="m3.620997,26.915999l82.3,0l0,-18.595a4.732,4.732 0 0 0 -4.733,-4.719l-72.834,0a4.732,4.732 0 0 0 -4.733,4.719l0,18.595zm0,-14.995l0,0l0,36.82a41.153,41.153 0 0 0 82.3,0l0,-18.222l-82.3,-18.598zm41.152,81.425a44.74,44.74 0 0 1 -44.773,-44.6l0,-40.425a8.348,8.348 0 0 1 8.354,-8.325l72.838,0a8.348,8.348 0 0 1 8.354,8.321l0,59.018a44.74,44.74 0 0 1 -44.773,44.6"/>
    </g>
    <g id="svg_6">
     <path stroke="#ffffff" id="svg_7" fill="#ffffff" d="m67.252,9.572002m-0.783,0l0,0zm3.7,1.3l0,0zm-6.631,0zm9.033,6.352l0,0zm-11.433,0.005l0,0zm0.146,0.446l0,0zm0.356,-3.628l0,0l1.631,1.529a2.37,2.37 0 0 1 0.72,2.16l-0.4,2.216l2.136,-1.081a2.529,2.529 0 0 1 2.239,-0.007l2.145,1.087l-0.4,-2.22a2.37,2.37 0 0 1 0.722,-2.159l1.628,-1.529l-2.3,-0.321a2.452,2.452 0 0 1 -1.842,-1.294l-1.075,-2.1l-1.073,2.091a2.447,2.447 0 0 1 -1.846,1.3l-2.285,0.328zm1.353,9.144a2.479,2.479 0 0 1 -1.467,-0.483a2.377,2.377 0 0 1 -0.946,-2.34l0.511,-2.875l-2.169,-2.033a2.371,2.371 0 0 1 -0.642,-2.467a2.418,2.418 0 0 1 1.992,-1.657l3.043,-0.427l1.358,-2.643a2.442,2.442 0 0 1 2.185,-1.325l0,0a2.441,2.441 0 0 1 2.191,1.325l1.356,2.643l3.046,0.427a2.419,2.419 0 0 1 1.992,1.661a2.365,2.365 0 0 1 -0.644,2.463l-2.176,2.04l0.511,2.873a2.372,2.372 0 0 1 -0.945,2.34a2.468,2.468 0 0 1 -2.594,0.216l-2.737,-1.385l-2.736,1.382a2.457,2.457 0 0 1 -1.126,0.272m-40.694,-13.621l0,0zm44.391,14.914zm-6.634,0l0,0zm-0.337,0.243l-0.005,0.007l0.005,-0.007zm-42.595,-7.061l0,0zm42.951,3.433l0,0l1.631,1.532a2.38,2.38 0 0 1 0.722,2.15l-0.4,2.226l2.136,-1.081a2.521,2.521 0 0 1 2.239,-0.007l2.145,1.087l-0.4,-2.22a2.388,2.388 0 0 1 0.725,-2.159l1.628,-1.526l-2.3,-0.324a2.44,2.44 0 0 1 -1.846,-1.3l-1.071,-2.093l-1.074,2.094a2.433,2.433 0 0 1 -1.848,1.3l-2.287,0.321zm9.079,9.147a2.488,2.488 0 0 1 -1.126,-0.27l-2.738,-1.385l-45.338,-5.672a2.458,2.458 0 0 1 -2.595,-0.213a2.369,2.369 0 0 1 -0.948,-2.337l0.51,-2.874l-2.177,-2.042a2.37,2.37 0 0 1 -0.643,-2.466a2.421,2.421 0 0 1 1.992,-1.658l3.046,-0.427l1.36,-2.643a2.443,2.443 0 0 1 2.185,-1.325l0,0a2.454,2.454 0 0 1 2.195,1.325l0,0l1.356,2.643l3.043,0.427a2.426,2.426 0 0 1 1.995,1.661a2.368,2.368 0 0 1 -0.644,2.463l-2.178,2.042l0.51,2.871a2.373,2.373 0 0 1 -0.94,2.338a2.468,2.468 0 0 1 -1.471,0.487m21.539,-12.322l0,0zm-6.639,0l0,0zm6.974,0.234l0,0.008l0,-0.008m2.065,6.119l0,0zm-11.433,0.005l0,0zm11.3,0.439l0,0l0,0m-5.578,0.937a2.469,2.469 0 0 1 1.11,0.259l2.148,1.087l-0.4,-2.22a2.368,2.368 0 0 1 0.729,-2.163l1.624,-1.525l-2.3,-0.321a2.43,2.43 0 0 1 -1.851,-1.312l-1.067,-2.085l-1.074,2.094a2.447,2.447 0 0 1 -1.85,1.3l-2.291,0.321l1.631,1.529a2.372,2.372 0 0 1 0.72,2.16l-0.393,2.216l2.136,-1.083a2.515,2.515 0 0 1 1.124,-0.263m-3.863,4.586a2.467,2.467 0 0 1 -1.469,-0.486a2.375,2.375 0 0 1 -0.944,-2.342l0.51,-2.87l-2.176,-2.04a2.368,2.368 0 0 1 -0.644,-2.463a2.423,2.423 0 0 1 2,-1.661l3.041,-0.427l1.352,-2.635a2.451,2.451 0 0 1 2.191,-1.325l0,0a2.446,2.446 0 0 1 2.185,1.325l1.358,2.643l3.043,0.427a2.421,2.421 0 0 1 1.992,1.658a2.368,2.368 0 0 1 -0.644,2.466l-2.175,2.042l0.511,2.871a2.376,2.376 0 0 1 -0.944,2.34a2.463,2.463 0 0 1 -2.6,0.213l-2.733,-1.383l-2.737,1.385a2.492,2.492 0 0 1 -1.126,0.27"/>
    </g>
    <g id="svg_8">
     <path stroke="#ffffff" id="svg_9" fill="#ffffff" d="m44.796001,42.775001a0.6,0.6 0 0 0 -0.6,0.6l0,19.251a0.6,0.6 0 0 0 1.2,0l0,-19.252a0.6,0.6 0 0 0 -0.6,-0.6m0,21.061a1.213,1.213 0 0 1 -1.211,-1.211l0,-19.25a1.211,1.211 0 1 1 2.422,0l0,19.251a1.213,1.213 0 0 1 -1.211,1.211"/>
    </g>
    <g id="svg_10">
     <path stroke="#ffffff" id="svg_11" fill="#ffffff" d="m44.795997,63.527996a0.906,0.906 0 0 1 -0.906,-0.906l0,-19.248a0.905,0.905 0 1 1 1.811,0l0,19.254a0.905,0.905 0 0 1 -0.9,0.906"/>
    </g>
    <g id="svg_12">
     <path stroke="#ffffff" id="svg_13" fill="#ffffff" d="m44.800002,41.323998a2.049,2.049 0 1 0 2.05,2.048a2.051,2.051 0 0 0 -2.05,-2.048m0,4.71a2.661,2.661 0 1 1 2.662,-2.662a2.666,2.666 0 0 1 -2.662,2.662"/>
    </g>
    <g id="svg_14">
     <path stroke="#ffffff" id="svg_15" fill="#ffffff" d="m44.795998,41.018001a2.355,2.355 0 1 1 -2.356,2.355a2.354,2.354 0 0 1 2.356,-2.355"/>
    </g>
    <g id="svg_16">
     <path stroke="#ffffff" id="svg_17" fill="#ffffff" d="m44.795999,42.229999a1.144,1.144 0 1 0 1.144,1.142a1.144,1.144 0 0 0 -1.144,-1.142m0,4.71a3.567,3.567 0 1 1 3.567,-3.568a3.571,3.571 0 0 1 -3.567,3.568"/>
    </g>
    <g id="svg_18">
     <path stroke="#ffffff" id="svg_19" fill="#ffffff" d="m44.796002,41.927002a1.449,1.449 0 1 0 1.45,1.448a1.45,1.45 0 0 0 -1.45,-1.448m0,4.71a3.261,3.261 0 1 1 3.261,-3.262a3.266,3.266 0 0 1 -3.261,3.262"/>
    </g>
    <g id="svg_20">
     <path stroke="#ffffff" id="svg_21" fill="#ffffff" d="m49.326003,48.663a0.6,0.6 0 0 0 -0.6,0.6l0,13.363a0.6,0.6 0 0 0 1.2,0l0,-12.764l4.067,0a0.6,0.6 0 1 0 0,-1.2l-4.667,0.001zm4.667,15.172a1.213,1.213 0 0 1 -1.211,-1.211l0,-13.362a1.213,1.213 0 0 1 -3.456,-1.21l4.666,0a1.212,1.212 0 1 1 0,2.423l-3.455,0l0,12.151a1.213,1.213 0 0 1 -1.211,1.211"/>
    </g>
    <g id="svg_22">
     <path stroke="#ffffff" id="svg_23" fill="#ffffff" d="m49.326999,63.529995a0.907,0.907 0 0 1 -0.906,-0.906l0,-13.362a0.905,0.905 0 0 1 0.906,-0.9l4.666,0a0.905,0.905 0 0 1 0,1.811l-3.761,0l0,12.456a0.905,0.905 0 0 1 -0.9,0.906"/>
    </g>
    <g id="svg_24">
     <path stroke="#ffffff" id="svg_25" fill="#ffffff" d="m35.511001,48.663a0.6,0.6 0 0 0 0,1.2l4.112,0l0,12.763a0.6,0.6 0 0 0 1.2,0l0,-13.364a0.6,0.6 0 0 0 -0.6,-0.6l-4.712,0.001zm9.424,15.172a1.213,1.213 0 0 1 -1.214,-1.211l0,-12.15l-3.5,0a1.212,1.212 0 0 1 0,-2.423l4.712,0a1.212,1.212 0 0 1 -3.501,1.211l0,13.363a1.212,1.212 0 0 1 -1.209,1.211"/>
    </g>
    <g id="svg_26">
     <path stroke="#ffffff" id="svg_27" fill="#ffffff" d="m40.221996,63.529995a0.906,0.906 0 0 1 -0.906,-0.906l0,-12.456l-3.8,0a0.905,0.905 0 1 1 0,-1.811l4.71,0a0.9,0.9 0 0 1 0.9,0.9l0,13.362a0.905,0.905 0 0 1 -0.9,0.906"/>
    </g>
    <g id="svg_28">
     <path stroke="#ffffff" id="svg_29" fill="#ffffff" d="m54.898002,47.213005a2.049,2.049 0 1 0 2.05,2.05a2.052,2.052 0 0 0 -2.05,-2.05m0,4.71a2.661,2.661 0 1 1 2.662,-2.661a2.665,2.665 0 0 1 -2.662,2.661"/>
    </g>
    <g id="svg_30">
     <path stroke="#ffffff" id="svg_31" fill="#ffffff" d="m54.897997,46.907a2.355,2.355 0 1 1 -2.355,2.356a2.355,2.355 0 0 1 2.355,-2.356"/>
    </g>
    <g id="svg_32">
     <path stroke="#ffffff" id="svg_33" fill="#ffffff" d="m54.897999,48.118998a1.143,1.143 0 1 0 1.144,1.144a1.143,1.143 0 0 0 -1.144,-1.144m0,4.71a3.567,3.567 0 1 1 3.567,-3.567a3.57,3.57 0 0 1 -3.567,3.567"/>
    </g>
    <g id="svg_34">
     <path stroke="#ffffff" id="svg_35" fill="#ffffff" d="m54.898002,47.813001a1.449,1.449 0 1 0 1.45,1.45a1.451,1.451 0 0 0 -1.45,-1.45m0,4.71a3.261,3.261 0 1 1 3.261,-3.261a3.265,3.265 0 0 1 -3.261,3.261"/>
    </g>
    <g id="svg_36">
     <path stroke="#ffffff" id="svg_37" fill="#ffffff" d="m34.600999,47.213005a2.049,2.049 0 1 0 2.05,2.05a2.052,2.052 0 0 0 -2.05,-2.05m0,4.71a2.661,2.661 0 1 1 2.662,-2.661a2.664,2.664 0 0 1 -2.662,2.662"/>
    </g>
    <g id="svg_38">
     <path stroke="#ffffff" id="svg_39" fill="#ffffff" d="m34.605002,46.907a2.355,2.355 0 1 1 -2.355,2.353a2.355,2.355 0 0 1 2.355,-2.356"/>
    </g>
    <g id="svg_40">
     <path stroke="#ffffff" id="svg_41" fill="#ffffff" d="m34.605002,48.118998a1.143,1.143 0 1 0 1.144,1.144a1.144,1.144 0 0 0 -1.144,-1.144m0,4.71a3.567,3.567 0 1 1 3.565,-3.566a3.57,3.57 0 0 1 -3.567,3.567"/>
    </g>
    <g id="svg_42">
     <path stroke="#ffffff" id="svg_43" fill="#ffffff" d="m34.604998,47.813001a1.449,1.449 0 1 0 1.45,1.45a1.451,1.451 0 0 0 -1.45,-1.45m0,4.71a3.261,3.261 0 1 1 3.261,-3.261a3.265,3.265 0 0 1 -3.261,3.261"/>
    </g>
    <g id="svg_44">
     <path stroke="#ffffff" id="svg_45" fill="#ffffff" d="m36.144998,49.261998a1.495,1.495 0 0 1 -2.99,0a1.478,1.478 0 0 1 1.5,-1.494a1.45,1.45 0 0 1 1.494,1.494"/>
    </g>
    <g id="svg_46">
     <path stroke="#ffffff" id="svg_47" fill="#ffffff" d="m46.289999,43.376999a1.495,1.495 0 1 1 -2.992,0a1.479,1.479 0 0 1 1.5,-1.494a1.45,1.45 0 0 1 1.492,1.494"/>
    </g>
    <g id="svg_48">
     <path stroke="#ffffff" id="svg_49" fill="#ffffff" d="m56.437004,49.261998a1.495,1.495 0 0 1 -2.99,0a1.479,1.479 0 0 1 1.5,-1.494a1.45,1.45 0 0 1 1.494,1.494"/>
    </g>
   </g>
  </g>
  <g id="svg_50">
   <path stroke="#ffffff" id="svg_51" fill="#ffffff" d="m52.351999,91.579l0,0l-0.907,-4.869l-13.387,0l-0.907,4.869l15.201,0zm-18.118,2.425l0,0l1.811,-9.718l17.413,0l1.81,9.718l-21.034,0z"/>
  </g>
  <g id="svg_52">
   <path stroke="#ffffff" id="svg_53" fill="#ffffff" d="m36.779005,91.885003l15.938,0l-1.022,-5.481l-13.9,0l-1.016,5.481zm19.134,-3.669l-20.3,0l1.7,-9.1l16.906,0l1.694,9.1z"/>
  </g>
  <g id="svg_54">
   <path stroke="#ffffff" id="svg_55" fill="#ffffff" d="m28.128002,92.192001a0.6,0.6 0 1 0 0,1.2l33.291,0a0.6,0.6 0 0 0 0,-1.2l-33.291,0zm66.584,1.811l-66.584,0a1.212,1.212 0 1 1 0,-2.424l33.291,0a1.212,1.212 0 0 1 0,2.424"/>
  </g>
  <g id="svg_56">
   <path stroke="#ffffff" id="svg_57" fill="#ffffff" d="m61.420997,93.697004l-33.293,0a0.906,0.906 0 0 1 0,-1.812l33.293,0a0.906,0.906 0 0 1 0,1.812"/>
  </g>
  <g id="svg_58">
   <path stroke="#ffffff" id="svg_59" fill="#ffffff" d="m28.491001,55.321002a6.041,6.041 0 0 0 -6.035,6.034l0,18.708a6.042,6.042 0 0 0 6.035,6.035l32.612,0a6.042,6.042 0 0 0 6.035,-6.035l0,-18.708a6.041,6.041 0 0 0 -6.035,-6.034l-8.154,0a0.6,0.6 0 0 0 0,1.2l8.154,0a4.841,4.841 0 0 1 4.835,4.835l0,18.708a4.84,4.84 0 0 1 -4.835,4.835l-32.612,0a4.84,4.84 0 0 1 -4.835,-4.835l0,-18.709a4.841,4.841 0 0 1 4.835,-4.835l8.152,0a0.6,0.6 0 1 0 0,-1.2l-8.152,0.001zm40.764,31.388l-40.764,0a6.655,6.655 0 0 1 -6.648,-6.648l0,-18.706a6.654,6.654 0 0 1 6.648,-6.646l8.152,0a1.212,1.212 0 1 1 0,2.423l-8.152,0a4.227,4.227 0 0 0 -4.223,4.223l0,18.708a4.227,4.227 0 0 0 4.223,4.223l32.612,0a4.227,4.227 0 0 0 4.223,-4.223l0,-18.708a4.227,4.227 0 0 0 -4.223,-4.223l-8.154,0a1.212,1.212 0 0 1 0,-2.423l8.154,0a6.654,6.654 0 0 1 6.647,6.646l0,18.708a6.655,6.655 0 0 1 -6.647,6.648"/>
  </g>
  <g id="svg_60">
   <path id="svg_61" stroke-width="0.75" stroke-miterlimit="10" stroke="#ffffff" fill="#ffffff" d="m61.102996,86.403997l-32.613,0a6.347,6.347 0 0 1 -6.34,-6.34l0,-18.709a6.347,6.347 0 0 1 6.34,-6.34l8.154,0a0.905,0.905 0 1 1 0,1.811l-8.154,0a4.535,4.535 0 0 0 -4.529,4.529l0,18.709a4.534,4.534 0 0 0 4.529,4.528l32.613,0a4.533,4.533 0 0 0 4.529,-4.528l0,-18.709a4.534,4.534 0 0 0 -4.529,-4.527l-8.154,0a0.905,0.905 0 1 1 0,-1.811l8.154,0a6.347,6.347 0 0 1 6.34,6.34l0,18.709a6.347,6.347 0 0 1 -6.34,6.34"/>
  </g>
  <g id="svg_62">
   <path stroke="#ffffff" id="svg_63" fill="#ffffff" d="m23.012998,77.154002a0.6,0.6 0 1 0 0,1.2l43.48,0a0.6,0.6 0 0 0 0,-1.2l-43.48,0zm86.964,1.812l-86.964,0a1.212,1.212 0 1 1 0,-2.424l43.48,0a1.212,1.212 0 0 1 0,2.424"/>
  </g>
  <g id="svg_64">
   <path stroke="#ffffff" id="svg_65" fill="#ffffff" d="m66.491001,78.657998l-43.482,0a0.906,0.906 0 1 1 0,-1.812l43.482,0a0.906,0.906 0 1 1 0,1.812"/>
  </g>
  <g id="svg_66">
   <path stroke="#ffffff" id="svg_67" fill="#ffffff" d="m44.752001,80.744a0.815,0.815 0 1 0 0.816,0.815a0.817,0.817 0 0 0 -0.816,-0.815m0,2.989a2.174,2.174 0 1 1 2.175,-2.175a2.178,2.178 0 0 1 -2.175,2.175"/>
  </g>
 </g>
</svg>