<svg width="155" height="156" viewBox="0 0 155 156" fill="none" xmlns="http://www.w3.org/2000/svg">
<path d="M155 0H0L155 156V0Z" fill="#F2CB00"/>
<path d="M69.7458 36.1594C68.7253 37.0892 67.6092 37.5241 66.3974 37.4641C65.1899 37.4082 64.0424 36.8637 62.9548 35.8307C61.7652 34.7008 61.2077 33.4117 61.2824 31.9633C61.3653 30.5147 62.0705 29.0915 63.3981 27.6938L63.9368 27.1266C64.7842 26.2345 65.6879 25.5978 66.6479 25.2167C67.608 24.8355 68.5505 24.7408 69.4755 24.9325C70.4088 25.124 71.2621 25.587 72.0353 26.3214C73.1059 27.3383 73.696 28.4442 73.8055 29.6391C73.915 30.8341 73.5284 31.9983 72.6458 33.1318L70.734 31.3159C71.2562 30.6725 71.5 30.0798 71.4653 29.5377C71.4389 28.9955 71.1326 28.4459 70.5463 27.8891C69.909 27.2838 69.2132 27.0592 68.4588 27.2154C67.7126 27.3714 66.8793 27.9254 65.9588 28.8775L65.293 29.5785C64.3407 30.5811 63.7955 31.4572 63.6573 32.2068C63.5233 32.9604 63.7835 33.6479 64.4377 34.2694C65.0282 34.8303 65.5951 35.1141 66.1382 35.1208C66.6896 35.1274 67.2549 34.8683 67.834 34.3436L69.7458 36.1594ZM70.9929 36.5439C71.6425 35.8599 72.3533 35.3753 73.1251 35.0902C73.897 34.8051 74.6685 34.75 75.4398 34.9249C76.2153 35.1039 76.9302 35.5041 77.5844 36.1255C78.5148 37.0093 79.0028 38.0142 79.0484 39.1403C79.0982 40.2705 78.693 41.3565 77.8329 42.3982L77.3977 42.8819C76.393 43.9397 75.2907 44.509 74.0908 44.5896C72.895 44.6659 71.8 44.232 70.8059 43.2878C69.8117 42.3435 69.3199 41.2703 69.3304 40.0681C69.3452 38.8699 69.8731 37.7228 70.9142 36.6267L70.9929 36.5439ZM72.7075 38.427C72.086 39.0812 71.7331 39.6996 71.6486 40.282C71.5682 40.8601 71.7574 41.3671 72.2162 41.8029C72.6623 42.2266 73.1721 42.3876 73.7455 42.2858C74.323 42.1797 74.9689 41.7507 75.6831 40.9988C76.2925 40.3572 76.6393 39.7411 76.7235 39.1504C76.8078 38.5597 76.6226 38.0485 76.1681 37.6167C75.7177 37.189 75.2019 37.0344 74.6206 37.153C74.0433 37.2673 73.4056 37.692 72.7075 38.427ZM83.5684 42.0516L82.8691 42.9027C83.947 42.7547 84.9002 43.0742 85.7287 43.8611C86.4594 44.5551 86.7994 45.2862 86.7487 46.0542C86.698 46.8223 86.2714 47.6373 85.4688 48.4993L81.2379 52.9538L79.3962 51.2045L83.5848 46.7947C83.956 46.4038 84.1394 46.0406 84.1349 45.705C84.1344 45.3651 83.9366 45.0076 83.5415 44.6323C83.0232 44.14 82.4247 43.9917 81.7458 44.1874L77.1275 49.0497L75.2858 47.3005L81.835 40.4052L83.5684 42.0516ZM88.184 55.927C88.3979 55.7018 88.4528 55.4186 88.3487 55.0772C88.2528 54.7357 88.0069 54.2799 87.611 53.7099C86.2979 51.8082 86.1398 50.3326 87.1365 49.2832C87.7175 48.6715 88.4545 48.4018 89.3475 48.4741C90.2487 48.5462 91.1093 48.9717 91.9293 49.7505C92.8044 50.5817 93.3076 51.4516 93.4387 52.36C93.5741 53.2725 93.3291 54.058 92.7036 54.7165L90.8619 52.9672C91.1121 52.7038 91.2329 52.4064 91.2244 52.0751C91.2199 51.7395 91.0371 51.4002 90.676 51.0572C90.3659 50.7626 90.0592 50.6047 89.7561 50.5835C89.453 50.5623 89.1986 50.66 88.9928 50.8767C88.7991 51.0806 88.7373 51.3371 88.8075 51.6462C88.8859 51.955 89.1101 52.374 89.4801 52.9033C89.8542 53.4283 90.144 53.8975 90.3494 54.3108C90.9834 55.5917 90.8827 56.6719 90.0474 57.5514C89.4502 58.1801 88.6962 58.4337 87.7854 58.3121C86.8786 58.1862 85.9983 57.7177 85.1443 56.9067C84.5666 56.3579 84.1493 55.7676 83.8927 55.136C83.6443 54.5041 83.5622 53.8887 83.6462 53.2897C83.7343 52.6865 83.9761 52.1767 84.3715 51.7603L86.1177 53.4188C85.8239 53.7621 85.7069 54.1277 85.7667 54.5158C85.8264 54.9039 86.0453 55.2774 86.4234 55.6366C86.776 55.9715 87.1041 56.1579 87.4076 56.1956C87.7194 56.2332 87.9782 56.1436 88.184 55.927ZM99.7208 54.1691L98.1108 55.8642L99.2897 56.984L98.0065 58.335L96.8276 57.2152L93.559 60.6564C93.3169 60.9113 93.1922 61.1404 93.185 61.3437C93.1778 61.547 93.3123 61.7798 93.5885 62.042C93.7924 62.2357 93.9871 62.3924 94.1725 62.5119L92.8469 63.9075C92.3809 63.675 91.9567 63.3771 91.5743 63.014C90.2828 61.7873 90.2437 60.5097 91.457 59.1812L94.9859 55.4659L93.979 54.5096L95.2622 53.1586L96.2691 54.1149L97.8791 52.4198L99.7208 54.1691ZM102.55 63.3656C102.332 63.0935 102.127 62.8667 101.936 62.6851C101.239 62.0233 100.558 61.8254 99.8936 62.0911L95.6082 66.603L93.7665 64.8537L100.316 57.9585L102.055 59.6109L101.326 60.4814C102.296 60.1995 103.109 60.3692 103.763 60.9906C103.967 61.1843 104.132 61.3935 104.258 61.6182L102.55 63.3656ZM103.329 72.6025C102.349 72.723 101.458 72.4019 100.655 71.6393C99.9162 70.9371 99.5529 70.188 99.5655 69.392C99.5825 68.5999 99.9761 67.7899 100.746 66.9619L105.038 62.4436L106.88 64.1929L102.649 68.6474C101.967 69.3654 101.953 70.0351 102.607 70.6565C103.232 71.2497 103.866 71.4406 104.512 71.2292L109.148 66.3477L110.996 68.1031L104.447 74.9983L102.714 73.3519L103.329 72.6025ZM109.993 77.6842C110.333 78.007 110.698 78.1758 111.088 78.1907C111.478 78.2055 111.825 78.0619 112.128 77.7598L113.855 79.4001C113.406 79.8634 112.871 80.1715 112.25 80.3242C111.632 80.4728 111.001 80.4475 110.358 80.2486C109.723 80.0494 109.142 79.6996 108.615 79.1993C107.629 78.2631 107.148 77.2124 107.172 76.0472C107.2 74.8777 107.739 73.7406 108.788 72.636L108.903 72.515C109.912 71.4528 110.999 70.8736 112.165 70.7773C113.332 70.681 114.408 71.1009 115.393 72.0371C116.256 72.8562 116.712 73.7583 116.762 74.7435C116.821 75.7284 116.467 76.6327 115.701 77.4565L113.974 75.8161C114.304 75.4512 114.468 75.0574 114.466 74.6347C114.467 74.2078 114.294 73.8289 113.945 73.498C113.516 73.0904 113.042 72.9389 112.522 73.0435C112.011 73.1478 111.422 73.5505 110.757 74.2515L110.575 74.4427C109.901 75.1521 109.525 75.7649 109.447 76.2808C109.369 76.7967 109.551 77.2645 109.993 77.6842ZM123.006 76.2862L121.396 77.9813L122.575 79.1011L121.292 80.4521L120.113 79.3323L116.845 82.7735C116.603 83.0284 116.478 83.2575 116.471 83.4608C116.464 83.6641 116.598 83.8968 116.874 84.1591C117.078 84.3528 117.273 84.5094 117.458 84.629L116.133 86.0246C115.667 85.7921 115.242 85.4942 114.86 85.1311C113.568 83.9044 113.529 82.6268 114.743 81.2983L118.272 77.583L117.265 76.6267L118.548 75.2757L119.555 76.232L121.165 74.5369L123.006 76.2862ZM118.996 88.8169L117.148 87.0616L123.697 80.1664L125.545 81.9217L118.996 88.8169ZM125.283 78.2791C125.546 78.003 125.853 77.8624 126.205 77.8575C126.562 77.8566 126.899 78.0075 127.218 78.3102C127.532 78.6088 127.698 78.9361 127.715 79.292C127.733 79.648 127.61 79.9641 127.348 80.2402C127.082 80.5206 126.768 80.6593 126.408 80.6561C126.051 80.657 125.718 80.5102 125.408 80.2156C125.098 79.921 124.932 79.5937 124.91 79.2337C124.893 78.8777 125.017 78.5595 125.283 78.2791ZM123.567 86.4798C124.217 85.7958 124.928 85.3113 125.7 85.0261C126.471 84.741 127.243 84.6859 128.014 84.8609C128.79 85.0399 129.505 85.4401 130.159 86.0615C131.089 86.9452 131.577 87.9501 131.623 89.0763C131.673 90.2065 131.267 91.2924 130.407 92.3341L129.972 92.8178C128.967 93.8757 127.865 94.4449 126.665 94.5255C125.469 94.6019 124.374 94.168 123.38 93.2237C122.386 92.2795 121.894 91.2063 121.905 90.0041C121.92 88.8059 122.447 87.6588 123.489 86.5627L123.567 86.4798ZM125.282 88.3629C124.66 89.0172 124.307 89.6355 124.223 90.2179C124.143 90.7961 124.332 91.3031 124.791 91.7389C125.237 92.1626 125.746 92.3235 126.32 92.2217C126.897 92.1157 127.543 91.6867 128.258 90.9347C128.867 90.2932 129.214 89.6771 129.298 89.0864C129.382 88.4957 129.197 87.9845 128.742 87.5527C128.292 87.125 127.776 86.9704 127.195 87.089C126.618 87.2033 125.98 87.6279 125.282 88.3629ZM136.143 91.9876L135.443 92.8386C136.521 92.6907 137.475 93.0102 138.303 93.797C139.034 94.4911 139.374 95.2221 139.323 95.9902C139.272 96.7582 138.846 97.5733 138.043 98.4353L133.812 102.89L131.971 101.14L136.159 96.7306C136.53 96.3398 136.714 95.9765 136.709 95.6409C136.709 95.3011 136.511 94.9435 136.116 94.5683C135.598 94.076 134.999 93.9277 134.32 94.1233L129.702 98.9857L127.86 97.2364L134.409 90.3412L136.143 91.9876Z" fill="#544F4F"/>
<path d="M115.013 30.5626L109.208 36.674C108.244 37.6894 107.162 38.1897 105.964 38.1749C104.77 38.1642 103.623 37.6363 102.523 36.5912C101.439 35.5622 100.851 34.4583 100.759 33.2795C100.666 32.1006 101.09 31.0039 102.029 29.9891L107.901 23.8076L109.813 25.6235L103.996 31.7476C103.419 32.3551 103.141 32.9363 103.164 33.4911C103.195 34.0457 103.467 34.5671 103.981 35.0554C105.056 36.0763 106.139 36.0298 107.229 34.9158L113.094 28.7407L115.013 30.5626ZM115.891 35.93L115.191 36.7811C116.269 36.6332 117.222 36.9526 118.051 37.7395C118.782 38.4336 119.122 39.1646 119.071 39.9327C119.02 40.7007 118.594 41.5157 117.791 42.3777L113.56 46.8322L111.718 45.083L115.907 40.6731C116.278 40.2822 116.462 39.919 116.457 39.5834C116.457 39.2436 116.259 38.886 115.864 38.5107C115.345 38.0184 114.747 37.8701 114.068 38.0658L109.45 42.9281L107.608 41.1789L114.157 34.2837L115.891 35.93ZM117.998 44.3929C119.019 43.318 120.072 42.69 121.158 42.5087C122.247 42.3314 123.211 42.6403 124.048 43.4352C124.719 44.0728 125.035 44.85 124.997 45.767L128.338 42.2493L130.186 44.0046L120.889 53.793L119.225 52.2132L119.832 51.3956C118.829 51.5333 117.966 51.2592 117.244 50.5732C116.432 49.8025 116.083 48.8645 116.195 47.7591C116.316 46.6535 116.917 45.5315 117.998 44.3929ZM119.713 46.276C119.1 46.9218 118.742 47.5236 118.64 48.0816C118.539 48.6396 118.702 49.1224 119.131 49.5299C119.701 50.0707 120.33 50.212 121.02 49.9538L123.604 47.2327C123.831 46.5347 123.662 45.9174 123.097 45.3807C122.209 44.5373 121.081 44.8358 119.713 46.276ZM125.369 58.2906C124.358 57.3302 123.828 56.2373 123.78 55.0117C123.736 53.7902 124.204 52.6632 125.185 51.6309L125.354 51.4524C126.012 50.7599 126.733 50.2689 127.517 49.9793C128.305 49.6855 129.083 49.624 129.85 49.7949C130.625 49.9656 131.327 50.3496 131.956 50.9468C132.899 51.8426 133.358 52.8442 133.333 53.9514C133.312 55.0627 132.782 56.1643 131.745 57.2561L131.031 58.0081L126.64 53.8377C126.272 54.3445 126.108 54.8751 126.147 55.4295C126.19 55.9879 126.441 56.485 126.9 56.9208C127.61 57.5947 128.408 57.8642 129.296 57.7295L129.238 59.6022C128.591 59.7308 127.926 59.6816 127.245 59.4546C126.568 59.2234 125.942 58.8354 125.369 58.2906ZM130.533 52.4319C130.168 52.0849 129.754 51.9257 129.29 51.9542C128.831 51.9867 128.351 52.2021 127.852 52.6004L130.414 55.0337L130.553 54.8871C130.932 54.4712 131.12 54.0519 131.117 53.6292C131.119 53.2023 130.924 52.8032 130.533 52.4319ZM138.16 60.3673C137.942 60.0952 137.737 59.8684 137.546 59.6868C136.849 59.025 136.169 58.827 135.504 59.0928L131.219 63.6047L129.377 61.8554L135.926 54.9602L137.666 56.6126L136.936 57.4831C137.907 57.2011 138.72 57.3709 139.374 57.9923C139.578 58.186 139.743 58.3952 139.869 58.6199L138.16 60.3673Z" fill="#544F4F"/>
</svg>
