<svg width="156" height="151" viewBox="0 0 156 151" fill="none" xmlns="http://www.w3.org/2000/svg">
<path d="M155 151H-9.15527e-05L155 -3.05176e-05V151Z" fill="#EE312F"/>
<path d="M61.8663 141.871C60.9735 140.999 60.3681 140.03 60.05 138.964C59.7233 137.89 59.7022 136.822 59.9867 135.757C60.2709 134.676 60.8407 133.698 61.6959 132.822C62.744 131.749 63.9244 131.107 65.2372 130.897C66.55 130.686 67.8216 130.93 69.0518 131.628L66.6873 134.049C66.1335 133.86 65.5944 133.837 65.0699 133.979C64.5539 134.112 64.0904 134.389 63.6796 134.81C63.0172 135.488 62.7167 136.268 62.778 137.15C62.8393 138.032 63.2649 138.859 64.0547 139.63C64.8445 140.401 65.6809 140.807 66.5639 140.848C67.4469 140.888 68.2196 140.569 68.882 139.891C69.2928 139.47 69.5588 139.001 69.68 138.482C69.8096 137.954 69.7735 137.415 69.5718 136.866L71.9363 134.445C72.6634 135.659 72.9372 136.924 72.7575 138.242C72.5693 139.551 71.9512 140.742 70.9031 141.815C70.0479 142.69 69.0876 143.287 68.0221 143.605C66.9564 143.906 65.8873 143.911 64.8146 143.618C63.7419 143.325 62.7592 142.743 61.8663 141.871ZM79.6414 132.945C78.9538 133.649 78.1832 134.138 77.3293 134.411C76.4838 134.675 75.6228 134.698 74.7462 134.479C73.8779 134.252 73.0704 133.774 72.3235 133.044C71.5852 132.323 71.0963 131.527 70.8569 130.656C70.6089 129.776 70.6114 128.906 70.8643 128.046C71.1172 127.186 71.5874 126.404 72.275 125.7C72.9625 124.996 73.7332 124.508 74.5871 124.235C75.4409 123.961 76.3104 123.938 77.1956 124.166C78.0723 124.384 78.8797 124.854 79.618 125.575C80.3563 126.296 80.8453 127.101 81.0849 127.989C81.3243 128.86 81.3133 129.73 81.052 130.599C80.7991 131.459 80.3289 132.241 79.6414 132.945ZM77.7355 131.084C78.1464 130.663 78.3398 130.156 78.3158 129.562C78.3002 128.96 78.0048 128.378 77.4297 127.816C76.8545 127.254 76.2698 126.968 75.6757 126.958C75.09 126.94 74.5917 127.141 74.1808 127.562C73.7616 127.991 73.5682 128.498 73.6005 129.083C73.6243 129.66 73.9281 130.233 74.5118 130.804C75.087 131.365 75.6633 131.66 76.2407 131.687C76.8264 131.705 77.3247 131.504 77.7355 131.084ZM81.3651 116.444C82.1868 115.603 83.1155 115.202 84.1512 115.241C85.1867 115.262 86.181 115.738 87.1339 116.669L91.3319 120.769L89.1938 122.958L85.292 119.148C84.8112 118.678 84.3162 118.438 83.8069 118.427C83.2977 118.416 82.8376 118.621 82.4268 119.041C82.0159 119.462 81.822 119.927 81.845 120.436C81.8679 120.945 82.1198 121.434 82.6006 121.903L86.5024 125.714L84.3517 127.916L77.1662 120.898L79.3169 118.696L80.2698 119.627C80.1701 119.093 80.2146 118.55 80.4033 117.996C80.5833 117.434 80.9039 116.917 81.3651 116.444ZM95.7843 116.416C95.1722 117.043 94.5199 117.496 93.8274 117.776C93.1348 118.056 92.4657 118.157 91.8198 118.08C91.1654 117.994 90.5896 117.742 90.0925 117.324L92.218 115.148C92.4921 115.365 92.807 115.446 93.1628 115.391C93.5185 115.336 93.8431 115.158 94.1366 114.858C94.4049 114.583 94.5588 114.322 94.5983 114.076C94.6377 113.812 94.5715 113.597 94.3998 113.429C94.1937 113.228 93.9387 113.188 93.6347 113.311C93.322 113.425 92.8708 113.663 92.2811 114.027C91.6579 114.424 91.1142 114.732 90.65 114.95C90.1773 115.159 89.6777 115.25 89.1512 115.222C88.6162 115.186 88.104 114.929 87.6147 114.451C87.2026 114.048 86.9381 113.572 86.8213 113.022C86.7043 112.455 86.7609 111.856 86.9911 111.225C87.2296 110.586 87.6465 109.961 88.2418 109.352C89.1222 108.451 90.0371 107.96 90.9866 107.881C91.9445 107.793 92.8303 108.072 93.6441 108.715L91.6569 110.75C91.3744 110.541 91.068 110.46 90.7376 110.506C90.4155 110.544 90.1078 110.713 89.8144 111.014C89.5628 111.271 89.4215 111.519 89.3903 111.757C89.3506 111.986 89.4166 112.185 89.5883 112.353C89.7943 112.554 90.0537 112.598 90.3663 112.484C90.6873 112.361 91.1257 112.118 91.6815 111.755C92.3387 111.357 92.8995 111.058 93.3638 110.857C93.8196 110.648 94.3193 110.566 94.8629 110.61C95.4063 110.638 95.9312 110.89 96.4375 111.368C96.8582 111.779 97.1185 112.268 97.2186 112.835C97.3184 113.386 97.2448 113.977 96.9976 114.607C96.7589 115.23 96.3544 115.833 95.7843 116.416ZM101.884 106.23L103.751 108.054L102.657 109.174C101.877 109.972 101.076 110.406 100.253 110.475C99.4226 110.536 98.565 110.134 97.6808 109.271L94.822 106.479L93.9668 107.354L92.1382 105.569L92.9934 104.693L91.2421 102.982L93.3928 100.78L95.1441 102.491L96.5527 101.049L98.3813 102.835L96.9726 104.277L99.8572 107.094C100.072 107.304 100.277 107.403 100.472 107.392C100.667 107.381 100.882 107.256 101.116 107.015L101.884 106.23ZM101.111 98.7768C100.968 98.1336 100.973 97.5098 101.128 96.9055C101.273 96.2928 101.576 95.7503 102.038 95.2782L104.368 97.5546L103.777 98.1598C103.241 98.7092 102.958 99.2387 102.93 99.7482C102.894 100.249 103.172 100.789 103.764 101.368L107.099 104.625L104.949 106.827L97.7632 99.8092L99.9138 97.6072L101.111 98.7768ZM110.073 87.2057L117.258 94.2236L115.107 96.4256L114.129 95.4698C114.228 96.0032 114.188 96.5595 114.008 97.1387C113.828 97.7009 113.512 98.2138 113.059 98.6773C112.523 99.2268 111.929 99.5944 111.277 99.7803C110.618 99.9578 109.943 99.9361 109.253 99.7151C108.563 99.4941 107.905 99.0776 107.278 98.4655L103.08 94.3655L105.218 92.1764L109.12 95.9871C109.6 96.4567 110.095 96.6969 110.605 96.7079C111.114 96.7188 111.574 96.514 111.985 96.0933C112.404 95.6641 112.602 95.195 112.579 94.6862C112.556 94.1773 112.304 93.6881 111.824 93.2185L107.922 89.4078L110.073 87.2057ZM114.782 89.5708C114.036 88.8414 113.53 88.0539 113.265 87.2084C113.009 86.3544 112.995 85.5102 113.223 84.6759C113.459 83.833 113.921 83.0596 114.608 82.3556C115.489 81.4542 116.458 80.9336 117.517 80.7938C118.585 80.6455 119.64 80.8961 120.683 81.5457L118.394 83.8893C117.652 83.5502 117.004 83.6639 116.451 84.2305C116.056 84.634 115.901 85.111 115.984 85.6616C116.058 86.2038 116.387 86.76 116.971 87.3302C117.555 87.9003 118.123 88.2203 118.675 88.2902C119.219 88.3516 119.688 88.1806 120.082 87.7771C120.635 87.2105 120.734 86.5602 120.377 85.8261L122.666 83.4825C123.323 84.493 123.594 85.5378 123.48 86.6169C123.365 87.696 122.872 88.6819 122 89.5747C121.312 90.2787 120.55 90.7586 119.713 91.0146C118.884 91.262 118.04 91.2677 117.18 91.0318C116.329 90.7873 115.529 90.3003 114.782 89.5708ZM128.462 79.0167L130.329 80.8403L129.235 81.9606C128.455 82.759 127.654 83.1928 126.832 83.2619C126.001 83.3226 125.143 82.9212 124.259 82.0575L121.4 79.2655L120.545 80.1411L118.717 78.3552L119.572 77.4796L117.82 75.7691L119.971 73.5671L121.722 75.2776L123.131 73.8353L124.96 75.6212L123.551 77.0635L126.435 79.8807C126.65 80.0903 126.855 80.1897 127.05 80.1789C127.245 80.1681 127.46 80.0426 127.695 79.8022L128.462 79.0167ZM124.676 70.759C124.299 71.1453 123.877 71.3539 123.411 71.3849C122.944 71.3989 122.544 71.2424 122.209 70.9154C121.865 70.58 121.699 70.1831 121.711 69.7248C121.722 69.2494 121.917 68.8186 122.294 68.4323C122.663 68.0545 123.081 67.8587 123.547 67.8447C124.014 67.8137 124.418 67.9659 124.762 68.3013C125.097 68.6283 125.258 69.0295 125.247 69.5048C125.235 69.9632 125.045 70.3813 124.676 70.759ZM126.492 70.3939L133.678 77.4117L131.527 79.6137L124.342 72.5959L126.492 70.3939ZM138.534 72.6457C137.846 73.3497 137.076 73.8382 136.222 74.1114C135.376 74.3759 134.515 74.3988 133.639 74.1801C132.77 73.9527 131.963 73.4743 131.216 72.7449C130.478 72.0238 129.989 71.2276 129.749 70.3564C129.501 69.4768 129.504 68.607 129.757 67.7469C130.01 66.8869 130.48 66.1049 131.167 65.4009C131.855 64.6969 132.626 64.2084 133.479 63.9353C134.333 63.6621 135.203 63.6391 136.088 63.8663C136.965 64.085 137.772 64.555 138.51 65.276C139.249 65.9971 139.738 66.8017 139.977 67.6899C140.217 68.5611 140.206 69.4311 139.944 70.2997C139.691 71.1598 139.221 71.9418 138.534 72.6457ZM136.628 70.7844C137.039 70.3637 137.232 69.8565 137.208 69.2628C137.193 68.6605 136.897 68.0784 136.322 67.5167C135.747 66.9549 135.162 66.6691 134.568 66.6591C133.982 66.6406 133.484 66.8416 133.073 67.2623C132.654 67.6915 132.461 68.1987 132.493 68.7838C132.517 69.3606 132.82 69.9341 133.404 70.5042C133.979 71.066 134.556 71.3604 135.133 71.3875C135.719 71.4061 136.217 71.205 136.628 70.7844ZM140.257 56.1452C141.079 55.3039 142.008 54.9025 143.044 54.9412C144.079 54.963 145.073 55.4392 146.026 56.3698L150.224 60.4699L148.086 62.659L144.184 58.8482C143.704 58.3787 143.209 58.1385 142.699 58.1275C142.19 58.1165 141.73 58.3214 141.319 58.742C140.908 59.1627 140.714 59.6275 140.737 60.1364C140.76 60.6452 141.012 61.1344 141.493 61.604L145.395 65.4147L143.244 67.6168L136.059 60.5989L138.209 58.3969L139.162 59.3276C139.062 58.7941 139.107 58.2505 139.296 57.6967C139.476 57.1345 139.796 56.6173 140.257 56.1452Z" fill="white"/>
<path d="M67.8498 100.892L73.2676 106.165C73.8093 106.692 74.3561 106.965 74.908 106.983C75.4598 107.001 75.9868 106.752 76.489 106.236C76.9911 105.72 77.2299 105.182 77.2054 104.622C77.1808 104.063 76.8976 103.519 76.3559 102.992L70.9381 97.7192L73.0848 95.5134L78.4897 100.774C79.2981 101.56 79.8143 102.398 80.0385 103.286C80.2627 104.174 80.2322 105.048 79.9469 105.909C79.6699 106.761 79.1841 107.544 78.4894 108.258C77.7948 108.972 77.0337 109.479 76.2061 109.779C75.3783 110.061 74.5259 110.094 73.6489 109.877C72.7633 109.651 71.9163 109.145 71.1079 108.358L65.703 103.098L67.8498 100.892ZM80.6408 91.3111C81.461 90.4683 82.389 90.0654 83.4248 90.1023C84.4603 90.1221 85.4554 90.5966 86.41 91.5256L90.6152 95.6182L88.481 97.8111L84.5725 94.0072C84.0909 93.5386 83.5954 93.2992 83.0861 93.2891C82.5768 93.2791 82.1171 93.4847 81.7071 93.9061C81.297 94.3275 81.1038 94.7926 81.1277 95.3014C81.1516 95.8103 81.4043 96.299 81.8859 96.7677L85.7944 100.572L83.6477 102.777L76.4498 95.7723L78.5965 93.5664L79.5511 94.4954C79.4505 93.9622 79.4941 93.4185 79.6817 92.8643C79.8608 92.3018 80.1805 91.7841 80.6408 91.3111ZM88.0683 91.0088C87.3287 90.2891 86.8133 89.5196 86.5222 88.7004C86.2394 87.8726 86.1819 87.0714 86.3495 86.2969C86.5172 85.5224 86.8898 84.8385 87.4673 84.2451C87.9276 83.7721 88.445 83.4384 89.0194 83.2439C89.6022 83.0408 90.1701 82.9907 90.7231 83.0935L87.3821 79.842L89.5288 77.6362L99.0745 86.9262L96.9277 89.132L95.8958 88.1277C96.0389 88.6688 96.0253 89.2333 95.8551 89.8212C95.6932 90.4004 95.3654 90.9437 94.8716 91.4511C94.2941 92.0445 93.6206 92.4355 92.8509 92.6242C92.0726 92.8044 91.2659 92.7645 90.4307 92.5043C89.5953 92.2271 88.8078 91.7286 88.0683 91.0088ZM93.3288 85.6294C92.7784 85.0938 92.1935 84.8259 91.574 84.8258C90.9629 84.8172 90.4439 85.0321 90.017 85.4707C89.5902 85.9093 89.3852 86.4382 89.4021 87.0574C89.4188 87.6597 89.7023 88.2287 90.2527 88.7643C90.8031 89.3 91.3881 89.5763 92.0078 89.5934C92.6273 89.5934 93.1505 89.3742 93.5773 88.9356C94.0041 88.497 94.2049 87.9724 94.1797 87.3617C94.1628 86.7425 93.8791 86.165 93.3288 85.6294ZM103.516 74.9297C103.722 75.1306 103.925 75.3527 104.123 75.5961L99.2648 80.5882C99.7455 80.989 100.228 81.1819 100.711 81.1668C101.194 81.1348 101.616 80.9339 101.976 80.5641C102.511 80.0137 102.652 79.4051 102.397 78.7381L104.681 76.3904C105.037 76.9712 105.249 77.6047 105.318 78.2912C105.395 78.969 105.311 79.649 105.066 80.3312C104.82 81.0135 104.413 81.647 103.844 82.2317C103.158 82.9369 102.396 83.4182 101.56 83.6757C100.723 83.9331 99.8747 83.9446 99.0144 83.7102C98.1541 83.4758 97.3499 82.9945 96.6017 82.2664C95.8536 81.5382 95.3465 80.7517 95.0804 79.9067C94.8227 79.0531 94.8112 78.2046 95.0459 77.3613C95.2805 76.518 95.7452 75.7395 96.4398 75.0257C97.1177 74.3291 97.8665 73.8523 98.6862 73.595C99.5058 73.3378 100.333 73.3223 101.168 73.5486C102.011 73.7663 102.794 74.2267 103.516 74.9297ZM100.738 76.6222C100.36 76.2539 99.9336 76.09 99.4589 76.1304C98.9842 76.1708 98.5586 76.3844 98.1819 76.7714C97.8221 77.1412 97.6241 77.5597 97.588 78.0269C97.5603 78.4856 97.7149 78.9375 98.0519 79.3826L100.738 76.6222ZM104.512 69.3381C104.367 68.6952 104.372 68.0714 104.525 67.4668C104.669 66.8538 104.972 66.3109 105.432 65.8379L107.767 68.1102L107.177 68.7164C106.641 69.2668 106.36 69.7968 106.333 70.3063C106.297 70.8075 106.576 71.3468 107.169 71.9243L110.51 75.1758L108.363 77.3816L101.166 70.3764L103.312 68.1706L104.512 69.3381Z" fill="white"/>
</svg>
