<svg xmlns="http://www.w3.org/2000/svg" width="43.694" height="53.778" viewBox="0 0 43.694 53.778"><defs><style>.a{fill:#444;}</style></defs><g transform="translate(-0.5)"><path class="a" d="M82.076,195.788a.788.788,0,1,1-.788-.788A.788.788,0,0,1,82.076,195.788Zm0,0" transform="translate(-71.597 -174.518)"/><path class="a" d="M210.3,288.9h-3.231a8.1,8.1,0,0,0,.946-.807,7.922,7.922,0,0,0,1.7-8.75l-2.5-5.883a.788.788,0,0,0-1.032-.417l-1.375.582-1.881-1.876a.788.788,0,0,0-1.113,0l-1.881,1.876-1.375-.583a.788.788,0,0,0-1.032.417l-2.5,5.883a7.921,7.921,0,0,0,1.7,8.75,8.059,8.059,0,0,0,.945.807h-3.231a3.939,3.939,0,1,0,0,7.878H210.3a3.939,3.939,0,1,0,0-7.878Zm-13.829-8.94,2.2-5.159,1.139.482a.788.788,0,0,0,.864-.167l1.7-1.7,1.7,1.7a.788.788,0,0,0,.864.167l1.139-.482,2.2,5.159a6.4,6.4,0,1,1-11.8,0Zm16.056,12.091H205.52a2.363,2.363,0,0,0-2.228,3.151h-5.7a3.921,3.921,0,0,0,.711-1.576H201a.788.788,0,0,0,0-1.576H198.3a3.916,3.916,0,0,0-.711-1.576H210.3a2.366,2.366,0,0,1,2.227,1.576Zm-20.451.788a2.363,2.363,0,1,1,2.363,2.363A2.366,2.366,0,0,1,192.075,292.843Zm18.224,2.363H205.52a.788.788,0,0,1,0-1.576h7.007A2.367,2.367,0,0,1,210.3,295.206Zm0,0" transform="translate(-170.043 -243.004)"/><path class="a" d="M269.939,343.552a3.943,3.943,0,0,0,3.939-3.939,3.893,3.893,0,0,0-1.153-2.775l-2.23-2.225a.787.787,0,0,0-1.113,0l-2.23,2.225A3.9,3.9,0,0,0,266,339.613,3.943,3.943,0,0,0,269.939,343.552Zm-1.674-5.6,1.674-1.669,1.674,1.67a2.328,2.328,0,0,1,.69,1.659,2.363,2.363,0,1,1-4.727,0A2.33,2.33,0,0,1,268.265,337.953Zm0,0" transform="translate(-237.613 -299.261)"/><path class="a" d="M22.863,15.755h12.6a2.361,2.361,0,0,0,2.1-3.454A3.151,3.151,0,0,0,36.4,8.392l-4-2.621a2.625,2.625,0,0,0-1.111-4.678,2.62,2.62,0,0,0-4.258,0,2.625,2.625,0,0,0-1.111,4.678l-4,2.621a3.151,3.151,0,0,0-1.16,3.91,2.361,2.361,0,0,0,2.1,3.454Zm2.363-5.514a3.939,3.939,0,1,1,3.939,3.939A3.943,3.943,0,0,1,25.227,10.241Zm11.029.788a1.566,1.566,0,0,1-.267.877.788.788,0,0,0,.066.964.777.777,0,0,1,.2.523.788.788,0,0,1-.788.788H33.019a5.5,5.5,0,0,0,1.532-5.118l.989.649a1.572,1.572,0,0,1,.715,1.318Zm-8.749-8.4a.787.787,0,0,0,.711-.449,1.047,1.047,0,0,1,1.9,0,.788.788,0,0,0,.711.449,1.05,1.05,0,0,1,0,2.1H27.507a1.05,1.05,0,0,1,0-2.1Zm-5.165,9.28a1.574,1.574,0,0,1,.449-2.2l.988-.648a5.5,5.5,0,0,0,1.532,5.118H22.863a.788.788,0,0,1-.788-.788.776.776,0,0,1,.2-.523.788.788,0,0,0,.066-.964Zm0,0" transform="translate(-17.899)"/><path class="a" d="M15.641,184.611a.788.788,0,0,0,1.14-.7v-4.78a6.038,6.038,0,0,0-.1-11.985A2.894,2.894,0,0,0,13.892,165H8.641a2.894,2.894,0,0,0-2.79,2.141,6.038,6.038,0,0,0-.1,11.985v4.78a.788.788,0,0,0,1.14.7l.435-.218v14.648l-2.612.871a.788.788,0,1,0,.5,1.495l3.151-1.05a.787.787,0,0,0,.539-.747V184.393l2.011,1.006a.787.787,0,0,0,.7,0l2.011-1.006v15.216a.788.788,0,0,0,.539.747l3.151,1.05a.788.788,0,1,0,.5-1.495l-2.612-.871V184.393Zm4.816-11.471a4.47,4.47,0,0,1-3.676,4.393v-8.786A4.471,4.471,0,0,1,20.457,173.14ZM8.641,166.575h3.414v4.989a2.892,2.892,0,0,1-2.888,2.888H7.328v-6.565A1.314,1.314,0,0,1,8.641,166.575ZM2.076,173.14a4.471,4.471,0,0,1,3.676-4.393v8.786A4.47,4.47,0,0,1,2.076,173.14Zm9.191,10.673-2.8-1.4-.014-.006c-.019-.009-.039-.018-.059-.025l-.023-.009-.061-.018-.023-.006-.065-.011-.021,0a.757.757,0,0,0-.087,0,.85.85,0,0,0-.087,0l-.021,0-.065.011-.024.006c-.02.005-.041.011-.06.018l-.024.009c-.02.007-.039.016-.059.025l-.014.006-.436.218v-6.6H9.165a4.469,4.469,0,0,0,4.464-4.464v-4.989h.263a1.314,1.314,0,0,1,1.313,1.313v14.743l-.435-.218-.014-.006c-.019-.009-.039-.018-.059-.025l-.023-.009c-.02-.007-.04-.013-.061-.018l-.023-.006c-.022,0-.043-.009-.066-.012l-.019,0a.766.766,0,0,0-.174,0l-.019,0c-.023,0-.045.007-.066.012l-.023.006c-.021.005-.041.011-.061.018l-.023.009c-.02.007-.039.016-.059.025l-.014.006Zm0,0" transform="translate(0 -147.669)"/></g></svg>