<svg xmlns="http://www.w3.org/2000/svg" width="55.957" height="54.024" viewBox="0 0 55.957 54.024"><defs><style>.a{fill:#444;}</style></defs><g transform="translate(0.002 -0.012)"><path class="a" d="M55.086,332.792l-23.38-1.6a.932.932,0,0,0-1,.867,2.8,2.8,0,0,1-5.539,0,.933.933,0,0,0-.923-.867L1.863,332.726v-1.865l26.112-1.8,26.98,1.865a.935.935,0,1,0,.13-1.865l-26.177-1.8v-4.187a12.345,12.345,0,0,1,8.8-1.175l13.578,3.236v.933a.933.933,0,0,0,1.865,0V324.4a.932.932,0,0,0-.718-.933l-14.3-3.376a14.129,14.129,0,0,0-10.165,1.389A14.129,14.129,0,0,0,17.81,320.09l-14.3,3.376a.932.932,0,0,0-.718.933v4.532l-1.93.131a.932.932,0,0,0-.867.933v3.73a.941.941,0,0,0,1,.933L23.5,333.1a4.663,4.663,0,0,0,8.952,0l22.5,1.557a.935.935,0,1,0,.13-1.865ZM4.661,325.135,18.239,321.9a12.345,12.345,0,0,1,8.8,1.175v4.187L4.661,328.8Zm0,0" transform="translate(0 -282.42)"/><path class="a" d="M132.663,26.124h16.786a4.663,4.663,0,0,0,4.663-4.663V11.2a.933.933,0,0,0-1.865,0V21.461a2.8,2.8,0,0,1-2.8,2.8H132.663a2.8,2.8,0,0,1-2.8-2.8V4.675a2.8,2.8,0,0,1,2.8-2.8h16.786a2.8,2.8,0,0,1,2.8,2.8v2.8a.933.933,0,0,0,1.865,0v-2.8A4.663,4.663,0,0,0,149.449.012H132.663A4.663,4.663,0,0,0,128,4.675V21.461A4.663,4.663,0,0,0,132.663,26.124Zm0,0" transform="translate(-113.081)"/><path class="a" d="M184.933,57.358a.933.933,0,0,0-.933.933v3.73a.928.928,0,0,0,1.352.83l13.056-6.528a.932.932,0,0,0,0-1.66l-13.056-6.528a.933.933,0,0,0-1.352.83v5.6a.933.933,0,1,0,1.865,0V50.476L195.9,55.493,185.865,60.51V58.291A.933.933,0,0,0,184.933,57.358Zm0,0" transform="translate(-162.552 -42.425)"/><path class="a" d="M232,248.945v6.528a.933.933,0,1,0,1.865,0v-6.528a.933.933,0,1,0-1.865,0Zm0,0" transform="translate(-204.957 -219.09)"/><path class="a" d="M280.767,240.615l-.933,4.663a.933.933,0,0,0,.746,1.119h.187a.933.933,0,0,0,.933-.746l.933-4.663a.951.951,0,0,0-1.865-.373Zm0,0" transform="translate(-247.196 -211.88)"/><path class="a" d="M168.58,239.844a.933.933,0,0,0-.746,1.119l.933,4.663a.933.933,0,0,0,.933.746h.187a.933.933,0,0,0,.746-1.119l-.933-4.663a.932.932,0,0,0-1.119-.746Zm0,0" transform="translate(-148.251 -211.855)"/><path class="a" d="M320.461,225.563a.877.877,0,0,0,.513.158.934.934,0,0,0,.774-.42l5.6-8.393a.933.933,0,1,0-1.548-1.026l-5.6,8.393A.933.933,0,0,0,320.461,225.563Zm0,0" transform="translate(-282.74 -190.271)"/><path class="a" d="M93.392,225.3a.934.934,0,0,0,.774.42.877.877,0,0,0,.513-.158.933.933,0,0,0,.261-1.287l-5.6-8.393a.933.933,0,1,0-1.548,1.026Zm0,0" transform="translate(-77.381 -190.271)"/><path class="a" d="M368.187,276.3a.932.932,0,0,0,1.305.187l3.73-2.8A.933.933,0,0,0,372.1,272.2l-3.73,2.8A.932.932,0,0,0,368.187,276.3Zm0,0" transform="translate(-325.103 -240.291)"/><path class="a" d="M68.1,276.487a.933.933,0,0,0,1.119-1.492l-3.73-2.8a.933.933,0,0,0-1.119,1.492Zm0,0" transform="translate(-56.541 -240.291)"/></g></svg>