<svg xmlns="http://www.w3.org/2000/svg" width="54.585" height="54.585" viewBox="0 0 54.585 54.585"><defs><style>.a{fill:#444;}</style></defs><path class="a" d="M27.293,0H15.466a.91.91,0,0,0-.91.91V7.278H.91a.91.91,0,0,0-.91.91V53.675a.91.91,0,0,0,.91.91H27.293a.91.91,0,0,0,.91-.91V.91A.91.91,0,0,0,27.293,0Zm-.91,47.307H16.376v-1.82H26.383ZM1.82,13.646H14.556V40.939H1.82Zm24.563-3.639H16.376V7.278H26.383ZM1.82,42.758H14.556v2.729H1.82Zm14.556.91V11.827H26.383V43.668ZM26.383,1.82V5.459H16.376V1.82ZM14.556,9.1v2.729H1.82V9.1ZM1.82,47.307H14.556v5.459H1.82Zm14.556,5.459V49.127H26.383v3.639Zm0,0"/><path class="a" d="M274.351,106.53,263.434,64.681a.909.909,0,0,0-1.115-.649l-13.646,3.639a.909.909,0,0,0-.646,1.108l10.917,41.849a.907.907,0,0,0,1.115.648l13.646-3.639A.91.91,0,0,0,274.351,106.53ZM251.466,74.752l11.889-3.169.428,1.637-11.888,3.174Zm12.776.233,5.276,20.24L257.634,98.4l-5.276-20.241Zm5.74,22,.932,3.57-11.889,3.169-.928-3.569ZM261.9,66.025l.991,3.8-11.889,3.169-.99-3.8Zm-1.43,43.259-.991-3.8,11.889-3.17.99,3.8Zm0,0" transform="translate(-219.795 -56.723)"/><path class="a" d="M40.188,144H32.91a.91.91,0,0,0-.91.91v7.278a.91.91,0,0,0,.91.91h7.278a.91.91,0,0,0,.91-.91V144.91A.91.91,0,0,0,40.188,144Zm-.91,7.278H33.82V145.82h5.459Zm0,0" transform="translate(-28.361 -127.624)"/></svg>