<svg xmlns="http://www.w3.org/2000/svg" width="54.101" height="54.086" viewBox="0 0 54.101 54.086"><defs><style>.a{fill:#444;}</style></defs><g transform="translate(0 -0.067)"><g transform="translate(0 0.29)"><path class="a" d="M53.331,16.032h0l0,0-3.492-.5a.9.9,0,0,1-.412-1.607l2.822-2.117a.9.9,0,0,0,.18-1.257L49.2,6.243a.9.9,0,0,0-1.257-.18L45.117,8.18a.9.9,0,0,1-1.431-.845l.5-3.492a.9.9,0,0,0-.761-1.016h0l-5.329-.761a.9.9,0,0,0-1.016.761h0l-.5,3.492a.9.9,0,0,1-1.607.412L32.856,3.909a.9.9,0,0,0-1.257-.18L28.9,5.754a17.369,17.369,0,0,0-3.672,0A17.056,17.056,0,0,0,10.191,21.048c-.024.254-.033.506-.046.759H9.876A.9.9,0,0,0,9,22.525l-.62,2.95L5.893,23.761a.9.9,0,0,0-1.145.1L2.055,26.558a.9.9,0,0,0-.1,1.144l1.706,2.48L.706,30.8A.9.9,0,0,0,0,31.681v3.591a.9.9,0,0,0,.713.879l2.951.62-1.706,2.48a.9.9,0,0,0,.1,1.144l2.693,2.693a.9.9,0,0,0,1.145.1l2.48-1.71L9,44.433a.9.9,0,0,0,.878.718h3.591a.9.9,0,0,0,.879-.713l.62-2.951,2.48,1.706a.9.9,0,0,0,1.144-.1l1.394-1.4v2.558a3.579,3.579,0,0,0,1.8,3.092v4.988a3.591,3.591,0,0,0,3.591,3.591h3.591a3.591,3.591,0,0,0,3.591-3.591V47.341a3.579,3.579,0,0,0,1.8-3.092V40.7a4.4,4.4,0,0,1,2.076-3.664,17.228,17.228,0,0,0,2.113-1.616l-1.2-1.338a15.283,15.283,0,0,1-1.891,1.446,6.183,6.183,0,0,0-2.9,5.172v3.553a1.8,1.8,0,0,1-1.8,1.8H23.577a1.8,1.8,0,0,1-1.8-1.8V40.622a6.04,6.04,0,0,0-2.848-5.067,15.215,15.215,0,0,1,8.041-28.1.976.976,0,0,0-.035.1.9.9,0,0,0,.171.665l2.116,2.821a.879.879,0,0,1,.054,1,.892.892,0,0,1-.9.432l-3.492-.5a.9.9,0,0,0-1.016.761h0l-.762,5.331a.9.9,0,0,0,.761,1.016h0l3.492.5a.9.9,0,0,1,.412,1.607L24.958,23.3a.9.9,0,0,0-.18,1.257l3.232,4.309a.9.9,0,0,0,1.257.18l2.822-2.116a.9.9,0,0,1,1.426.845l-.5,3.492a.9.9,0,0,0,.761,1.016h0l5.332.762a1,1,0,0,0,.127.008.9.9,0,0,0,.89-.77l.5-3.492a.9.9,0,0,1,1.607-.412L44.349,31.2a.9.9,0,0,0,1.257.18l4.309-3.232a.9.9,0,0,0,.18-1.257l-2.116-2.821a.882.882,0,0,1-.054-1,.872.872,0,0,1,.9-.431l3.492.5a.9.9,0,0,0,1.016-.761h0l.761-5.332A.9.9,0,0,0,53.331,16.032ZM23.577,47.84h7.182v1.8H23.577Zm0,3.591h7.182v.9a1.8,1.8,0,0,1-1.8,1.8H25.373a1.8,1.8,0,0,1-1.8-1.8ZM16.431,35.95a16.967,16.967,0,0,0,1.534,1.118,4.382,4.382,0,0,1,1.809,2.3l-1.926,1.922L15.984,40a1.8,1.8,0,0,0-2.776,1.109l-.47,2.242H10.6l-.47-2.238A1.8,1.8,0,0,0,7.358,40L5.492,41.287,3.857,39.655l1.285-1.864a1.8,1.8,0,0,0-1.108-2.777L1.8,34.543V32.41l2.238-.471a1.8,1.8,0,0,0,1.109-2.771L3.857,27.3l1.636-1.632,1.866,1.286a1.8,1.8,0,0,0,2.775-1.11l.157-.747A17.1,17.1,0,0,0,11,28.14a5.386,5.386,0,1,0,5.428,7.81Zm-1.394-1.265a3.585,3.585,0,1,1-3.367-4.8H11.7A17,17,0,0,0,15.037,34.685ZM51.675,21.236l-2.6-.372a2.693,2.693,0,0,0-2.535,4.282l1.577,2.1L45.242,29.4l-1.578-2.1a2.693,2.693,0,0,0-4.821,1.234l-.364,2.607-3.554-.508.372-2.6A2.693,2.693,0,0,0,31.015,25.5l-2.1,1.577L26.757,24.2l2.1-1.578A2.693,2.693,0,0,0,27.625,17.8l-2.6-.372.508-3.554,2.6.372a2.693,2.693,0,0,0,2.536-4.282L29.087,7.86l2.873-2.154,1.578,2.1a2.693,2.693,0,0,0,4.821-1.234l.372-2.6,3.554.507-.372,2.6a2.693,2.693,0,0,0,4.282,2.535l2.1-1.577,2.154,2.873-2.1,1.578a2.693,2.693,0,0,0,1.234,4.821l2.6.372Z" transform="translate(0 -2.057)"/></g><g transform="translate(31.42 8.607)"><path class="a" d="M287.182,76.171a7.182,7.182,0,1,0,7.182,7.182A7.182,7.182,0,0,0,287.182,76.171Zm0,12.568a5.386,5.386,0,1,1,5.386-5.386A5.386,5.386,0,0,1,287.182,88.739Z" transform="translate(-280 -76.171)"/></g><g transform="translate(26.27 39.789)"><rect class="a" width="1.795" height="2.693"/></g><g transform="translate(14.593 10.303)"><path class="a" d="M138.693,111.961a10.772,10.772,0,0,1-1.819-19.151l-.96-1.519a12.568,12.568,0,0,0,2.127,22.34,5.731,5.731,0,0,1,3.681,5.35h1.8A7.511,7.511,0,0,0,138.693,111.961Z" transform="translate(-130.044 -91.291)"/></g><g transform="translate(44.225 33.505)"><rect class="a" width="6.284" height="1.795"/></g><g transform="translate(42.752 38.201)"><g transform="translate(0 0)"><rect class="a" width="1.795" height="7.011" transform="matrix(0.64, -0.768, 0.768, 0.64, 0, 1.379)"/></g></g><g transform="translate(38.838 40.687)"><rect class="a" width="1.795" height="6.284"/></g><g transform="translate(0.917 13.782)"><g transform="translate(0 0)"><rect class="a" width="7.402" height="1.795" transform="translate(0 1.795) rotate(-14.035)"/></g></g><g transform="translate(2.408 4.947)"><g transform="translate(0 0)"><rect class="a" width="1.795" height="7.722" transform="matrix(0.581, -0.814, 0.814, 0.581, 0, 1.46)"/></g></g><g transform="translate(10.1 0.067)"><g transform="translate(0 0)"><rect class="a" width="1.795" height="7.412" transform="matrix(0.969, -0.248, 0.248, 0.969, 0, 0.445)"/></g></g></g></svg>