<svg xmlns="http://www.w3.org/2000/svg" width="54.086" height="54.086" viewBox="0 0 54.086 54.086"><defs><style>.a{fill:#444;}</style></defs><g transform="translate(-1 -1)"><path class="a" d="M54.326,27.518a7.422,7.422,0,0,0-4.308-2.107L47.55,25.1a1.747,1.747,0,0,1-1.528-1.731v-.379a6.993,6.993,0,0,0,3.352-4.662l1.405-1.015A5.581,5.581,0,0,0,53,12.872a6.265,6.265,0,0,0-2.787-5.218A7.77,7.77,0,0,0,43.069,3H42a7.77,7.77,0,0,0-7.145,4.654,6.264,6.264,0,0,0-2.788,5.218A5.588,5.588,0,0,0,34.3,17.325l1.392,1.006a6.993,6.993,0,0,0,3.352,4.662v.286A1.734,1.734,0,0,1,37.571,25a18.039,18.039,0,0,0-3.167.726,15.82,15.82,0,0,0-4.936,3.106l-7-7-2.13-2.13a3.408,3.408,0,0,0-5.384.747h-.337A2.62,2.62,0,0,0,12,23.064v1.745a2.62,2.62,0,0,0,2.617,2.617h4l6.941,6.941a6.085,6.085,0,0,0,7.217,1.039l1.033-.563v20.5H51.256V49.074a2.588,2.588,0,0,0,.872.161h1.745a2.62,2.62,0,0,0,2.617-2.617V32.742a7.34,7.34,0,0,0-2.164-5.225Zm-8.594-1.326a3.485,3.485,0,0,0,.669.375l-.9,4.924-1.88-2.35ZM33.809,12.872A4.526,4.526,0,0,1,35.827,9.1l.435-.29.1-.251A6.037,6.037,0,0,1,42,4.745h1.072A6.038,6.038,0,0,1,48.7,8.559l.1.251.435.29a4.523,4.523,0,0,1,2.019,3.772,3.819,3.819,0,0,1-1.511,3.038l-.234.169v-3.24l-.872-.29a9.635,9.635,0,0,1-3.744-2.314L44.36,9.7l-.606.454A12.3,12.3,0,0,1,36.426,12.6h-.872v3.483l-.221-.16a3.826,3.826,0,0,1-1.524-3.047ZM37.3,16.958V14.313a14.082,14.082,0,0,0,6.9-2.339,11.411,11.411,0,0,0,3.565,2.118v2.866a5.234,5.234,0,0,1-10.468,0Zm5.234,6.979a6.972,6.972,0,0,0,1.775-.237,3.457,3.457,0,0,0,.284,1.088l-2.059,2.882-2.086-2.92a3.453,3.453,0,0,0,.3-1.053,6.914,6.914,0,0,0,1.783.24Zm-1.093,5.2-1.881,2.351-.911-5.006a3.42,3.42,0,0,0,.641-.354ZM13.745,24.809V23.064a.874.874,0,0,1,.872-.872h1.411l.413-.825a1.654,1.654,0,0,1,1.487-.919,1.679,1.679,0,0,1,1.176.487l2.13,2.13-2.617,2.617h-4a.874.874,0,0,1-.872-.872Zm18.2,9.066a4.341,4.341,0,0,1-5.15-.742l-6.579-6.579L22.468,24.3l6.262,6.262.809,1.618L31.1,31.4l-.581-1.163a14.421,14.421,0,0,1,4.439-2.853,15.622,15.622,0,0,1,1.991-.495l1.58,8.687,4-5.006,4,5.006,1.571-8.643,1.693.211a5.674,5.674,0,0,1,3.291,1.609,5.608,5.608,0,0,1,1.653,3.991v7.769H51.256v-7.49a2.122,2.122,0,0,1,.617-1.489L50.639,30.3a3.823,3.823,0,0,0-1.128,2.723v8l-.994.994a2.539,2.539,0,0,0-.642,1.111H35.554V33.021A3.823,3.823,0,0,0,34.426,30.3l-1.234,1.234a2.117,2.117,0,0,1,.6,1.333ZM49.511,53.6H43.4V51.121a2.951,2.951,0,0,1,2.02-2.8l-.552-1.655A4.692,4.692,0,0,0,42.532,48.4a4.693,4.693,0,0,0-2.341-1.732l-.552,1.655a2.951,2.951,0,0,1,2.022,2.8V53.6H35.554V44.873H47.987a2.55,2.55,0,0,0,1.2,1.247l.328.164V53.6Zm4.362-6.106H52.128a.874.874,0,0,1-.872-.872V45.206l-1.293-.646a.818.818,0,0,1-.213-1.309l.994-.994h4v4.362a.874.874,0,0,1-.872.872Z" transform="translate(-1.404 -0.255)"/><path class="a" d="M18.438,48.155l-.6-.12a6.94,6.94,0,0,0,.609-2.821V39.979a6.979,6.979,0,0,0-13.958,0v5.234a6.939,6.939,0,0,0,.609,2.82l-.6.121A4.375,4.375,0,0,0,1,52.43v6.741H21.936V52.43A4.375,4.375,0,0,0,18.438,48.155Zm-3.088-.621a1.736,1.736,0,0,1-1.021-.8,4.369,4.369,0,0,0,1.131-1.521h.37a2.588,2.588,0,0,0,.872-.161v.161a5.2,5.2,0,0,1-.631,2.465Zm-1.265-4.065a2.617,2.617,0,1,1-5.234,0V40.8a8.307,8.307,0,0,0,2.617-.727,8.33,8.33,0,0,0,2.617.727Zm-1.064,7.851H9.915l-.62-2.746a3.494,3.494,0,0,0,.83-.977,3.979,3.979,0,0,0,2.688,0,3.476,3.476,0,0,0,.831.968Zm-.393,1.745-.985,4.362h-.349l-.985-4.362Zm3.2-11.341a.872.872,0,0,1,0,1.745Zm-4.362-6.979A5.239,5.239,0,0,1,16.7,39.979v.161a2.588,2.588,0,0,0-.872-.161v-.872h-.872a6.553,6.553,0,0,1-2.915-.688l-.574-.287-.574.287a6.553,6.553,0,0,1-2.915.688H7.106v.872a2.588,2.588,0,0,0-.872.161v-.161A5.239,5.239,0,0,1,11.468,34.745ZM7.106,43.468a.872.872,0,0,1,0-1.745Zm-.872,1.745v-.161a2.588,2.588,0,0,0,.872.161h.37a4.366,4.366,0,0,0,1.131,1.521,1.675,1.675,0,0,1-.955.783l-.789.16A5.19,5.19,0,0,1,6.234,45.213ZM2.745,52.43a2.626,2.626,0,0,1,2.1-2.566l2.825-.573L9.5,57.426H2.745Zm17.447,5h-6.76l1.835-8.132,2.826.571a2.626,2.626,0,0,1,2.1,2.566Z" transform="translate(0 -4.085)"/><path class="a" d="M7,5H19.213V6.745H7Z" transform="translate(-0.766 -0.511)"/><path class="a" d="M7,9h8.724v1.745H7Z" transform="translate(-0.766 -1.021)"/><path class="a" d="M19,9h1.745v1.745H19Z" transform="translate(-2.298 -1.021)"/><path class="a" d="M6.345,13.213h5.89l2.873,2.873A2.106,2.106,0,0,0,18.7,14.6V13.213h.145a3.348,3.348,0,0,0,3.345-3.345V4.489A3.493,3.493,0,0,0,18.7,1H6.489A3.493,3.493,0,0,0,3,4.489V9.868A3.348,3.348,0,0,0,6.345,13.213Zm-1.6-8.724A1.746,1.746,0,0,1,6.489,2.745H18.7a1.746,1.746,0,0,1,1.745,1.745V9.868a1.6,1.6,0,0,1-1.6,1.6h-1.89V14.6a.375.375,0,0,1-.617.256l-3.384-3.384H6.345a1.6,1.6,0,0,1-1.6-1.6Z" transform="translate(-0.255)"/></g></svg>