<svg xmlns="http://www.w3.org/2000/svg" width="54.086" height="54.086" viewBox="0 0 54.086 54.086"><defs><style>.a{fill:#444;}</style></defs><g transform="translate(-1 -1)"><path class="a" d="M45.677,17.289l11.359-7.1A2.894,2.894,0,0,0,58.4,7.721V7.4a2.912,2.912,0,0,0-4.439-2.48L45.22,10.3a7.816,7.816,0,0,1-3.434,1.117,6.11,6.11,0,1,0-8.072.491A9.611,9.611,0,0,0,27,21.064v6.979A4.367,4.367,0,0,0,31.362,32.4v15.7H27.872v6.979H58.4V41.128H50.554V28.915a4.367,4.367,0,0,0-4.362-4.362H44.446V19.509a2.6,2.6,0,0,1,1.23-2.219ZM33.106,7.106a4.362,4.362,0,1,1,4.362,4.362A4.367,4.367,0,0,1,33.106,7.106ZM56.66,42.873V53.341H29.617V49.852h8.724V46.362h5.234V42.873ZM38.341,44.618V31.532h5.234v9.6H41.83v3.489ZM46.192,26.3a2.62,2.62,0,0,1,2.617,2.617V41.128H45.319v-9.6a1.746,1.746,0,0,0-1.745-1.745H38.341V26.3H36.6V48.107H33.106V17.575H31.362V30.66a2.62,2.62,0,0,1-2.617-2.617V21.064A7.86,7.86,0,0,1,36.6,13.213h4.51a9.587,9.587,0,0,0,5.029-1.424l8.746-5.382A1.168,1.168,0,0,1,56.66,7.4v.319a1.16,1.16,0,0,1-.549.99l-11.359,7.1a4.336,4.336,0,0,0-2.05,3.7V26.3Z" transform="translate(-3.319)"/><path class="a" d="M14.986,20.089a6.106,6.106,0,1,0-7.035,0A10.476,10.476,0,0,0,1,29.936v6.979A3.493,3.493,0,0,0,4.489,40.4h.872V52.618A3.475,3.475,0,0,0,11.468,54.9a3.475,3.475,0,0,0,6.106-2.284V40.4h.872a3.493,3.493,0,0,0,3.489-3.489V29.936A10.476,10.476,0,0,0,14.986,20.089ZM7.106,15.106a4.362,4.362,0,1,1,4.362,4.362A4.367,4.367,0,0,1,7.106,15.106Zm6.254,6.319-1.945,2.723L9.222,21.517a8.474,8.474,0,0,1,4.138-.092Zm6.831,15.49a1.746,1.746,0,0,1-1.745,1.745h-.872V26.447H15.83V52.618a1.745,1.745,0,1,1-3.489,0V35.171H10.6V52.618a1.745,1.745,0,1,1-3.489,0V26.447H5.362V38.66H4.489a1.746,1.746,0,0,1-1.745-1.745V29.936A8.727,8.727,0,0,1,7.5,22.177L11.521,27l3.566-4.992a8.73,8.73,0,0,1,5.105,7.928Z" transform="translate(0 -1.021)"/><path class="a" d="M57,57h1.745v1.745H57Z" transform="translate(-7.148 -7.148)"/><path class="a" d="M53,57h1.745v1.745H53Z" transform="translate(-6.638 -7.148)"/><path class="a" d="M49,57h1.745v1.745H49Z" transform="translate(-6.127 -7.148)"/></g></svg>