<svg xmlns="http://www.w3.org/2000/svg" width="54.086" height="54.086" viewBox="0 0 54.086 54.086"><defs><style>.a{fill:#444;}</style></defs><g transform="translate(13.521)"><path class="a" d="M144.9,0h-6.761a10.141,10.141,0,0,0,0,20.282H144.9A10.141,10.141,0,0,0,144.9,0Zm0,18.029h-6.761a7.888,7.888,0,1,1,0-15.775H144.9a7.888,7.888,0,1,1,0,15.775Z" transform="translate(-128)"/></g><g transform="translate(13.808 11.268)"><path class="a" d="M155.212,106.667l-23.376.009a1.127,1.127,0,0,0,0,2.254l23.376-.009a1.127,1.127,0,1,0,0-2.254Z" transform="translate(-130.709 -106.667)"/></g><g transform="translate(20.282 11.266)"><path class="a" d="M195.794,106.732a1.127,1.127,0,0,0-1.463.629l-2.254,5.634a1.125,1.125,0,0,0,.627,1.465,1.1,1.1,0,0,0,.419.081,1.121,1.121,0,0,0,1.043-.71l2.254-5.634A1.125,1.125,0,0,0,195.794,106.732Z" transform="translate(-191.996 -106.652)"/></g><g transform="translate(29.296 11.268)"><path class="a" d="M281.753,113.009l-2.254-5.634a1.125,1.125,0,1,0-2.089.836l2.254,5.634a1.125,1.125,0,1,0,2.089-.836Z" transform="translate(-277.329 -106.665)"/></g><g transform="translate(18.029 18.029)"><path class="a" d="M187.568,170.667H171.793a1.127,1.127,0,0,0-1.127,1.127V176.3a3.384,3.384,0,0,0,3.38,3.38h11.268a3.384,3.384,0,0,0,3.38-3.38v-4.507A1.127,1.127,0,0,0,187.568,170.667Zm-1.127,5.634a1.129,1.129,0,0,1-1.127,1.127H174.046a1.129,1.129,0,0,1-1.127-1.127v-3.38h13.521Z" transform="translate(-170.666 -170.667)"/></g><g transform="translate(6.761 18.029)"><path class="a" d="M81.407,202.336l-3.66-1.83,3.105-10.36a1.05,1.05,0,0,0,.043-.435l-1.127-11.268a1.141,1.141,0,0,0-1.233-1.01,1.124,1.124,0,0,0-1.007,1.233l1.1,11.045-3.315,11.054a1.125,1.125,0,0,0,.575,1.332l3.885,1.943v.43H66.254v-.43l3.885-1.94a1.128,1.128,0,0,0,.575-.685l3.38-11.268a1.05,1.05,0,0,0,.043-.435L73.01,178.443a1.119,1.119,0,0,0-.325-.685l-1.925-1.925V172.92h5.634a1.127,1.127,0,1,0,0-2.254H69.634a1.127,1.127,0,0,0-1.127,1.127V176.3a1.135,1.135,0,0,0,.329.8l1.97,1.97,1.064,10.646L68.694,200.3l-4.072,2.035A1.129,1.129,0,0,0,64,203.343V205.6a1.127,1.127,0,0,0,1.127,1.127H80.9a1.127,1.127,0,0,0,1.127-1.127v-2.254A1.129,1.129,0,0,0,81.407,202.336Z" transform="translate(-64 -170.666)"/></g><g transform="translate(11.269 47.324)"><path class="a" d="M115.242,448.215a1.127,1.127,0,0,0-1.577.225l-2.479,3.306-2.477-3.306a1.128,1.128,0,0,0-1.805,1.352l3.38,4.507a1.129,1.129,0,0,0,1.805,0l3.38-4.507A1.128,1.128,0,0,0,115.242,448.215Z" transform="translate(-106.68 -447.989)"/></g><g transform="translate(29.297 18.029)"><path class="a" d="M294.741,202.336l-4.072-2.035-3.175-10.587,1.064-10.646,1.97-1.97a1.135,1.135,0,0,0,.329-.8v-4.507a1.127,1.127,0,0,0-1.127-1.127h-6.761a1.127,1.127,0,1,0,0,2.254H288.6v2.914l-1.925,1.922a1.119,1.119,0,0,0-.325.685l-1.127,11.268a1.1,1.1,0,0,0,.043.435l3.38,11.268a1.122,1.122,0,0,0,.575.685l3.885,1.943v.43H279.587v-.43l3.883-1.943a1.125,1.125,0,0,0,.575-1.332l-3.315-11.054,1.1-11.045a1.123,1.123,0,0,0-1.007-1.233,1.144,1.144,0,0,0-1.233,1.01l-1.127,11.268a1.1,1.1,0,0,0,.043.435l3.108,10.36-3.66,1.83a1.129,1.129,0,0,0-.622,1.007V205.6a1.127,1.127,0,0,0,1.127,1.127h15.775a1.127,1.127,0,0,0,1.127-1.127v-2.254A1.129,1.129,0,0,0,294.741,202.336Z" transform="translate(-277.334 -170.666)"/></g><g transform="translate(33.805 47.324)"><path class="a" d="M328.577,448.215a1.127,1.127,0,0,0-1.577.225l-2.479,3.3-2.479-3.3a1.128,1.128,0,0,0-1.805,1.352l3.38,4.507a1.126,1.126,0,0,0,.9.451,1.141,1.141,0,0,0,.906-.451l3.38-4.507A1.128,1.128,0,0,0,328.577,448.215Z" transform="translate(-320.012 -447.989)"/></g><g transform="translate(0 9.014)"><path class="a" d="M5.634,85.333a5.634,5.634,0,1,0,5.634,5.634A5.64,5.64,0,0,0,5.634,85.333Zm0,9.014a3.38,3.38,0,1,1,3.38-3.38A3.384,3.384,0,0,1,5.634,94.347Z" transform="translate(0 -85.333)"/></g><g transform="translate(7.176 5.634)"><path class="a" d="M76.061,53.333c-5.339,0-7.89,4.651-7.993,4.85a1.125,1.125,0,1,0,1.983,1.064c.02-.036,2.008-3.66,6.01-3.66a1.127,1.127,0,1,0,0-2.254Z" transform="translate(-67.933 -53.333)"/></g><g transform="translate(9.014 11.275)"><path class="a" d="M92.374,107.812A1.13,1.13,0,0,0,91.2,106.74a8.861,8.861,0,0,0-5.49,2.3,1.126,1.126,0,1,0,1.5,1.683,6.542,6.542,0,0,1,4.1-1.735A1.123,1.123,0,0,0,92.374,107.812Z" transform="translate(-85.329 -106.738)"/></g><g transform="translate(4.507 13.521)"><g transform="translate(0 0)"><ellipse class="a" cx="1" cy="1.5" rx="1" ry="1.5" transform="translate(0.493 -0.436)"/></g></g><g transform="translate(42.818 9.014)"><path class="a" d="M410.968,85.333a5.634,5.634,0,1,0,5.634,5.634A5.64,5.64,0,0,0,410.968,85.333Zm0,9.014a3.38,3.38,0,1,1,3.38-3.38A3.384,3.384,0,0,1,410.968,94.347Z" transform="translate(-405.334 -85.333)"/></g><g transform="translate(37.655 5.634)"><path class="a" d="M365.581,58.184c-.106-.2-2.657-4.85-8-4.85a1.127,1.127,0,1,0,0,2.254,7.279,7.279,0,0,1,6.013,3.664,1.127,1.127,0,0,0,.992.588,1.112,1.112,0,0,0,.534-.135A1.125,1.125,0,0,0,365.581,58.184Z" transform="translate(-356.458 -53.334)"/></g><g transform="translate(38.026 11.276)"><path class="a" d="M366.633,109.047a8.854,8.854,0,0,0-5.49-2.3,1.147,1.147,0,0,0-1.176,1.073A1.127,1.127,0,0,0,361.039,109a6.542,6.542,0,0,1,4.1,1.735,1.127,1.127,0,1,0,1.5-1.686Z" transform="translate(-359.965 -106.743)"/></g><g transform="translate(47.325 13.521)"><g transform="translate(0 0)"><circle class="a" cx="1.5" cy="1.5" r="1.5" transform="translate(-0.325 -0.436)"/></g></g></svg>